<?xml version="1.0" encoding="utf-8"?>
<!-- Generator: Adobe Illustrator 23.0.2, SVG Export Plug-In . SVG Version: 6.00 Build 0)  -->
<svg version="1.1" id="Layer_1" xmlns="http://www.w3.org/2000/svg" xmlns:xlink="http://www.w3.org/1999/xlink" x="0px" y="0px"
	 viewBox="0 0 686.9 429.4" style="enable-background:new 0 0 686.9 429.4;" xml:space="preserve">
<style type="text/css">
	.st0{fill:#443D4A;}
</style>
<g id="IuQHF7_1_">
	<g>
		<path class="st0" d="M686.9,323.2c-0.4,0.4-0.7,0.9-1.2,1.2c-3.3,1.8-6.7,3.6-10.1,5.1c-1.4,0.6-3,0.4-4.6,0.6
			c1.2-0.8,2.4-1.6,3.7-2.5c0.5-0.4,1.4-0.6,1.5-1.1c0.6-2.4,2.6-2.6,4.4-2.8c2.6-0.3,4.6-1.5,6.3-3.4
			C686.9,321.3,686.9,322.3,686.9,323.2z"/>
		<path class="st0" d="M476.1,115.9c3.3-0.1,1.9,1.4,1.3,2.8c-0.5,1.2-0.6,2.6-0.7,4c0,1.6,0.2,3.2,0.4,4.7c1.3-0.7,2.6-1.6,4-2
			c1.8-0.4,3.6-0.4,3.6-3.1c0-0.5,1.2-1.3,2-1.3c1.3-0.1,2.7,0.2,4.1,0.4c0.1,0,0.2,0.6,0.1,0.8c-2.4,2.9-2.9,7.5-7.3,8.6
			c-1.4,0.4-3.5,1.3-3.9-1.5c0-0.1-1-0.2-1.1-0.1c-0.2,0.5-0.4,1.1-0.3,1.6c0.1,0.4,0.5,0.8,0.8,1.2c-0.5-0.1-0.9-0.1-1.4-0.2
			c-3.4-0.6-5.9-4-5.4-7.6c0.2-1.6,0.5-3-1.8-3.6c-1.4-0.4-1.5-2.1-0.1-2.8C472.1,117,474.1,116.6,476.1,115.9z"/>
		<path class="st0" d="M675.4,278.1c0.7,1.2,1.2,2.6,2.1,3.7c1.2,1.4,1.5,2.7,0.7,4.4c-0.9,1.8-1.3,3.8-2.2,5.5
			c-0.6,1.2-1.6,2.3-2.7,3c-0.7,0.5-1.8,0.4-2.7,0.5c0.2-0.8,0.2-1.8,0.5-2.5c2.4-5.2,2.1-10.7,2.3-16.1c0-1.3,0.7-2.5,1.1-3.8
			c0.5,1.3,1,2.5,1.5,3.9c0.1,0.3-0.1,0.8-0.1,1.1C675.7,278,675.5,278,675.4,278.1z"/>
		<path class="st0" d="M482.5,145.8c-1,1.1-1.7,2.3-2.6,2.8c-2.9,1.5-5.9,3.2-9,3.9c-1.6,0.3-3.6-1.2-5.4-2c0.2-0.3,0.4-0.7,0.6-0.8
			c3-1.4,6.2-2.5,9-4.1c1.1-0.6,1.9-2.2,2.2-3.5c0.3-1.9,1.1-2,2.1-0.8C480.5,142.5,481.3,144.1,482.5,145.8z"/>
		<path class="st0" d="M475.8,351.9c-1.2-0.2-2.2-0.6-3.1-0.6c-1.6,0.1-3.3,0.2-4.8,0.8c-2.8,1.1-5.5,2.5-8.2,3.7
			c-0.4,0.2-0.9,0-1.3,0c0-0.4-0.1-1,0.2-1.3c2.7-3.2,5.7-5.7,10.1-6.3c2.7-0.4,4.9,0.6,7.3,1.4c0.8,0.3,1.5,0.9,2.2,1.4
			C477.3,351.3,476.4,351.6,475.8,351.9z"/>
		<path class="st0" d="M498.5,249.8c0,1-1.2,2.4,0.9,1.8c0.1,0,0.4,0.4,0.4,0.5c-1,1.6,0,3,0.5,4.5c0.6,2.1-1.7,5.8-3.8,6.4
			c-0.2,0.1-0.5,0-0.8,0c0.1-0.2,0.1-0.6,0.3-0.7c3.1-2.4,2.8-5.2,2.2-8.8c-1.7-9.9-2.7-20-4-30.1c0-0.3-0.1-0.6-0.1-0.9
			c-0.1-1.2-0.1-2.5-0.2-3.7c0.3,1.3,0.8,2.5,1,3.8c1.2,8.8,2.4,17.6,3.5,26.5C498.4,249.5,498.5,249.8,498.5,249.8z"/>
		<path class="st0" d="M475.8,400.2c-2,0.1-3-0.7-3.2-2.8c0-0.7-0.5-1.3-0.7-2c-0.1-0.2,0.1-0.7,0.2-0.7c1.8-0.2,1.8-0.6,0.6-1.9
			c-2.2-2.3,0.7-1.6,1.4-1.9c0.7-0.3,2.2-0.5,2.3-0.2c0.4,1,0.8,3,0.6,3.1c-2.4,1-0.7,2.7-0.8,4c0,0.3,0.2,0.6,0.4,0.9
			c0.3,0.4,0.7,0.8,1.1,1.2C477,400,476.4,400.1,475.8,400.2z"/>
		<path class="st0" d="M476.9,171.6c-0.2-0.1-0.9-0.4-1.5-0.8c-0.8-0.6-1.1-1,0.2-1.7c2.9-1.6,5.7-3.6,8.5-5.3
			c0.4-0.2,1-0.3,1.5-0.4c0.1,0.4,0.3,0.9,0.3,1.3C485.5,166.8,479.7,171.5,476.9,171.6z"/>
		<path class="st0" d="M449.6,349.2c0-2.7,2.7-4.7,4.7-4.4c1.6,0.3,1.5,1.4,1,2.4c-1.1,1.9-2.5,3.7-3.9,5.5c-0.1,0.1-1-0.1-1.1-0.3
			C449.9,351.2,449.7,349.9,449.6,349.2z"/>
		<path class="st0" d="M482.6,160.1c-2,0.6-4.1,1.3-6.1,1.9c-0.8,0.2-1.6,0.6-2.4,0.8c-0.3,0.1-0.7-0.1-1-0.2
			c0.2-0.3,0.3-0.8,0.6-0.9c1.9-0.8,3.9-1.4,5.8-2.2c1.3-0.6,2.6-1.3,3.9-1.9c1-0.4,2-0.9,3-0.8c0.8,0.1,1.5,0.9,2.3,1.3
			c-0.5,0.6-0.9,1.4-1.5,1.6c-1.4,0.5-2.9,0.7-4.3,1.1C482.7,160.6,482.7,160.4,482.6,160.1z"/>
		<path class="st0" d="M493.1,357.9c3.5,0.2,6.4,0.4,9.3,0.6c0.3,0,0.6,0.3,0.9,0.4c-0.2,0.1-0.5,0.2-0.8,0.3
			c-2.4,0.5-4.8,1.5-7.2,1.5c-2,0-4-1.1-5.9-1.8c-0.2,0-0.2-0.2-0.4-0.4c0.2-0.1,0.4-0.4,0.6-0.5C491,358,492.3,358,493.1,357.9z"/>
		<path class="st0" d="M459.8,346.8c-0.7,3.4-2.6,5.6-5.2,7.4c-0.2,0.1-0.5,0.1-0.8,0.2c0-0.3-0.1-0.6,0-0.8
			c1.3-2.5,2.7-4.9,4.1-7.4c0.2-0.3,0.9-0.4,1.2-0.3C459.5,346,459.7,346.6,459.8,346.8z"/>
		<path class="st0" d="M639.9,299.1c3.3-0.8,6.2-0.3,8.2,2.7c-0.2,1.2-0.3,2.4-0.5,3.6c-3.2-1.4-5.9-3.3-7.6-6.5L639.9,299.1z"/>
		<g>
			<path class="st0" d="M684.7,298.1c0.7-0.1,1.5,0,2.2,0v-8.6c-1.5,0.6-3.2,0.9-4.4,1.9c-2.8,2.1-5.5,4.4-8.2,6.6
				c0.8-3.2,1.5-6.5,2.1-9.8c0.8-4.1-5.2-7.4-7.3-3.1c-0.3,0.7-0.6,1.3-1,2c0-0.1,0-0.2,0-0.3c0.6-3,1.2-6,1.9-9
				c0.8-3.1,1.7-6.2,2.6-9.3c0.2-0.9,0.5-1.8-1.1-1.5c-0.2,0-0.8-0.6-0.9-1c-0.5-2.4-2.5-1.8-4.1-2.4c-2.7-1.1-7.1,1.8-8.3-3.3
				c0-0.2-0.6-0.4-1-0.5c-2.1-0.8-1.9-2.2-1.3-4c0.5-1.4,1.1-2.9,1.1-4.3c-0.2-5.7-4.3-8.9-8.2-12.1c-2.6-2.2-6-3.4-7.2-7.1
				c-0.1-0.3-0.5-0.5-0.8-0.8c-2.5-3.2-5-6.4-7.4-9.7c-0.4-0.5-0.5-1.5-0.3-2.1c0.4-1.6-0.4-2.4-1.8-2.6c-1.6-0.3-3.2-0.3-4.7-0.5
				c-0.3,0-0.7-0.3-1-0.4c0.2-0.1,0.5-0.3,0.7-0.3c2.9-0.1,1.3-1.2,0.5-2.2c-2.9-3.6-7.2-6.1-8.9-10.8c-0.1-0.2-0.4-0.5-0.6-0.6
				c-2.3-0.4-2.9-2.5-4-4.1c-2.7-3.9-5.9-4.7-10.1-2.6c-1.5,0.8-3,1.6-4.5,2.4c-0.4,0.2-0.8,0.2-1.2,0.4c0.2-0.3,0.2-0.8,0.5-1
				c1.2-0.9,2.4-1.8,3.6-2.7c0.4-0.3,0.8-0.4,1.2-0.7c-0.4-0.3-0.8-0.7-1.3-0.9c-3.7-1.1-7.4-2.1-11.1-3.2c-1.4-0.4-3-1.9-4.1-1.5
				c-2.8,0.8-4.4-0.8-6.4-2c-1.8-1.1-3.7-2-5.7-2.4c-3-0.7-4.7-4-8.1-3.7c-0.3,0-0.7-1-1.1-1.5c-2.3-2.9-4.4-6-7-8.6
				c-1.7-1.7-4.2-2.5-4.7-5.2c-0.1-0.4-0.8-0.8-1.2-1.1c-2.3-1.4-3.1-3-2.4-5.6c0.1-0.4,0.6-0.9,0.9-0.9c0.7,0.1,1.4,0.4,2,0.7
				c-0.5,0.2-1.1,0.3-1.4,0.6c-0.3,0.4-0.3,1-0.5,1.5c0.4-0.1,0.7-0.2,1.1-0.2c0.3,0,0.6,0.1,0.8,0.3c0.3,0.3,0.5,0.9,0.7,0.9
				c0.9,0.1,2.4,0.3,2.5,0c0.4-0.9,0.3-2.1,0.3-3.1c0-0.4-0.1-0.8-0.2-1.1c0.3,0,0.7-0.1,0.8,0.1c1.2,1.8,2.7,0.5,3.8,0.2
				c1.6-0.4,2.9-1.5,4.5-2c0.8-0.3,1.8-0.1,2.6-0.1c-0.5-0.6-1-1.2-1.4-1.9c-0.1-0.1,0-0.4,0-0.6c1.2-2.4,2.3-5.1,4.5-6.3
				c2.4-1.3,1.4-4,3.2-5.3c-0.2-0.1-0.5-0.1-0.6-0.2c-0.3-0.3-0.9-0.8-0.8-1c0.5-1.3,1-2.7,1.8-3.8c0.9-1.2,2.5-5.4,1.7-6.1
				c-1.3-1.3-0.5-2.3,0-3.5c1.1-2.5,4.1-4.6,2.2-7.9c0-0.1,0.3-0.4,0.5-0.5c3.1-0.6,1.9-2.5,1.3-4.2c-0.2-0.6-0.8-1.2-0.7-1.7
				c0.7-3.3,1.2-6.4,0.4-9.8c-0.9-3.5-1.6-7.3,0.1-11.1c0.6-1.3,0.1-3.3-0.2-4.9c-0.3-1.6-1.1-3.2-1.6-4.8c-0.1-0.2,0.3-0.6,0.5-0.9
				c0.3,0.3,0.6,0.5,1,0.8c-0.3-0.6-0.4-1.4-0.8-1.7c-2.7-1.5-2.4-4.2-2.8-6.6c-0.1-0.8,0.2-1.7,0.1-2.5c-0.4-4.3-2.9-7.9-4-11.9
				c-0.2-0.9-0.5-2.3-2-0.9c-0.2,0.2-1.6-0.1-1.8-0.6c-1.1-1.9-1.9-4-3.1-5.8c-0.8-1.1-1.5-3.1-3.6-1.8c-0.1,0.1-0.8-0.5-0.8-0.6
				c0.4-1.8-0.5-2-2-2c-0.5,0-1.1-1.1-1.6-1.8c-1.7-2-3.5-4.1-6.1-4.4c-3.2-0.3-4.7-1.9-5.3-4.8c-0.3-1.5-0.8-1.8-2.3-1.2
				c-1,0.3-2.2-0.1-3.3-0.3c-0.1,0-0.1-0.8-0.1-1.2c-2.9,0.9-5.1-3.3-8.2-1c-0.1,0-0.5-0.6-0.8-0.7c-3.6-1-6.7-4.2-10.9-2
				c-0.8,0.4-2.8,0.1-3.4-0.6c-1.3-1.5-2.5-1.1-4-0.7c-3.1,0.9-6.1,2.1-9.2,2.5c-2.5,0.4-5.1-0.3-7.6-0.4c-2.6-0.1-5.5-1.6-7.2,1.9
				c-0.1,0.2-0.8,0.2-1.2,0.3c0-0.3,0.1-0.6,0-0.9c0-0.4-0.1-0.8-0.2-1.2c-0.4,0.2-1.1,0.3-1.3,0.6c-1,1.6-2.5,1.8-4,1.3
				c-1.6-0.5-2.8-0.3-4.2,0.7c-1,0.7-2.3,2.6-4.1,0.7c-0.1-0.1-0.6,0.2-0.9,0.3c1.4,3-1.2,1.2-1.9,1.5c-1,0.5-2.6,0.1-2.4,2.1
				c0,0.5-0.7,1.5-1.3,1.7c-1.6,0.7-3.3,1-5,1.7c-0.6,0.2-1.1,0.8-1.5,1.4c-0.4,0.5-0.6,1.2-1.1,1.5c-1.6,1.2-3.5,2-4.7,3.5
				c-0.7,0.8-0.3,2.6-2.3,2.2c0,0.3-0.2,0.8-0.1,1c1.4,1.7-0.4,1.7-1.1,2.3c-1.5,1.3-4.2,2.8-4.1,4.1c0.2,2.6-1.2,2.1-2.5,2.4
				c-0.4,0.1-0.9,0.3-1.3,0.4c0.4,0.3,0.7,0.8,1.1,1c0.3,0.2,0.7,0.2,1,0.3c-0.3,0.2-0.5,0.5-0.9,0.6c-2.1,0.7-3.2,2-2.7,4.4
				c0.1,0.4-0.4,1-0.7,1.5c-1.5,2.4-3,4.8-4.5,7.2c-0.1,0.1-0.1,0.4,0,0.5c0.9,1,0.5,1.3-0.6,1.5c-0.4,0.1-1,0.7-1.1,1.2
				c-0.3,2.3-0.5,4.6-0.6,6.8c0,2,0.8,4.1,0.2,5.8c-0.8,2.1,0.8,3.6,0.6,5.1c-0.2,1.8-0.1,3.4,0.4,5.1c0.2,0.6,0.9,1.3,0.8,1.8
				c-1.2,3.2-1,6,1,8.8c0.8,1.1,0.8,2.7,0.9,4.2c0.5,4.3,1.4,8.5,2.9,12.5c0.3,0.7,0,1.7,0,2.5c-0.2,2.9-1.9,5.8,0.7,8.5
				c0.3,0.3,0,0.9,0.2,1.4c0.4,1.3,0.9,2.6,1.2,4c0.4,2.2,2.3,1.4,3.5,1.8c0.2,0.1,1-1.5,1.4-2.3c0.2-0.3,0.3-0.7,0.4-1
				c0.1,0.4,0.5,0.8,0.4,1.2c-0.3,2.9,0.9,5,3,6.9c0.3,0.3,0.4,0.8,0.7,1.2c1.8,2.3,3.6,4.6,5.4,6.8c0.6,0.8,1.5,1.5,2.1,2.3
				c0.3,0.4,0.3,0.9,0.3,1.4c0,0.1-0.4,0.3-0.7,0.4c0.3,0.1,0.5,0.3,0.8,0.4c0.8,0.3,1.5,0.6,2.3,0.8c2.1,0.8,4.2,1.7,6.4,2.3
				c1.1,0.3,2-0.3,1.1-1.6c-0.8-1.3-1.5-2.7-2.5-3.8c-3.9-3.7-5.9-8.1-7.1-13.3c-0.8-3.7,0.6-6.9,0.6-10.4c0-0.2,0.3-0.4,0.4-0.6
				c0.1,0.2,0.2,0.5,0.3,0.7c0.5,0.7-0.6,2.4,1.4,2.1c1.2-0.2,3-3,2.1-3.6c-1.9-1.3-0.4-1.1,0.4-1.6c0.3-0.2,0.4-0.8,0.6-1.2
				c-0.4,0-0.8-0.1-1.2,0c-1.5,0.4-2.9,0.9-4.4,1.3c-0.4,0.1-1.2,0.2-1.4-0.1c-0.8-1.1-1.7-2.3-2.1-3.6c-0.3-0.8-0.1-2.2,0.5-2.8
				c0.6-0.8,2-1.5,2.8-1.4c1.5,0.3,2.8,1.3,4.2,2c0.5,0.2,1.2,0.2,1.7,0.4c-0.3-0.6-0.5-1.3-1-1.7c-1.1-0.8-2.9-1.1-3.6-2.1
				c-1.6-2.4-3.2-1.9-4.6-0.3c-1.6,1.8-1.7,0.3-1.8-0.7c-0.4-2.7-0.7-5.5-0.9-8.2c-0.1-2.1-0.2-4.2,0.3-6.2c0.4-1.8,1.5-3.4,2.6-4.9
				c0.2-0.3,1.9,0.5,2.9,0.7c0.3,0.1,0.9,0,1-0.2c1.9-2.6,4.8-3.8,7.5-5.1c2.1-1,4.1-2,6.4-0.8c2.3,1.2,4.5,2.5,6.8,3.9
				c1.9,1.1,3.8,2.1,5.4,3.5c1.9,1.7,3.3,4.1,5.3,5.5c2.1,1.4,4.7,2.3,7.2,3c1.6,0.4,2,1.3,1.9,2.7c0,0.5-0.5,1-0.5,1.5
				c-0.4,3.3-0.6,6.6-3.2,9.1c-0.7,0.7-1,2.1-1,3.1c0,2.5,0.3,5.1,0.4,7.6c0,0.4-0.2,0.9-0.5,1.2c-1.9,1.8-3.2,4.1-3.2,6.6
				c0,1.7,1.3,3.5,2.2,5.1c0.1,0.2,2-0.1,2.1-0.4c0.8-2.6,2.8-4.2,4.3-6.2c0.4-0.5,1.1-1.3,1.6-1.2c0.6,0.1,1.3,0.9,1.4,1.5
				c0.4,2.4,0.6,4.9,0.7,7.4c0,0.3-0.4,0.6-0.5,1c-0.8,1.4-1.5,2.9-2.4,4.4c-1.2,1.9-2.8,3.6-3.6,5.6c-0.6,1.7-4.4,1.6-2.5,4.6
				c0,0.1-0.6,0.6-1,1c-0.9,1-1.6,2.1-2.6,2.9c-2.4,1.9-4.9,3.7-7.3,5.5c-0.3,0.2-0.8,0-1.1,0.1c-1.7,0.6-4.4,0.8-4.8,1.9
				c-1.4,3.7-3.9,2-6.2,2.1c-3.5,0.1-7,0.4-10.5,0.7c-0.7,0.1-1.4,0.7-2.1,1.1c0.7,0.1,1.4,0.2,2.1,0.4c0.4,0.1,0.8,0.5,1.2,0.7
				c1.8,0.9,3.5,2,5.4,2.5c2.4,0.7,5.1-0.2,7,2.5c1.2,1.7,3.3,2.7,4.9,4.1c1.4,1.1,2.7,2.3,4.1,3.5c-0.5-1.2-1.1-2.4-1.4-3.7
				c-0.1-0.6,0.3-1.3,0.5-1.9c0.6,0.4,1.5,0.6,1.8,1.2c0.7,1.1,1,2.5,1.6,3.6c0.6,1,1.6,1.9,2.4,2.8c-0.7-1.4-1.4-2.7-2.1-4.1
				c-0.2-0.4-0.2-0.8-0.3-1.2c0.4,0.1,0.7,0.2,1,0.3c1.2,0.7,2.3,1.4,3.4,2c7.9,4.6,15.7,4.3,23.5-0.2c1.9-1.1,3.7-2.3,5.5-3.5
				c0.3-0.2,0.4-0.7,0.6-1.1c-0.3,0.1-0.7,0.2-1,0.4c-3.9,1.4-7.8,2.9-11.7,4.1c-6.7,2-12.9,0.6-18.7-3.4c-1.2-0.9-2.8-1.4-4.3-1.6
				c-3-0.5-6.5-3.9-6.7-6.9c-0.1-1.4,0.2-1.9,2-1.6c3.6,0.6,5.6,2.6,7.5,5.6c3.4,5.4,9.1,7,15.1,6.9c4.9-0.1,9.7-1.3,14-4.2
				c2.5-1.7,5.5-2.5,8-4c1.5-0.9,2.5-2.5,3.7-3.8c0.2-0.2,0.2-0.7,0.4-1c-0.3,0.1-0.8,0-1,0.2c-8.8,5.7-18.8,7.5-29,8.6
				c-1.3,0.1-2.5,0.8-3.8,1.1c-0.7,0.2-1.5,0.4-2.1,0.1c-0.6-0.3-1-1-1.6-1.6c0.7-0.1,1.3-0.3,2-0.4c4-0.6,8.1-1.1,12.1-1.7
				c1.5-0.2,3-1.1,4.4-1c8.7,0.2,15-4.9,21.4-9.6c3.2-2.3,5.2-6.2,7.6-9.5c1.1-1.5,2.6-2,4.2-1.7c0.9,0.1,2.1,0.7,2.5,1.4
				c0.3,0.4-0.4,1.8-1,2.4c-5.6,5.6-11.3,11.2-17,16.7c-2.7,2.6-5.3,5.5-8.2,7.9c-7.7,6.2-16.7,7.3-26.2,5.6
				c-0.9-0.2-1.7-0.8-2.6-1.2c2.3,2.6,5.3,3.6,8.6,4c7.3,0.7,14.1-1.1,20.7-4.1c0.7-0.3,1.3-0.7,2-1c0.3-0.1,0.7-0.1,1-0.1
				c-0.2,0.3-0.4,0.6-0.7,0.8c-7.9,4-16,7.2-25.1,5.7c-3.7-0.6-7.1-1.8-9.8-4.7c-0.7-0.8-1.8-1.2-2.8-1.8c0.7,1.1,1.5,2.2,2.1,3.4
				c3,5.9,8.1,8.7,14.4,9.1c4.5,0.3,9.1,0.2,13.6,0.4c0.5,0,0.9,0.1,1.4,0.1c-0.4,0.3-0.8,0.7-1.3,0.8c-6.8,1.6-13.5,2.3-20.2-0.4
				c-0.4-0.2-0.9-0.1-1.3-0.1c0.3,0.3,0.5,0.7,0.9,1c0.4,0.3,0.8,0.4,1.3,0.6c9.7,4.2,19.2,3.5,28.5-1.4c4.2-2.2,8.1-4.9,12.2-7.4
				c1-0.6,2-1.6,3.1,0c0.2,0.3,0.7,0.5,1,0.5c0.8,0,1.7-0.2,2.5-0.3c-0.5-0.4-0.9-0.7-1.3-1.2c-0.1-0.1,0.1-0.4,0.1-0.7
				c0.6,0.2,1.3,0.2,1.8,0.6c1,0.7,1.2,2.5,3.1,1.7c1.1-0.5,2.6-0.5,3.5-1.1c2.7-1.9,5.3-1.8,7.9-0.1c1.2,0.8,2.2,1.6,2.6-0.7
				c0-0.3,0.7-0.5,1-0.8c0.1,0.3,0.3,0.6,0.4,0.9c0.8,3.1,4.4,3.5,5.9,5.9c0,0.1,1.1-0.2,1.2-0.5c1.3-3.9,5.2-1.5,7.4-3.2
				c0.9,1.5,2.3,0.8,3.6,0.9c0.3,0,0.7,0.6,0.8,1c0.2,0.5,0,1.3,0.3,1.6c1.5,1.6,1.1,2.6-0.9,3.3c-0.3,0.1-0.4,0.4-0.6,0.7
				c2,0.3,0.6,2.5,1.9,3.2c1.6,0.9,0.5,2.3-0.1,2.3c-2.4,0-4.7-0.2-6,2.4c-2.3-0.8-2.5,1.2-2.2,2.3c0.3,1.5-0.2,1.3-1.2,1.3
				c-0.7,0-1.4,0.3-2.1,0.5c0.4,0.3,1.1,0.5,1.2,0.9c0.2,0.6,0.2,1.4-0.1,2c-1.2,2-2.6,4-3.8,6c-1.3,2.2-0.8,3.9,1.6,4.2
				c3,0.4,1.6,3,2.8,4.2c-0.8,0.8,0,2.6-2,2.7c-0.4,0-0.9,1-1.3,1.6c-0.4,0.7-0.6,1.7-1.2,2.2c-2.7,2.5-5.4,5.1-8.3,7.3
				c-3.7,2.9-7.5,5.4-11.3,8.1c-1.5,1.1-3.1,2.2-4.5,3.6c-0.7,0.6-0.8,1.8-1.1,2.8c0.6-0.3,1.2-0.6,1.8-0.8c0.2-0.1,0.5-0.1,0.8-0.1
				c3-0.3,6.1-0.6,9.1-1c1.4-0.2,2.9-0.2,4-0.8c0.9-0.5,0.9-1.5,2.4-0.2c1.1,1,3.2,2.3,5.5,1.2c1.1-0.5,3.3-1.5,3.9,0.5
				c0.6,2.3-1.8,2.3-3.2,2.7c-5.6,1.4-11.3,2.6-16.9,4c-5.1,1.3-10.5,2.4-14.7,5.9c-2,1.7-5.1,2.5-5.9,5.8c-0.2,1-2,2.2-3.2,2.4
				c-5.6,1.2-11,3.2-17,1.8c-5.3-1.2-10.9-1.5-16.3-2.7c-4.9-1.1-9.7-2.9-14.6-4.4c-5.3-1.6-10.7-2.9-16-4.7
				c-4.4-1.5-8.6-3.5-12.9-5.1c-0.2-0.1-0.5-0.1-0.8-0.2c-0.8-1.9-1.4-3.8-1.6-5.9c-0.5-7,4.1-12.9,6.7-19
				c4.3-10.2,3.3-20.4,0.3-30.8c-3-10.4-7-27.6,6.3-33c1.2-0.5,0.7-2.4-0.5-1.9c-7.8,3.2-11.1,11.4-10.9,19.5
				c0.1,6.1,2.1,11.9,3.7,17.7c2.1,7.6,3,15.1,1,22.9c-2.9,10.8-11.6,19.1-7.1,30.6c0,0,0,0,0,0c0,1.1-0.3,2.3,0.1,3.2
				c1,2.4,2.8,4.5,3.3,7c0.7,2.9,2,5.4,3.6,7.7c0.1,0.2-0.1,0.8-0.3,0.9c-1.8,0.3-0.6,0.8-0.1,1.2c0.7,0.5,1.3,1,1.7,1.6
				c0.2,1.7,0.4,3.5,0.4,5.2c-0.8,4.2-1.9,8.4-2.3,12.6c-0.3,4.6-4.3,8.6-2.2,13.5c0.1,0.3,0.2,0.7,0.3,1
				c-2.9,14.3-5.9,28.6-8.8,42.9c0,0,0,0,0,0c-9.8,17.2-17.2,35.6-21.9,54.8c-0.3,1.2,1.6,1.8,1.9,0.5c4.8-19.5,12.2-38,22.3-55.4
				c0.2-0.4,0.1-0.8-0.1-1c0.5-2.3,1-4.7,1.4-7c0.8,3.8,3.6,6.6,6.4,8.4c5,3.2,10.5,5.8,16.1,7.6c4.2,1.4,8.9,1.2,13.4,1.6
				c4.4,0.3,8.7,0.4,13.1,0.6c1.3,0,2.1,0.6,1.7,1.9c-0.2,0.7-0.9,1.8-1.4,1.8c-3.5-0.1-6.9-0.5-10.4-0.7c-2.5-0.1-5-0.1-7.5,0.3
				c-1.4,0.2-2.7,3.1-3.8-0.3c0-0.2-1,0-1.6,0c-0.9-0.1-1.9-0.1-2.7-0.4c-2.1-0.8-4.2-1.8-6.3-2.7c-0.4-0.2-0.8-0.1-1.2-0.2
				c0.3,0.4,0.5,0.9,0.9,1c3,1.5,5.9,3.1,8.9,4.2c3.5,1.3,4.7,2.9,4.1,6.7c-0.4,2.7,0.3,3.6,3,4.1c0.5,0.1,0.9,0.3,1.4,0.3
				c1.8,0,2.7,1.1,3.2,2.6c0.1,0.4,0.2,1,0.5,1.2c0.5,0.4,1.2,0.5,1.8,0.7c-0.2-0.5-0.5-1-0.7-1.5c-0.1-0.3-0.3-0.6-0.5-0.9
				c0.4,0,0.8-0.2,1.3-0.1c0.6,0.1,1.1,0.4,1.6,0.4c1.1,0,2.2-0.2,3.4-0.3c-1.1-0.2-2.1-0.5-3.2-0.8c-0.2,0-0.4,0-0.6-0.1
				c-0.8-0.3-1.3-0.5-0.3-1.4c1.9-1.8,1.7-2-0.8-2.9c-0.5-0.2-1.2-0.4-1.5-0.8c-0.5-0.5-0.7-1.3-1-1.9c0.7,0,1.3-0.2,2-0.1
				c0.9,0.1,1.8,0.6,2.8,0.7c0.8,0.1,2.1,0,2.2-0.4c0.6-1.8,1.6-1.4,2.9-0.9c0.7,0.3,1.5,0,2.3,0.1c0.4,0,0.9-0.1,1.1,0
				c0.8,0.8,0.1,6.5-0.8,7.2c-0.4,0.3-0.9,0.5-1.3,0.8c0.5,0.2,1,0.5,1.5,0.7c1.6,0.5,3.5,0.8,3,3.2c2.1,2.1,4.6,1,7,0.8
				c0.2,0,0.4-0.3,0.5-0.4c-0.2-0.1-0.4-0.4-0.7-0.4c-1.4-0.1-2.8-0.2-4.2-0.4c-0.3,0-0.6-0.5-0.9-0.8c0.3-0.1,0.7-0.2,1-0.2
				c1.6,0,3.2-0.1,4.8,0.1c0.8,0.1,1.4,0.7,2.1,1.1c-0.4,0.6-0.7,1.5-1.2,1.6c-1.5,0.6-3.2,0.9-4.8,1.2c-0.6,0.1-1.3,0-2-0.1
				c0.5,0.4,1,0.8,1.4,1.2c-1.9,0.4-3.8,0.9-5.7,1.2c-0.6,0.1-1.2-0.6-1.9-0.8c-1.5-0.4-3-0.7-4.5-1.2c-0.3-0.1-0.5-0.6-0.8-1
				c0.3-0.1,0.7-0.3,1-0.3c1.7,0.1,3.4,0.2,5,0.3c0.4,0,0.7,0,1.1,0c-0.4-0.2-0.7-0.4-1.1-0.5c-0.6-0.1-1.3-0.1-1.9-0.3
				c-0.5-0.1-0.9-0.4-1.3-0.6c0.5-0.3,0.9-0.7,1.4-0.7c1.7-0.1,3.4-0.1,5.2-0.1c-2-0.5-3.9-1.1-5.9-1.3c-0.6-0.1-1.3,1.1-2,1.4
				c-1.2,0.4-2.5,0.6-3.7,0.8c0.3,1.2,0.8,2.4,0.9,3.7c0,1.2-0.9,3,1.2,0.8c0.2-0.2,1.2,0.2,1.7,0.5c0.7,0.4,1.3,0.9,1.9,1.5
				c0.4,0.4,0.7,1,1.1,1.5c-0.6,0.3-1.2,0.6-1.8,0.8c-1.9,0.7-4.4-1.8-5.9,1.1c0,0.1-0.9-0.1-1.3-0.4c-0.8-0.5-1.5-1.2-2.1-1.8
				c-0.5-0.5-1.4-1-1.4-1.6c-0.1-2.4-1.8-1.5-2.7-1.3c-1.2,0.3-2.7,1.1-1.5,2.8c0.9,1.4-0.4,1.2-0.8,1.3c-0.5,0.1-1.6-0.2-1.6-0.5
				c-0.1-2-0.4-4,0.1-5.9c0.6-2.3,1.9-4.4,2.9-6.6c0.1-0.2,0-0.7-0.1-0.7c-0.3-0.1-0.7-0.2-0.9-0.1c-3.1,1.9-4.2,1.8-7.1-0.2
				c-0.1-0.1-0.5,0.2-0.8,0.2c-0.9,0.1-2.3,0.7-2.7,0.3c-0.8-0.7-0.9-2-1.4-3.1c0.8,0,1.5-0.1,2.3,0c0.4,0,0.7,0.4,1,0.4
				c0.3,0,0.6-0.2,1-0.2c-0.1-0.3-0.2-0.9-0.4-0.9c-1.5-0.1-2.8-1.8-4.6-0.4c-2.2,1.7-5.1,0.2-5.6-2.6c-0.2-1.2-0.5-2.7-1.4-3.5
				c-2.4-2.1-2.8-3.4-1.9-6.3c0.5-1.6,1.8-3.4-0.3-5c-0.4-0.3,0-1.5-0.1-2.3c0-0.4-0.4-0.8-0.6-1.1c-1.3,1.2-2.6,2.4-3.9,3.6v0
				c0,0,0,0,0,0c0,0,0,0-0.1,0.1c0,0,0,0,0,0c-0.8,1.2-1.6,2.5-2.5,3.6c-0.3,0.4-0.8,0.5-1.2,0.7c-0.4,0.2-1.1,0.2-1.1,0.4
				c-0.3,1.2-0.2,2.5-0.6,3.7c-0.3,0.8-1.1,1.5-1.7,2.2c-0.5-0.8-1-1.6-1.5-2.5c-0.2-0.3-0.3-0.7-0.4-1.1c-0.4,0.3-1.1,0.6-1.2,1
				c-0.1,1.4-0.5,2.9,0,4c0.4,0.8,2.1,0.9,3.2,1.3c0.2,0.1,0.5,0.3,0.6,0.5c0.7,1.6,1.4,3.2,2.1,4.9c-1.5-0.8-2.9-1.7-4.5-2.3
				c-1.7-0.6-3.5-0.9-5.2-1.4c-0.3-0.1-0.5-0.6-0.8-0.9c-0.1,0.4-0.4,0.8-0.3,1.1c0.6,1.6,1.4,3.2,2,4.9c0.3,0.8,0.2,1.8,0.2,2.7
				c-0.7,0-1.4,0-2,0.1c-0.3,0-0.7,0.4-0.7,0.6c-0.1,3.8,2.8,6.5,3.5,10.1c0.3,1.6,0.4,1.8-1.1,1.8c-0.3,0-0.6,0.2-1,0.3
				c0.2,0.3,0.4,0.6,0.7,0.8c1.5,0.8,2.9,1.7,4.5,2.4c1.7,0.8,2.3,1.8,1,3.5c-1,1.3-1.5,3.7-3.9,1.5c-1.5-1.4-3.2-2.7-4.8-3.9
				c-0.4-0.3-1-0.1-1.5-0.2c0.1,0.5,0.2,1.1,0.5,1.5c2,3.1,4.1,6.1,6.1,9.1h16c-0.7-0.6-1.3-1.3-2-1.7c-2.9-1.3-5.9-2.4-8.7-3.6
				c-0.4-0.2-0.6-1-0.9-1.5c0.5-0.3,1.3-1,1.6-0.8c4.9,2.5,9.8,5.1,14.6,7.7H627c1.5-3.3,2.6-6.9,4.6-10c1.8-2.9,3.1-6,6.4-8
				c1.8-1.1,2.5-4,3.7-6.1c2.9-4.8,5.7-9.6,8.6-14.4c0.8-1.4,1.8-1.9,3.5-1.1c1.2,0.5,2.8,0.5,4.2,0.4c0.4,0,1.2-0.9,1.1-1.2
				c-0.6-2.7,1-4.3,2.5-6.1c4-4.6,7.9-9.2,11.6-13.9c1.7-2.2,2.9-4.9,4.1-7.4c0.4-0.9,0.5-2.1,0.4-3.2c-0.1-1.3-0.8-1.8-2.2-1
				c-3.2,1.7-6.4,3.5-9.6,5.1c-0.2-0.5-0.5-1.1-0.9-1.5c-0.2-0.2-0.5-0.4-0.7-0.6c5.8-2,11-5.5,15-11.1c0.8-1.1,1.2-2.6,1.2-4
				c0-2.8-0.4-5.6-0.4-8.5c0-2-0.6-3-2.9-2.8c-0.8,0.1-1.6,0.2-2.4,0.3c-0.1,0-0.2-0.1-0.2-0.1c-0.2,0-0.3-0.1-0.5-0.1
				c2.9-3.6,6.4-6.9,8-11.4c0.3-0.9,0.5-1.8,0.6-2.7c1.4-0.2,2.8-0.5,4.2-0.7v-14.8c-0.4,0.1-0.8,0.1-1.1,0.3
				c-1.1,1.1-2.4,2-3.6,2.9c0.1-1.8,0.5-3.5,1.6-5c0.5-0.6,0.7-1.3,0.7-1.9c0.3-0.3,0.3-0.7-0.3-1.3c-0.1-0.2-0.1-0.3-0.2-0.5
				C684.2,298.7,684.5,298.2,684.7,298.1z M445.7,409c-0.5,2.3-0.6,4.6-0.8,7c0,0.4,0,0.8,0,1.2c-0.5-0.4-1.3-0.8-1.5-1.3
				c-0.2-0.8,0.1-1.7,0-2.5c-0.4-2.2,0.2-4.5-1.5-6.5c-0.8-0.9-0.5-2.8-0.6-4.2c0-0.1,0.8-0.3,1.2-0.4c0.6,0.9,1.1,2.4,2,2.6
				C447.1,405.7,446.2,407.2,445.7,409z M449.1,406.7c-0.5,0-0.9-1.6-1.4-2.4c-0.2-0.3-0.4-0.6-0.6-0.9c-1.7,1.9-2.6-0.1-3.7-0.8
				c-0.3-0.2-0.7-0.3-1-0.4c0.6-0.3,1.3-0.8,2-0.8c3.8,0,3.8,0.1,4.1-3.5c0.4,0,0.9,0,1.3,0c1.1,0,2.8-0.4,1,1.6
				c-0.2,0.3,0.2,1.2,0.3,1.8c0,0.1,0.4,0.1,0.5,0.2c0.1,0.5,0.2,0.9,0.3,1.4C449.4,403.1,451.6,406.7,449.1,406.7z M449.2,387.8
				c-0.2-0.2-0.2-0.7-0.3-1c2.3-0.2,1-2.3,1.7-3.4c0.9-1.3,1.2-2.9,1.8-4.3c2.9,0.7,1,2.9,1.2,4.4c0.1,0.8-0.2,1.7-0.4,2.5
				C453.2,387.1,450.2,388.5,449.2,387.8z M466.8,405.8c-2.5-1.1-4.8-2.1-7-3.1c-1.6-0.7-3.1-1.4-4.6-2.2c-0.7-0.4-1.2-1.2-1.8-1.9
				c0.9-0.6,1.9-1.9,2.7-1.8c1.3,0.2,2.6,0.3,3.6,2c0.9,1.5,3.3,2.2,5,3.2c0.9,0.5,1.9,0.9,2.8,1.4c0.5,0.3,0.8,0.9,1.2,1.4
				C468,405.2,467.4,405.5,466.8,405.8z M543.7,284.5c4-1.3,8.2-2.3,11.9-3.3c0.9,0.2,1.3,0.3,1.8,0.4c-0.3,0.3-0.6,0.7-1,0.8
				c-4.1,1.4-8.2,2.7-12.4,4c-0.9,0.3-1.9,0.6-2.8,0.9C542,286.3,542.6,284.8,543.7,284.5z M519.5,415.4c-0.1,0.2-0.3,0.5-0.5,0.6
				c-3,1.3-3.6,2.2-3.2,5.5c0.1,0.5-0.2,1.1-0.4,1.6c-0.3-0.5-0.8-1-1-1.5c-0.7-2.1,1.8-4.3-0.2-6.4c0.5-0.3,1.1-0.5,1.6-0.9
				c0.9-0.7,2-1.4,2.5-2.3c0.5-0.9,0.1-1.5-1.4-1.6c-3.9-0.5-7.8-1.4-11.7-2.1c3.2,0,6.4-0.1,9.6-0.2c0.5,0,2.1-0.2,0.2-1
				c0.2-0.2,0.4-0.6,0.7-0.7c1-0.3,2.1-0.7,3.1-0.6c0.8,0.1,2.2,1,2.1,1.4C520.7,409.9,520.1,412.7,519.5,415.4z M528.9,392.3
				c-0.1,0.2-0.3,0.5-0.4,0.7c-0.1-0.2-0.2-0.5-0.3-0.8c0-0.3,0-0.6,0-0.8c-0.2-0.8-0.4-1.6-0.7-2.5c-0.2,0.9-0.5,1.8-0.5,2.7
				c-0.2,4.2-0.3,8.5-0.5,12.7c0,0.6-0.5,1.1-0.7,1.7c-0.1-0.6-0.3-1.2-0.3-1.8c0.2-3.4,0.4-6.8,0.7-10.2c-0.1,0-0.3,0-0.4,0
				c0-2.1,0-4.1,0-6.2c0-0.7,0.1-1.4,0.2-2c0.5,0.4,0.9,0.8,1.4,1.1C530.1,388.6,530.4,389.5,528.9,392.3z M569.6,334.2
				c-2.2,0.9-4.5,1.6-6.8,2c-3,0.6-6.2,0.3-9,1.3c-7.5,2.6-14.8,5.9-22.3,8.5c-5.4,1.9-11,3.3-16.6,4.7c-1.6,0.4-3.4-0.3-5-0.2
				c-3.4,0.3-6.8,0.9-10.2,1.1c-11,0.6-21.3,3.7-31.2,8.4c-0.6,0.3-1.2,0.6-1.7,1c-0.2,0.2-0.3,0.7-0.2,1c0.1,0.2,0.6,0.4,0.9,0.3
				c2.1-0.6,4.2-1.1,6.2-1.8c6.4-2.3,12.9-4.3,19.8-3.5c11.3,1.4,22.4-0.5,33.3-2.7c6.3-1.3,12.4,0,18.5,0.2c0.4,0,0.9,0.3,1.2,0.7
				c0.1,0.1-0.1,0.9-0.2,1c-4.4,1.2-8.9,1.5-13.4,0.3c-1.1-0.3-3-3.1-3.1,0.8c0,0.2-1,0.4-1.5,0.5c-4,0.3-8,0.3-11.9,0.8
				c-5.5,0.7-11.1,1.6-16.6,2.6c-1.2,0.2-2.2,1.2-3.3,1.8c1.3,0.1,2.6,0.4,3.8,0.3c3.1-0.2,6.2-0.8,9.3-0.8c2.3,0,1.5,2.4,1.7,3.7
				c0.4,2-1.1,0.4-1.6,0.5c-2.1,0-2.2,0-2.7,1.7c0,0.1-0.1,0.1-0.2,0.2c-1.8,1-0.5,1.2,0.4,1.1c1.6-0.1,2.2,1,1.1,1.8
				c-2.6,1.9-2.3,5.9-5.7,7.2c-0.7,0.3-0.8,0.9-1.9,0.2c-4.2-3-9.4-2.9-14.2-3.8c-0.5-0.1-1.1,0.3-1.6,0.3c-2,0-4.9,0.8-5.8-0.2
				c-2.6-3-8.1-2.1-9.2-7.1c-0.4-1.5-9.5-2.7-11.1-1.9c-2.1,1.1-4.2,0.6-5.6-0.9c-0.9-1-2.1-1.7-3.2-2.4c-0.2-0.1-0.6-0.1-0.9,0
				c2.8-13.8,5.7-27.7,8.5-41.5c0-0.1,0-0.2,0-0.4c1.4-3.6,2.8-7.2,4.2-10.9c0.2-0.5,0.8-0.9,1.4-1c1.9-0.4,4.2,1,5.9-1.1
				c0.2-0.2,1.2,0.2,1.8,0.4c2.4,1,4.7,0.4,6-2c0.9-1.7,1.8-1.6,3.2-0.8c0.4,0.2,0.8,0.5,1.2,0.7c2.1,1.1,2.1,1,3.7-0.8
				c0.2-0.2,0.8-0.1,1.2-0.1c3.8,0.4,7.5,0.9,11.2,1.2c1.2,0.1,2.4,0,3.6-0.2c2.3-0.3,4.6-0.7,6.9-1c2.4-0.3,4.9-0.5,7.3-0.6
				c0.8,0,1.6,0.2,2.4,0.4c-0.2,0.9-0.3,1.8-0.7,2.5c-0.3,0.5-0.9,1-1.5,1.3c-4.7,2.9-9.4,5.7-14,8.7c-6.8,4.4-13.6,9-20.3,13.5
				c-0.8,0.5-1.2,1.7-1.8,2.5c1.1,0.1,2.2,0.2,3.3,0.2c0.4,0,0.9-0.3,1.3-0.5c3.2-1.3,6.4-2.5,9.5-3.9c2.4-1.1,4.7-2.4,7-3.7
				c6-3.6,11.5-8.2,18.7-9.5c10-1.8,20-3.1,30.2-1.6c2.1,0.3,4.4,0.2,6.5,0.3c0.5,0,1,0.4,1.5,0.5c-0.4,0.3-0.8,0.7-1.2,0.9
				c-2.3,0.6-4.6,1.1-6.8,1.8c-0.4,0.1-0.6,0.8-0.9,1.2c2.4,1,0.4,1.5-0.2,2.1c-0.3,0.4-0.6,0.9-0.8,1.4c0.5,0,0.9,0.1,1.4,0.1
				c0.2,0,0.5,0.1,0.7,0.2c-0.2,0.4-0.4,1-0.7,1.1c-3.5,0.6-6.5,3.4-10.4,2.4c-0.6-0.2-1.9,0-2,0.3c-0.9,2.5-3.1,1.3-4.7,1.7
				c-0.4,0.1-1-0.2-1.5-0.3c0.2-0.5,0.3-1,0.5-1.5c0.2-0.4,0.4-0.7,0.7-1.1c-0.4-0.1-0.9-0.3-1.3-0.3c-1.6,0.1-3.2,0.2-4.8,0.4
				c-5.5,0.5-11.3,0.5-15.8,4.6c-0.8,0.7-1.4,1.5-2.1,2.3c1.1-0.1,2.2-0.3,3.3-0.5c0.3,0,0.5-0.3,0.8-0.4c3.5-0.9,6.9-1.9,10.4-2.5
				c0.9-0.2,2.3,0.4,2.9,1.1c0.9,1,1.2,2.6,2.1,0.1c0.4,0.2,0.9,0.3,1.2,0.5c1.4,1.2,2.6,2.6,4.1,3.6c0.5,0.3,1.8-0.7,2.6-0.5
				c0.7,0.1,1.2,1.7,1.8,1.6c4.2-0.3,8.4-0.7,12.6-1.2c2.6-0.3,5.3-1,7.9-0.9c4.1,0.2,7.9-0.2,11.6-2.2c0.7-0.4,1.8,0,2.8,0.1
				C570.7,332.7,570.3,333.9,569.6,334.2z M667.1,267.6c0.4-0.2,1.7,0.5,2.2,1.1c0.3,0.4,0.3,1.8-0.1,2.1c-1.3,0.9-2,2-2.6,3.2
				c-0.8-1.8-2.5-2.6-4.2-2.5C663.4,269.8,665.5,268.7,667.1,267.6z M658.9,282.6c-0.1,4.2-0.2,8.4-0.3,12.5
				c-0.2-2.1-0.4-4.1-0.6-6.3C658.2,286.7,658.5,284.6,658.9,282.6z M658.1,308.3c0.1,0,0.2-0.1,0.2-0.2c0,0.2,0,0.4,0,0.5
				c0,0.2,0,0.4,0,0.6c-0.2,0-0.5,0-0.7,0C657.8,309,657.8,308.5,658.1,308.3z M626,272.6c0,0,0.1-0.1,0.1-0.1
				c0.2,0.3,0.3,0.7,0.5,1c-0.2,0-0.3,0.1-0.4,0C626.1,273.5,625.9,272.8,626,272.6z M606.2,251.1c0.1-0.3,0.4-0.6,0.5-0.9
				c0.1,0.3,0.2,0.7,0.2,1c0.1,0.8,0,1.5,0.2,2.3c0.3,1.5,1,2.2,2.6,1.1c0.5-0.3,1.2-0.4,1.8-0.6l0.5,2.1c-0.1,0-0.2,0-0.2,0.1
				c1,2.5,1.7,5.2,3,7.5c1,1.8,3.1,3.1,4.2,4.9c2.7,4.4,5.2,9,7.7,13.6c0.1,0.3,0.1,0.7,0.1,1c-0.4-0.3-0.9-0.4-1.1-0.8
				c-2.6-3.7-5.1-7.6-7.8-11.2c-2.8-3.8-6-7.3-8.9-11C606.8,257.4,605.4,254.6,606.2,251.1z M619.8,402.6c-0.1,0.1-0.6-0.1-0.9-0.3
				c-1.2-1.1-1.4-0.7-1,0.7c0,0.2-0.3,0.6-0.6,0.7c-0.9,0.4-1,0.5-0.5,0.9c1.4,1.1,2.1,1.9-0.6,2.1c-1.5,0.1-2.1,3.3-2.3,5.7
				c-0.2,1.6-1.6,3.2-2.8,4.5c-0.3,0.4-1.8-0.1-2.6-0.4c-0.4-0.2-0.6-0.9-1-1.4c0.2-0.2,0.5-0.5,0.7-0.7c-0.3-0.2-0.9-0.4-0.9-0.7
				c-0.8-2.8-3.7-3.6-5.2-5.7c-1.1-1.6-0.4-3,0.7-4c0.8-0.7,1.9-1.4,3-1.5c4.2-0.2,7.1-2.9,10.3-4.9c0.9-0.6,2.3-1,3.3-0.6
				C621.5,397.8,621.6,401.3,619.8,402.6z M625.3,395.8c0,0.2-0.5,0.2-1,0.5c-1.2-1.4-2.6-2.8-3.4-4.4c-0.3-0.6,0.5-2.2,1.2-2.8
				c2.4-1.9,4.2-4,4.6-7.1c0.2-1.5,1.2-2.3,2.9-1.6c1.6,0.7,3.4,1.2,5,2c0.8,0.4,1.3,1.3,2,1.9c-0.9,0.7-1.7,1.5-2.6,2.2
				c-0.4,0.3-1.2,0.4-1.3,0.7C631.5,391.2,626.2,391.7,625.3,395.8z M634.9,412.1c0,0.1-0.1,0.2-0.2,0.2c-2.1-0.7-4.3-1.3-6.2-2.4
				c-0.5-0.2-0.1-2.1-0.1-3.2c0-0.7-0.3-1.5-0.1-2.1c0.4-0.9,1-1.8,1.6-2.6c0.1-0.1,0.6-0.1,0.8,0c0.2,0.1,0.2,0.7,0.4,0.7
				c0.6,0.2,1.3,0.2,1.9,0.4c2.1,0.8,3.6,2.1,3.8,4.9C636.2,409.2,635.6,410.6,634.9,412.1z M637.7,354.5c-3.9,0.9-5.2,3.8-5.2,7.4
				c0,2-0.8,3.3-2.2,4.3c-2.2,1.6-2.4,4-3.2,6.4c-1.2,3.6-1.3,7.6-3.4,10.8c-2.3,3.5-4.7,6.9-7.4,10.1c-2,2.3-4.4,4.2-7.8,4.1
				c-4.6-0.2-9.3-0.4-13.9-0.8c-3.2-0.3-6.2-0.4-9.2,0.8c-0.5,0.2-1.1,0-1.6,0.1c0.1-0.4,0.2-0.9,0.3-1.3
				c4.1-13.8,7.6-27.8,9.3-42.1c1.1-9.2,2.9-18.4,4.4-27.5c2.1-12.5,4.1-25.1,6.2-37.6c0.8-4.9,1.9-9.7,2.8-14.5
				c0.6-3,0.8-3.1,3.2-1c2.2,1.9,4.4,3.9,6.7,5.7c3.4,2.6,6.6,5.3,11,6.2c0.8,0.2,1.4,1.4,2.1,2.2c2.5,3.1,4.9,6.3,7.4,9.4
				c0.7,0.8,1.7,1.3,2.6,1.9c0-1.6,0.1-3.2,0.1-4.8c2.1,2.4,4.6,4.4,7.4,5.5c0.2,0.7,0.5,1.5,0.7,2.2c-0.2,1.2-0.3,2.4-0.5,3.6
				c1.4,3.3,1,6.7,0,10c-0.8,2.5,0.7,5.2,2.9,6.4c-2.3,1.5-4.2,3.4-4.8,5.8c-0.6,0.1-1.1,0.5-1.6,1.1c-0.5,0.7-0.9,1.9-1,3.2
				c-1.2,1.5-1.1,3.8,0.3,5.2c0.3,1.1,0.8,2.1,1.4,2.7c2.2,1.9,2.1,3.5,0.4,5.5c-0.3,0.4-0.3,1.1-0.4,1.7c0.6,0,1.2,0,1.8-0.2
				c0.1,0,0.1,0,0.2,0c0,0.9,0.3,1.7,0.8,2.3c-1.2-0.3-2.4-0.5-3.6-0.6c-1-0.1-2.5,1-3,2c-0.8,1.5,0.4,2.7,1.8,3.3
				c0.1,0.1,0.3,0.1,0.4,0.1c-1.2,0.4-2.4,0.8-3.5,1.4c0-0.3-0.1-0.6-0.1-0.9C639,354.3,638.3,354.3,637.7,354.5z M647,350.8
				c-0.1,0.1-0.1,0.3-0.2,0.4c-0.2,0.5-0.3,1-0.4,1.6c0,0,0,0-0.1,0c0,0,0,0,0,0c-0.9-0.3-1.8-0.5-2.7-0.9c-0.5-0.2-1-0.7-1.5-1.1
				c0.6-0.2,1.2-0.5,1.8-0.5c0.7,0,1.5,0.2,2.2,0.4C646.5,350.7,646.7,350.8,647,350.8z M641.2,373c-0.2,0.4-0.6,0.7-0.9,1
				c-0.2-0.5-0.6-1-0.5-1.5c0.4-1.8,0.7-3.7,1.5-5.4c0.1-0.1,0.1-0.3,0.2-0.4c1,0.2,2,0.5,3,0.7C643.3,369.4,642.3,371.2,641.2,373z
				 M644.9,380.9c0,0.2-0.3,0.4-0.5,0.6c-0.2-0.2-0.5-0.4-0.5-0.5c0-0.9-0.2-2,0.2-2.8c1.7-3,2.7-6.6,5.1-9.1c1.6,0.6,3.1,1.2,4.6,2
				c-1.5,1.3-3.3,2.3-4.9,3.6C646.9,376.3,644.4,377.6,644.9,380.9z M665.2,372c-0.4,0.3-0.8,0.7-1.2,1c-2.6,1.7-5.2,3.5-7.8,5.1
				c-0.8,0.5-2,0.5-2.8,1.2c-1.1,0.9-1.9,2.1-2.9,3.1c-0.3,0.4-0.6,0.8-0.9,1.2c-0.2-0.5-0.4-1-0.7-1.8c0.6-1,0.9-2.4,1.8-2.9
				c4.2-2.5,8.4-4.7,12.7-6.9C663.9,371.7,664.6,372,665.2,372z M666.2,331.5c-1-0.3-1.9-0.6-2.9-0.9c0.1-0.3,0.2-0.5,0.4-0.8
				c0.3-0.2,0.6-0.3,0.8-0.5c2.9-2,5.3-4.5,7.3-7.3c0.7-0.1,1.4-0.3,2.1-0.4C672.1,325.1,668.8,328.2,666.2,331.5z"/>
			<path class="st0" d="M640,299C640,299,640,299,640,299c-0.1,0-0.1,0.1-0.1,0.1L640,299z"/>
		</g>
	</g>
</g>
</svg>
