<?xml version="1.0" encoding="utf-8"?>
<!-- Generator: Adobe Illustrator 23.0.2, SVG Export Plug-In . SVG Version: 6.00 Build 0)  -->
<svg version="1.1" id="Layer_1" xmlns="http://www.w3.org/2000/svg" xmlns:xlink="http://www.w3.org/1999/xlink" x="0px" y="0px"
	 viewBox="0 0 467.8 74.6" style="enable-background:new 0 0 467.8 74.6;" xml:space="preserve">
<style type="text/css">
	.st0{fill:#FFFFFF;}
	.st1{clip-path:url(#SVGID_2_);}
	.st2{clip-path:url(#SVGID_4_);fill:#443D4A;}
	.st3{clip-path:url(#SVGID_6_);}
	.st4{fill:#FFE6C9;}
	.st5{clip-path:url(#SVGID_8_);fill:url(#SVGID_9_);}
	.st6{clip-path:url(#SVGID_11_);fill:#AEA4BD;}
	.st7{clip-path:url(#SVGID_13_);fill:#766985;}
	.st8{clip-path:url(#SVGID_15_);fill:#766985;}
	.st9{clip-path:url(#SVGID_17_);fill:#766985;}
	.st10{clip-path:url(#SVGID_19_);fill:#766985;}
	.st11{clip-path:url(#SVGID_21_);fill:#BA8149;}
	.st12{clip-path:url(#SVGID_23_);fill:#694829;}
	.st13{clip-path:url(#SVGID_25_);fill:#694829;}
	.st14{clip-path:url(#SVGID_27_);fill:#FFB967;}
	.st15{clip-path:url(#SVGID_29_);fill:#1F1926;}
	.st16{clip-path:url(#SVGID_31_);fill:#FFE6C9;}
	.st17{clip-path:url(#SVGID_33_);fill:#FFE6C9;}
	.st18{clip-path:url(#SVGID_35_);fill:#FFE6C9;}
	.st19{clip-path:url(#SVGID_37_);fill:#FFE6C9;}
	.st20{clip-path:url(#SVGID_39_);fill:#FFE6C9;}
	.st21{clip-path:url(#SVGID_41_);fill:#FFE6C9;}
	.st22{clip-path:url(#SVGID_43_);fill:#FFE6C9;}
	.st23{clip-path:url(#SVGID_45_);fill:#FFE6C9;}
	.st24{clip-path:url(#SVGID_47_);fill:#FFE6C9;}
	.st25{clip-path:url(#SVGID_49_);fill:#FFE6C9;}
	.st26{clip-path:url(#SVGID_51_);fill:#FFE6C9;}
	.st27{clip-path:url(#SVGID_53_);fill:#FFE6C9;}
	.st28{clip-path:url(#SVGID_55_);fill:#FFE6C9;}
	.st29{clip-path:url(#SVGID_57_);fill:#FFE6C9;}
	.st30{clip-path:url(#SVGID_59_);fill:#FFE6C9;}
	.st31{clip-path:url(#SVGID_61_);fill:#FFE6C9;}
	.st32{clip-path:url(#SVGID_63_);fill:#FFE6C9;}
	.st33{clip-path:url(#SVGID_65_);fill:#FFE6C9;}
	.st34{clip-path:url(#SVGID_67_);fill:#FFE6C9;}
	.st35{clip-path:url(#SVGID_69_);fill:#FFE6C9;}
	.st36{clip-path:url(#SVGID_71_);fill:#FFE6C9;}
	.st37{clip-path:url(#SVGID_73_);fill:#FFE6C9;}
</style>
<g>
	<g>
		<path class="st0" d="M153.2,52v3.5h-17.2V25.4h3.8V52H153.2z"/>
		<path class="st0" d="M162.4,25.4v30.1h-3.8V25.4H162.4z"/>
		<path class="st0" d="M86.3,31.5v3.8h34.9v-3.8H86.3z"/>
		<path class="st0" d="M194,32.8c-0.1-0.1-0.5-0.4-1-0.9c-0.6-0.5-1.3-1-2.3-1.5c-0.9-0.5-2.1-1-3.3-1.4c-1.3-0.4-2.7-0.6-4.2-0.6
			c-1.9,0-3.6,0.3-5.1,0.9s-2.9,1.4-4,2.5c-1.1,1.1-2,2.3-2.6,3.8c-0.6,1.5-0.9,3-0.9,4.8c0,1.9,0.4,3.6,1.1,5.1
			c0.7,1.5,1.7,2.8,2.8,3.8c1.2,1,2.5,1.8,4.1,2.4c1.5,0.5,3.1,0.8,4.7,0.8c1.9,0,3.8-0.4,5.8-1.2s3.7-1.9,5.3-3.2l2.7,2.3
			c-0.1,0.1-0.6,0.5-1.3,1.1c-0.7,0.6-1.7,1.2-2.9,1.9c-1.2,0.7-2.7,1.3-4.3,1.8c-1.6,0.5-3.4,0.8-5.3,0.8c-2.3,0-4.4-0.4-6.4-1.2
			c-2-0.8-3.7-1.9-5.2-3.3s-2.7-3-3.5-4.9c-0.9-1.9-1.3-4-1.3-6.2c0-2,0.4-4,1.1-5.9c0.8-1.9,1.8-3.5,3.2-5s3.1-2.6,5.2-3.4
			s4.3-1.3,6.9-1.3c2.4,0,4.8,0.5,7.2,1.4c2.4,0.9,4.4,2.3,6.2,4.1L194,32.8z"/>
		<path class="st0" d="M200.9,55.5V25.4h17.2v3.5h-13.4v8.7h10.7v3.5h-10.7V52h13.4v3.5H200.9z"/>
		<path class="st0" d="M277.9,50c-2,1.9-4.3,3.4-6.8,4.4c-2.5,1.1-5.1,1.6-7.8,1.6c-2.7,0-5.2-0.5-7.6-1.5c-2.4-1-4.5-2.3-6.4-4.1
			c-1.8-1.7-3.3-3.7-4.4-6s-1.6-4.8-1.6-7.4s0.5-5.1,1.6-7.4c1.1-2.3,2.5-4.3,4.3-6c1.8-1.7,3.9-3.1,6.3-4.1c2.4-1,5-1.5,7.8-1.5
			c2.7,0,5.3,0.5,7.8,1.6c2.5,1.1,4.7,2.5,6.7,4.3l-2.6,2.5c-1.7-1.5-3.5-2.8-5.5-3.6s-4.1-1.3-6.4-1.3c-2.2,0-4.3,0.4-6.3,1.2
			c-2,0.8-3.7,1.9-5.1,3.4s-2.6,3.1-3.5,4.9s-1.3,3.9-1.3,6c0,2.1,0.5,4.1,1.4,6c0.9,1.9,2.2,3.5,3.7,4.9s3.2,2.5,5.2,3.3
			c1.9,0.8,3.9,1.2,5.9,1.2c2.2,0,4.3-0.5,6.3-1.3c2-0.9,3.9-2.1,5.6-3.7L277.9,50z"/>
		<path class="st0" d="M297.1,24.9c2.2,0,4.3,0.4,6.3,1.1s3.8,1.8,5.4,3.1c1.5,1.3,2.8,3,3.7,4.9c0.9,1.9,1.4,4.1,1.4,6.4
			c0,2.4-0.5,4.5-1.4,6.5c-0.9,1.9-2.2,3.5-3.7,4.9c-1.6,1.3-3.3,2.4-5.4,3.1c-2,0.7-4.1,1.1-6.3,1.1s-4.3-0.4-6.3-1.1
			s-3.8-1.8-5.4-3.1c-1.5-1.3-2.8-3-3.7-4.9c-0.9-1.9-1.4-4.1-1.4-6.5c0-2.4,0.5-4.5,1.4-6.4c0.9-1.9,2.2-3.5,3.7-4.9
			c1.6-1.3,3.3-2.4,5.4-3.1C292.9,25.3,295,24.9,297.1,24.9z M297.1,28.5c-1.7,0-3.3,0.3-4.9,0.8s-2.9,1.4-4.1,2.4
			c-1.2,1-2.1,2.3-2.9,3.7c-0.7,1.5-1.1,3.1-1.1,5s0.4,3.5,1.1,5c0.7,1.5,1.7,2.7,2.9,3.8c1.2,1,2.6,1.8,4.1,2.4
			c1.6,0.5,3.2,0.8,4.9,0.8c1.7,0,3.3-0.3,4.9-0.8c1.6-0.5,2.9-1.3,4.1-2.4s2.1-2.3,2.9-3.8c0.7-1.5,1.1-3.1,1.1-5s-0.4-3.5-1.1-5
			c-0.7-1.5-1.7-2.7-2.9-3.7c-1.2-1-2.6-1.8-4.1-2.4C300.5,28.8,298.8,28.5,297.1,28.5z"/>
		<path class="st0" d="M335.9,52v3.5h-17.2V25.4h3.8V52H335.9z"/>
		<path class="st0" d="M334.4,25.4h26.9v3.5h-11.5v26.6H346V28.9h-11.5V25.4z"/>
		<path class="st0" d="M387.4,35.9c0,1.3-0.2,2.5-0.6,3.6c-0.4,1.1-1,2.1-1.7,3c-0.7,0.9-1.5,1.6-2.5,2.2c-1,0.6-2.1,1.1-3.2,1.4
			c0.8,0.7,1.6,1.5,2.5,2.3c0.9,0.8,1.7,1.7,2.6,2.5c0.9,0.8,1.7,1.7,2.6,2.5c0.8,0.8,1.6,1.5,2.3,2.2H384l-9.3-9.1h-5.3v9.1h-3.8
			V25.4h8.5c2,0,3.7,0.2,5.4,0.7c1.6,0.5,3,1.2,4.2,2.1s2.1,2,2.8,3.3C387.1,32.8,387.4,34.3,387.4,35.9z M383.6,35.9
			c0-1.1-0.2-2.1-0.7-2.9c-0.5-0.8-1.2-1.6-2-2.2c-0.8-0.6-1.8-1.1-2.9-1.4s-2.3-0.5-3.5-0.5h-5v13.9h6.7c1.1,0,2.2-0.2,3.1-0.5
			c0.9-0.4,1.7-0.9,2.3-1.5c0.6-0.6,1.1-1.4,1.5-2.2C383.4,37.7,383.6,36.8,383.6,35.9z"/>
		<path class="st0" d="M404.3,25.4l12.1,30.1h-4.1l-3.6-8.9h-10.9l-3.5,8.9h-4.1l11.8-30.1C401.9,25.4,404.3,25.4,404.3,25.4z
			 M399.1,43h8.2c-0.4-0.9-0.7-1.8-1-2.6s-0.6-1.6-1-2.4c-0.3-0.8-0.7-1.6-1-2.5s-0.7-1.8-1.1-2.8L399.1,43z"/>
		<path class="st0" d="M420.3,55.5V25.4h3.3L440,39.5V25.4h3.8v30.1H440V44.4l-15.9-13.7v24.8H420.3z"/>
		<path class="st0" d="M450.6,55.5V25.4h17.2v3.5h-13.4v8.7h10.7v3.5h-10.7V52h13.4v3.5H450.6z"/>
		<path class="st0" d="M105.9,0v5.5h3.8V0H105.9z"/>
		<path class="st0" d="M118.3,31.5l1.6,3.8h1.4v-3.8H118.3z M107.8,0.8l-1.6,0.7l1.6,4.1l0.6,1.6h1.3V0L107.8,0.8z"/>
		<path class="st0" d="M156.3,67.4c-1.8,1.9-4.5,2.9-6.9,3.2c-8.9,1.2-13.5-5.6-16.5-12.8c-3.4-8.2-6.6-16.5-9.9-24.8
			c-4.4-11-8.9-22-13.3-33v7.1h-1.3l9.8,24.4h2.9v3.8h-1.4c0.1,0,0.4,1.1,0.5,1.2c1.8,4.4,3.6,8.9,5.4,13.3c1,2.5,2,4.9,3,7.4
			c1.5,3.6,3,7.4,5.4,10.6c3.3,4.3,8.1,6.9,13.5,6.9c0.8,0,1.6-0.1,2.4-0.2c5.2-0.7,9.2-3.3,11.1-7.1L156.3,67.4L156.3,67.4z"/>
		<polygon class="st0" points="105.9,0 83.4,55.5 87.6,55.5 109.4,1.4 		"/>
		<path class="st0" d="M134.4,61.2l-0.2-0.4l0.1,0C134.4,60.9,134.4,61.1,134.4,61.2z"/>
	</g>
</g>
<g>
	<g>
		<defs>
			<rect id="SVGID_1_" x="1.1" y="-0.1" width="58.4" height="58.4"/>
		</defs>
		<clipPath id="SVGID_2_">
			<use xlink:href="#SVGID_1_"  style="overflow:visible;"/>
		</clipPath>
		<g id="Layer_12" class="st1">
			<g>
				<g>
					<g>
						<defs>
							<rect id="SVGID_3_" x="-3.8" y="-11.2" width="80.6" height="80.6"/>
						</defs>
						<clipPath id="SVGID_4_">
							<use xlink:href="#SVGID_3_"  style="overflow:visible;"/>
						</clipPath>
						<rect x="-17.3" y="-22.7" class="st2" width="97.9" height="95.1"/>
					</g>
				</g>
				<g>
					<g>
						<defs>
							<rect id="SVGID_5_" x="-3.8" y="-11.2" width="80.6" height="80.6"/>
						</defs>
						<clipPath id="SVGID_6_">
							<use xlink:href="#SVGID_5_"  style="overflow:visible;"/>
						</clipPath>
						<g class="st3">
							<g>
								<path class="st4" d="M-9.7,27.2C-9.7,27.2-9.7,27.2-9.7,27.2c-0.9,0-1.6-0.5-2-1.3l0.3-0.2c0.4,0.7,1,1.1,1.7,1.2
									c0.7,0,1.5-0.4,1.9-1.2l0.3,0.2C-8,26.7-8.9,27.2-9.7,27.2z"/>
								<path class="st4" d="M-3.9,26c-0.5-0.7-1.2-1.2-1.9-1.2c-0.7,0-1.3,0.4-1.7,1.2l-0.3-0.2c0.5-0.8,1.2-1.3,2-1.3
									c0.8,0,1.7,0.5,2.2,1.3L-3.9,26z"/>
								<path class="st4" d="M-1.9,27.3C-1.9,27.3-2,27.3-1.9,27.3c-0.9,0-1.6-0.5-2-1.3l0.3-0.2c0.4,0.7,1,1.1,1.7,1.2
									c0.7,0,1.5-0.4,1.9-1.2L0.2,26C-0.3,26.8-1.1,27.3-1.9,27.3z"/>
								<path class="st4" d="M3.8,26.1c-0.5-0.7-1.2-1.2-1.9-1.2c-0.7,0-1.3,0.4-1.7,1.2l-0.3-0.2c0.5-0.8,1.2-1.3,2-1.3
									c0.8,0,1.7,0.5,2.2,1.3L3.8,26.1z"/>
								<path class="st4" d="M5.7,27.2C5.7,27.2,5.7,27.2,5.7,27.2c-0.9,0-1.6-0.5-2-1.3L4,25.8c0.4,0.7,1,1.1,1.7,1.2
									c0.7,0,1.5-0.4,1.9-1.2l0.3,0.2C7.4,26.7,6.6,27.2,5.7,27.2z"/>
								<path class="st4" d="M11.5,26c-0.5-0.7-1.2-1.2-1.9-1.2c-0.7,0-1.3,0.4-1.7,1.2l-0.3-0.2c0.5-0.8,1.2-1.3,2-1.3
									c0.8,0,1.7,0.5,2.2,1.3L11.5,26z"/>
								<path class="st4" d="M13.5,27.3C13.5,27.3,13.4,27.3,13.5,27.3c-0.9,0-1.6-0.5-2-1.3l0.3-0.2c0.4,0.7,1,1.1,1.7,1.2
									c0.7,0,1.5-0.4,1.9-1.2l0.3,0.2C15.1,26.8,14.3,27.3,13.5,27.3z"/>
								<path class="st4" d="M19.2,26.1c-0.5-0.7-1.2-1.2-1.9-1.2c-0.7,0-1.3,0.4-1.7,1.2l-0.3-0.2c0.5-0.8,1.2-1.3,2-1.3
									c0.8,0,1.7,0.5,2.2,1.3L19.2,26.1z"/>
							</g>
							<g>
								<path class="st4" d="M-9.7,22.8C-9.8,22.8-9.8,22.8-9.7,22.8c-0.9,0-1.6-0.5-2-1.3l0.3-0.2c0.4,0.7,1,1.1,1.7,1.2
									c0.7,0,1.5-0.4,1.9-1.2l0.3,0.2C-8.1,22.3-8.9,22.8-9.7,22.8z"/>
								<path class="st4" d="M-4,21.6c-0.5-0.7-1.2-1.2-1.9-1.2c-0.7,0-1.3,0.4-1.7,1.2l-0.3-0.2c0.5-0.8,1.2-1.3,2-1.3
									c0.8,0,1.7,0.5,2.2,1.3L-4,21.6z"/>
								<path class="st4" d="M-2,22.8C-2,22.8-2,22.8-2,22.8c-0.9,0-1.6-0.5-2-1.3l0.3-0.2c0.4,0.7,1,1.1,1.7,1.2
									c0.7,0,1.5-0.4,1.9-1.2l0.3,0.2C-0.4,22.3-1.2,22.8-2,22.8z"/>
								<path class="st4" d="M3.8,21.6c-0.5-0.7-1.2-1.2-1.9-1.2c-0.7,0-1.3,0.4-1.7,1.2l-0.3-0.2c0.5-0.8,1.2-1.3,2-1.3
									c0.8,0,1.7,0.5,2.2,1.3L3.8,21.6z"/>
								<path class="st4" d="M5.7,22.8C5.6,22.8,5.6,22.8,5.7,22.8c-0.9,0-1.6-0.5-2-1.3l0.3-0.2c0.4,0.7,1,1.1,1.7,1.2
									c0.7,0,1.5-0.4,1.9-1.2l0.3,0.2C7.3,22.3,6.5,22.8,5.7,22.8z"/>
								<path class="st4" d="M11.4,21.6c-0.5-0.7-1.2-1.2-1.9-1.2c-0.7,0-1.3,0.4-1.7,1.2l-0.3-0.2c0.5-0.8,1.2-1.3,2-1.3
									c0.8,0,1.7,0.5,2.2,1.3L11.4,21.6z"/>
								<path class="st4" d="M13.4,22.8C13.4,22.8,13.4,22.8,13.4,22.8c-0.9,0-1.6-0.5-2-1.3l0.3-0.2c0.4,0.7,1,1.1,1.7,1.2
									c0.7,0,1.5-0.4,1.9-1.2l0.3,0.2C15,22.3,14.2,22.8,13.4,22.8z"/>
								<path class="st4" d="M19.2,21.6c-0.5-0.7-1.2-1.2-1.9-1.2c-0.7,0-1.3,0.4-1.7,1.2l-0.3-0.2c0.5-0.8,1.2-1.3,2-1.3
									c0.8,0,1.7,0.5,2.2,1.3L19.2,21.6z"/>
							</g>
							<g>
								<path class="st4" d="M-9.6,18.7C-9.6,18.7-9.6,18.7-9.6,18.7c-0.9,0-1.6-0.5-2-1.3l0.3-0.2c0.4,0.7,1,1.1,1.7,1.2
									c0.7,0,1.5-0.4,1.9-1.2l0.3,0.2C-8,18.2-8.8,18.7-9.6,18.7z"/>
								<path class="st4" d="M-3.9,17.5c-0.5-0.7-1.2-1.2-1.9-1.2c-0.7,0-1.3,0.4-1.7,1.2l-0.3-0.2c0.5-0.8,1.2-1.3,2-1.3
									c0.8,0,1.7,0.5,2.2,1.3L-3.9,17.5z"/>
								<path class="st4" d="M-1.9,18.7C-1.9,18.7-1.9,18.7-1.9,18.7c-0.9,0-1.6-0.5-2-1.3l0.3-0.2c0.4,0.7,1,1.1,1.7,1.2
									c0.7,0,1.5-0.4,1.9-1.2l0.3,0.2C-0.2,18.2-1,18.7-1.9,18.7z"/>
								<path class="st4" d="M3.9,17.5c-0.5-0.7-1.2-1.2-1.9-1.2c-0.7,0-1.3,0.4-1.7,1.2L0,17.4c0.5-0.8,1.2-1.3,2-1.3
									c0.8,0,1.7,0.5,2.2,1.3L3.9,17.5z"/>
								<path class="st4" d="M5.8,18.7C5.8,18.7,5.8,18.7,5.8,18.7c-0.9,0-1.6-0.5-2-1.3L4,17.2c0.4,0.7,1,1.1,1.7,1.2
									c0.7,0,1.5-0.4,1.9-1.2L8,17.4C7.4,18.2,6.6,18.7,5.8,18.7z"/>
								<path class="st4" d="M11.6,17.5c-0.5-0.7-1.2-1.2-1.9-1.2c-0.7,0-1.3,0.4-1.7,1.2l-0.3-0.2c0.5-0.8,1.2-1.3,2-1.3
									c0.8,0,1.7,0.5,2.2,1.3L11.6,17.5z"/>
								<path class="st4" d="M13.5,18.7C13.5,18.7,13.5,18.7,13.5,18.7c-0.9,0-1.6-0.5-2-1.3l0.3-0.2c0.4,0.7,1,1.1,1.7,1.2
									c0.7,0,1.5-0.4,1.9-1.2l0.3,0.2C15.2,18.2,14.4,18.7,13.5,18.7z"/>
								<path class="st4" d="M19.3,17.5c-0.5-0.7-1.2-1.2-1.9-1.2c-0.7,0-1.3,0.4-1.7,1.2l-0.3-0.2c0.5-0.8,1.2-1.3,2-1.3
									c0.8,0,1.7,0.5,2.2,1.3L19.3,17.5z"/>
							</g>
							<g>
								<path class="st4" d="M-9.5,14.9C-9.6,14.9-9.6,14.9-9.5,14.9c-0.9,0-1.6-0.5-2-1.3l0.3-0.2c0.4,0.7,1,1.1,1.7,1.2
									c0.7,0,1.5-0.4,1.9-1.2l0.3,0.2C-7.9,14.4-8.7,14.9-9.5,14.9z"/>
								<path class="st4" d="M-3.8,13.7C-4.3,13-5,12.5-5.7,12.6c-0.7,0-1.3,0.4-1.7,1.2l-0.3-0.2c0.5-0.8,1.2-1.3,2-1.3
									c0.8,0,1.7,0.5,2.2,1.3L-3.8,13.7z"/>
								<path class="st4" d="M-1.8,15C-1.8,15-1.8,15-1.8,15c-0.9,0-1.6-0.5-2-1.3l0.3-0.2c0.4,0.7,1,1.1,1.7,1.2
									c0.7,0,1.5-0.4,1.9-1.2l0.3,0.2C-0.2,14.5-1,15-1.8,15z"/>
								<path class="st4" d="M4,13.8C3.5,13,2.7,12.6,2,12.6c-0.7,0-1.3,0.4-1.7,1.2L0,13.6c0.5-0.8,1.2-1.3,2-1.3
									c0.8,0,1.7,0.5,2.2,1.3L4,13.8z"/>
								<path class="st4" d="M5.9,14.9C5.8,14.9,5.8,14.9,5.9,14.9c-0.9,0-1.6-0.5-2-1.3l0.3-0.2c0.4,0.7,1,1.1,1.7,1.2
									c0.7,0,1.5-0.4,1.9-1.2L8,13.6C7.5,14.4,6.7,14.9,5.9,14.9z"/>
								<path class="st4" d="M11.6,13.7c-0.5-0.7-1.2-1.2-1.9-1.2C9,12.6,8.4,13,8,13.7l-0.3-0.2c0.5-0.8,1.2-1.3,2-1.3
									c0.8,0,1.7,0.5,2.2,1.3L11.6,13.7z"/>
								<path class="st4" d="M13.6,15C13.6,15,13.6,15,13.6,15c-0.9,0-1.6-0.5-2-1.3l0.3-0.2c0.4,0.7,1,1.1,1.7,1.2
									c0.7,0,1.5-0.4,1.9-1.2l0.3,0.2C15.2,14.5,14.4,15,13.6,15z"/>
								<path class="st4" d="M19.4,13.8c-0.5-0.7-1.2-1.2-1.9-1.2c-0.7,0-1.3,0.4-1.7,1.2l-0.3-0.2c0.5-0.8,1.2-1.3,2-1.3
									c0.8,0,1.7,0.5,2.2,1.3L19.4,13.8z"/>
							</g>
							<g>
								<path class="st4" d="M-9.7,31.8C-9.8,31.8-9.8,31.8-9.7,31.8c-0.9,0-1.6-0.5-2-1.3l0.3-0.2c0.4,0.7,1,1.1,1.7,1.2
									c0.7,0,1.5-0.4,1.9-1.2l0.3,0.2C-8.1,31.3-8.9,31.8-9.7,31.8z"/>
								<path class="st4" d="M-4,30.6c-0.5-0.7-1.2-1.2-1.9-1.2c-0.7,0-1.3,0.4-1.7,1.2l-0.3-0.2c0.5-0.8,1.2-1.3,2-1.3
									c0.8,0,1.7,0.5,2.2,1.3L-4,30.6z"/>
								<path class="st4" d="M-2,31.8C-2,31.8-2,31.8-2,31.8c-0.9,0-1.6-0.5-2-1.3l0.3-0.2c0.4,0.7,1,1.1,1.7,1.2
									c0.7,0,1.5-0.4,1.9-1.2l0.3,0.2C-0.4,31.3-1.2,31.8-2,31.8z"/>
								<path class="st4" d="M3.8,30.6c-0.5-0.7-1.2-1.2-1.9-1.2c-0.7,0-1.3,0.4-1.7,1.2l-0.3-0.2c0.5-0.8,1.2-1.3,2-1.3
									c0.8,0,1.7,0.5,2.2,1.3L3.8,30.6z"/>
								<path class="st4" d="M5.7,31.8C5.6,31.8,5.6,31.8,5.7,31.8c-0.9,0-1.6-0.5-2-1.3l0.3-0.2c0.4,0.7,1,1.1,1.7,1.2
									c0.7,0,1.5-0.4,1.9-1.2l0.3,0.2C7.3,31.3,6.5,31.8,5.7,31.8z"/>
								<path class="st4" d="M11.4,30.6c-0.5-0.7-1.2-1.2-1.9-1.2c-0.7,0-1.3,0.4-1.7,1.2l-0.3-0.2c0.5-0.8,1.2-1.3,2-1.3
									c0.8,0,1.7,0.5,2.2,1.3L11.4,30.6z"/>
								<path class="st4" d="M13.4,31.8C13.4,31.8,13.4,31.8,13.4,31.8c-0.9,0-1.6-0.5-2-1.3l0.3-0.2c0.4,0.7,1,1.1,1.7,1.2
									c0.7,0,1.5-0.4,1.9-1.2l0.3,0.2C15,31.3,14.2,31.8,13.4,31.8z"/>
								<path class="st4" d="M19.2,30.6c-0.5-0.7-1.2-1.2-1.9-1.2c-0.7,0-1.3,0.4-1.7,1.2l-0.3-0.2c0.5-0.8,1.2-1.3,2-1.3
									c0.8,0,1.7,0.5,2.2,1.3L19.2,30.6z"/>
							</g>
							<g>
								<path class="st4" d="M-9.8,36.3C-9.8,36.3-9.8,36.3-9.8,36.3c-0.9,0-1.6-0.5-2-1.3l0.3-0.2c0.4,0.7,1,1.1,1.7,1.2
									c0.7,0,1.5-0.4,1.9-1.2l0.3,0.2C-8.2,35.8-9,36.3-9.8,36.3z"/>
								<path class="st4" d="M-4.1,35.1C-4.5,34.4-5.3,33.9-6,34c-0.7,0-1.3,0.4-1.7,1.2L-8,34.9c0.5-0.8,1.2-1.3,2-1.3
									c0.8,0,1.7,0.5,2.2,1.3L-4.1,35.1z"/>
								<path class="st4" d="M-2.1,36.4C-2.1,36.4-2.1,36.4-2.1,36.4c-0.9,0-1.6-0.5-2-1.3l0.3-0.2c0.4,0.7,1,1.1,1.7,1.2
									c0.7,0,1.5-0.4,1.9-1.2l0.3,0.2C-0.4,35.9-1.2,36.4-2.1,36.4z"/>
								<path class="st4" d="M3.7,35.2C3.2,34.4,2.5,34,1.8,34c-0.7,0-1.3,0.4-1.7,1.2L-0.2,35c0.5-0.8,1.2-1.3,2-1.3
									c0.8,0,1.7,0.5,2.2,1.3L3.7,35.2z"/>
								<path class="st4" d="M5.6,36.3C5.6,36.3,5.6,36.3,5.6,36.3c-0.9,0-1.6-0.5-2-1.3l0.3-0.2c0.4,0.7,1,1.1,1.7,1.2
									c0.7,0,1.5-0.4,1.9-1.2L7.8,35C7.2,35.8,6.4,36.3,5.6,36.3z"/>
								<path class="st4" d="M11.4,35.1c-0.5-0.7-1.2-1.2-1.9-1.2c-0.7,0-1.3,0.4-1.7,1.2l-0.3-0.2c0.5-0.8,1.2-1.3,2-1.3
									c0.8,0,1.7,0.5,2.2,1.3L11.4,35.1z"/>
								<path class="st4" d="M13.3,36.4C13.3,36.4,13.3,36.4,13.3,36.4c-0.9,0-1.6-0.5-2-1.3l0.3-0.2c0.4,0.7,1,1.1,1.7,1.2
									c0.7,0,1.5-0.4,1.9-1.2l0.3,0.2C15,35.9,14.2,36.4,13.3,36.4z"/>
								<path class="st4" d="M19.1,35.2c-0.5-0.7-1.2-1.2-1.9-1.2c-0.7,0-1.3,0.4-1.7,1.2L15.2,35c0.5-0.8,1.2-1.3,2-1.3
									c0.8,0,1.7,0.5,2.2,1.3L19.1,35.2z"/>
							</g>
							<g>
								<path class="st4" d="M-9.9,40.9C-9.9,40.9-9.9,40.9-9.9,40.9c-0.9,0-1.6-0.5-2-1.3l0.3-0.2c0.4,0.7,1,1.1,1.7,1.2
									c0.7,0,1.5-0.4,1.9-1.2l0.3,0.2C-8.2,40.4-9,40.9-9.9,40.9z"/>
								<path class="st4" d="M-4.1,39.7c-0.5-0.7-1.2-1.2-1.9-1.2c-0.7,0-1.3,0.4-1.7,1.2l-0.3-0.2c0.5-0.8,1.2-1.3,2-1.3
									c0.8,0,1.7,0.5,2.2,1.3L-4.1,39.7z"/>
								<path class="st4" d="M-2.1,40.9C-2.1,40.9-2.2,40.9-2.1,40.9c-0.9,0-1.6-0.5-2-1.3l0.3-0.2c0.4,0.7,1,1.1,1.7,1.2
									c0.7,0,1.5-0.4,1.9-1.2L0,39.6C-0.5,40.4-1.3,40.9-2.1,40.9z"/>
								<path class="st4" d="M3.6,39.7c-0.5-0.7-1.2-1.2-1.9-1.2C1,38.6,0.4,39,0,39.7l-0.3-0.2c0.5-0.8,1.2-1.3,2-1.3
									c0.8,0,1.7,0.5,2.2,1.3L3.6,39.7z"/>
								<path class="st4" d="M5.5,40.9C5.5,40.9,5.5,40.9,5.5,40.9c-0.9,0-1.6-0.5-2-1.3l0.3-0.2c0.4,0.7,1,1.1,1.7,1.2
									c0.7,0,1.5-0.4,1.9-1.2l0.3,0.2C7.2,40.4,6.4,40.9,5.5,40.9z"/>
								<path class="st4" d="M11.3,39.7c-0.5-0.7-1.2-1.2-1.9-1.2c-0.7,0-1.3,0.4-1.7,1.2l-0.3-0.2c0.5-0.8,1.2-1.3,2-1.3
									c0.8,0,1.7,0.5,2.2,1.3L11.3,39.7z"/>
								<path class="st4" d="M13.3,40.9C13.3,40.9,13.2,40.9,13.3,40.9c-0.9,0-1.6-0.5-2-1.3l0.3-0.2c0.4,0.7,1,1.1,1.7,1.2
									c0.7,0,1.5-0.4,1.9-1.2l0.3,0.2C14.9,40.4,14.1,40.9,13.3,40.9z"/>
								<path class="st4" d="M19,39.7c-0.5-0.7-1.2-1.2-1.9-1.2c-0.7,0-1.3,0.4-1.7,1.2l-0.3-0.2c0.5-0.8,1.2-1.3,2-1.3
									c0.8,0,1.7,0.5,2.2,1.3L19,39.7z"/>
							</g>
							<g>
								<path class="st4" d="M-9.9,45.4C-10,45.4-10,45.4-9.9,45.4c-0.9,0-1.6-0.5-2-1.3l0.3-0.2c0.4,0.7,1,1.1,1.7,1.2
									c0.7,0,1.5-0.4,1.9-1.2l0.3,0.2C-8.3,44.9-9.1,45.4-9.9,45.4z"/>
								<path class="st4" d="M-4.2,44.2C-4.7,43.5-5.4,43-6.1,43c-0.7,0-1.3,0.4-1.7,1.2L-8.1,44c0.5-0.8,1.2-1.3,2-1.3
									c0.8,0,1.7,0.5,2.2,1.3L-4.2,44.2z"/>
								<path class="st4" d="M-2.2,45.5C-2.2,45.5-2.2,45.5-2.2,45.5c-0.9,0-1.6-0.5-2-1.3L-4,44c0.4,0.7,1,1.1,1.7,1.2
									c0.7,0,1.5-0.4,1.9-1.2L0,44.2C-0.6,45-1.4,45.5-2.2,45.5z"/>
								<path class="st4" d="M3.6,44.3c-0.5-0.7-1.2-1.2-1.9-1.2c-0.7,0-1.3,0.4-1.7,1.2l-0.3-0.2c0.5-0.8,1.2-1.3,2-1.3
									c0.8,0,1.7,0.5,2.2,1.3L3.6,44.3z"/>
								<path class="st4" d="M5.5,45.4C5.4,45.4,5.4,45.4,5.5,45.4c-0.9,0-1.6-0.5-2-1.3l0.3-0.2c0.4,0.7,1,1.1,1.7,1.2
									c0.7,0,1.5-0.4,1.9-1.2l0.3,0.2C7.1,44.9,6.3,45.4,5.5,45.4z"/>
								<path class="st4" d="M11.2,44.2C10.7,43.5,10,43,9.3,43c-0.7,0-1.3,0.4-1.7,1.2L7.3,44c0.5-0.8,1.2-1.3,2-1.3
									c0.8,0,1.7,0.5,2.2,1.3L11.2,44.2z"/>
								<path class="st4" d="M13.2,45.5C13.2,45.5,13.2,45.5,13.2,45.5c-0.9,0-1.6-0.5-2-1.3l0.3-0.2c0.4,0.7,1,1.1,1.7,1.2
									c0.7,0,1.5-0.4,1.9-1.2l0.3,0.2C14.8,45,14,45.5,13.2,45.5z"/>
								<path class="st4" d="M19,44.3c-0.5-0.7-1.2-1.2-1.9-1.2c-0.7,0-1.3,0.4-1.7,1.2L15,44.1c0.5-0.8,1.2-1.3,2-1.3
									c0.8,0,1.7,0.5,2.2,1.3L19,44.3z"/>
							</g>
							<g>
								<path class="st4" d="M-10,50C-10,50-10,50-10,50c-0.9,0-1.6-0.5-2-1.3l0.3-0.2c0.4,0.7,1,1.1,1.7,1.2c0.7,0,1.5-0.4,1.9-1.2
									l0.3,0.2C-8.4,49.5-9.2,50-10,50z"/>
								<path class="st4" d="M-4.3,48.7c-0.5-0.7-1.2-1.2-1.9-1.2c-0.7,0-1.3,0.4-1.7,1.2l-0.3-0.2c0.5-0.8,1.2-1.3,2-1.3
									c0.8,0,1.7,0.5,2.2,1.3L-4.3,48.7z"/>
								<path class="st4" d="M-2.3,50C-2.3,50-2.3,50-2.3,50c-0.9,0-1.6-0.5-2-1.3l0.3-0.2c0.4,0.7,1,1.1,1.7,1.2
									c0.7,0,1.5-0.4,1.9-1.2l0.3,0.2C-0.6,49.5-1.4,50-2.3,50z"/>
								<path class="st4" d="M3.5,48.8c-0.5-0.7-1.2-1.2-1.9-1.2c-0.7,0-1.3,0.4-1.7,1.2l-0.3-0.2c0.5-0.8,1.2-1.3,2-1.3
									c0.8,0,1.7,0.5,2.2,1.3L3.5,48.8z"/>
								<path class="st4" d="M5.4,50C5.4,50,5.4,50,5.4,50c-0.9,0-1.6-0.5-2-1.3l0.3-0.2c0.4,0.7,1,1.1,1.7,1.2
									c0.7,0,1.5-0.4,1.9-1.2l0.3,0.2C7,49.5,6.2,50,5.4,50z"/>
								<path class="st4" d="M11.2,48.7c-0.5-0.7-1.2-1.2-1.9-1.2c-0.7,0-1.3,0.4-1.7,1.2l-0.3-0.2c0.5-0.8,1.2-1.3,2-1.3
									c0.8,0,1.7,0.5,2.2,1.3L11.2,48.7z"/>
								<path class="st4" d="M13.2,50C13.1,50,13.1,50,13.2,50c-0.9,0-1.6-0.5-2-1.3l0.3-0.2c0.4,0.7,1,1.1,1.7,1.2
									c0.7,0,1.5-0.4,1.9-1.2l0.3,0.2C14.8,49.5,14,50,13.2,50z"/>
								<path class="st4" d="M18.9,48.8c-0.5-0.7-1.2-1.2-1.9-1.2c-0.7,0-1.3,0.4-1.7,1.2L15,48.6c0.5-0.8,1.2-1.3,2-1.3
									c0.8,0,1.7,0.5,2.2,1.3L18.9,48.8z"/>
							</g>
							<g>
								<path class="st4" d="M-10.1,54.5C-10.1,54.5-10.1,54.5-10.1,54.5c-0.9,0-1.6-0.5-2-1.3l0.3-0.2c0.4,0.7,1,1.1,1.7,1.2
									c0.7,0,1.5-0.4,1.9-1.2l0.3,0.2C-8.4,54-9.2,54.5-10.1,54.5z"/>
								<path class="st4" d="M-4.3,53.3c-0.5-0.7-1.2-1.2-1.9-1.2c-0.7,0-1.3,0.4-1.7,1.2l-0.3-0.2c0.5-0.8,1.2-1.3,2-1.3
									c0.8,0,1.7,0.5,2.2,1.3L-4.3,53.3z"/>
								<path class="st4" d="M-2.3,54.6C-2.3,54.6-2.4,54.6-2.3,54.6c-0.9,0-1.6-0.5-2-1.3l0.3-0.2c0.4,0.7,1,1.1,1.7,1.2
									c0.7,0,1.5-0.4,1.9-1.2l0.3,0.2C-0.7,54.1-1.5,54.6-2.3,54.6z"/>
								<path class="st4" d="M3.4,53.3c-0.5-0.7-1.2-1.2-1.9-1.2c-0.7,0-1.3,0.4-1.7,1.2l-0.3-0.2c0.5-0.8,1.2-1.3,2-1.3
									c0.8,0,1.7,0.5,2.2,1.3L3.4,53.3z"/>
								<path class="st4" d="M5.3,54.5C5.3,54.5,5.3,54.5,5.3,54.5c-0.9,0-1.6-0.5-2-1.3L3.6,53c0.4,0.7,1,1.1,1.7,1.2
									c0.7,0,1.5-0.4,1.9-1.2l0.3,0.2C7,54,6.2,54.5,5.3,54.5z"/>
								<path class="st4" d="M11.1,53.3c-0.5-0.7-1.2-1.2-1.9-1.2c-0.7,0-1.3,0.4-1.7,1.2l-0.3-0.2c0.5-0.8,1.2-1.3,2-1.3
									c0.8,0,1.7,0.5,2.2,1.3L11.1,53.3z"/>
								<path class="st4" d="M13.1,54.6C13.1,54.6,13.1,54.6,13.1,54.6c-0.9,0-1.6-0.5-2-1.3l0.3-0.2c0.4,0.7,1,1.1,1.7,1.2
									c0.7,0,1.5-0.4,1.9-1.2l0.3,0.2C14.7,54.1,13.9,54.6,13.1,54.6z"/>
								<path class="st4" d="M18.8,53.3c-0.5-0.7-1.2-1.2-1.9-1.2c-0.7,0-1.3,0.4-1.7,1.2l-0.3-0.2c0.5-0.8,1.2-1.3,2-1.3
									c0.8,0,1.7,0.5,2.2,1.3L18.8,53.3z"/>
							</g>
							<g>
								<path class="st4" d="M-10.1,59C-10.2,59-10.2,59-10.1,59c-0.9,0-1.6-0.5-2-1.3l0.3-0.2c0.4,0.7,1,1.1,1.7,1.2
									c0.7,0,1.5-0.4,1.9-1.2l0.3,0.2C-8.5,58.6-9.3,59-10.1,59z"/>
								<path class="st4" d="M-4.4,57.8c-0.5-0.7-1.2-1.2-1.9-1.2c-0.7,0-1.3,0.4-1.7,1.2l-0.3-0.2c0.5-0.8,1.2-1.3,2-1.3
									c0.8,0,1.7,0.5,2.2,1.3L-4.4,57.8z"/>
								<path class="st4" d="M-2.4,59.1C-2.4,59.1-2.4,59.1-2.4,59.1c-0.9,0-1.6-0.5-2-1.3l0.3-0.2c0.4,0.7,1,1.1,1.7,1.2
									c0.7,0,1.5-0.4,1.9-1.2l0.3,0.2C-0.8,58.6-1.6,59.1-2.4,59.1z"/>
								<path class="st4" d="M3.4,57.9c-0.5-0.7-1.2-1.2-1.9-1.2c-0.7,0-1.3,0.4-1.7,1.2l-0.3-0.2c0.5-0.8,1.2-1.3,2-1.3
									c0.8,0,1.7,0.5,2.2,1.3L3.4,57.9z"/>
								<path class="st4" d="M5.3,59C5.3,59,5.2,59,5.3,59c-0.9,0-1.6-0.5-2-1.3l0.3-0.2c0.4,0.7,1,1.1,1.7,1.2
									c0.7,0,1.5-0.4,1.9-1.2l0.3,0.2C6.9,58.6,6.1,59,5.3,59z"/>
								<path class="st4" d="M11,57.8c-0.5-0.7-1.2-1.2-1.9-1.2c-0.7,0-1.3,0.4-1.7,1.2l-0.3-0.2c0.5-0.8,1.2-1.3,2-1.3
									c0.8,0,1.7,0.5,2.2,1.3L11,57.8z"/>
								<path class="st4" d="M13,59.1C13,59.1,13,59.1,13,59.1c-0.9,0-1.6-0.5-2-1.3l0.3-0.2c0.4,0.7,1,1.1,1.7,1.2
									c0.7,0,1.5-0.4,1.9-1.2l0.3,0.2C14.6,58.6,13.8,59.1,13,59.1z"/>
								<path class="st4" d="M18.8,57.9c-0.5-0.7-1.2-1.2-1.9-1.2c-0.7,0-1.3,0.4-1.7,1.2l-0.3-0.2c0.5-0.8,1.2-1.3,2-1.3
									c0.8,0,1.7,0.5,2.2,1.3L18.8,57.9z"/>
							</g>
							<g>
								<path class="st4" d="M-10.2,63.6C-10.2,63.6-10.2,63.6-10.2,63.6c-0.9,0-1.6-0.5-2-1.3l0.3-0.2c0.4,0.7,1,1.1,1.7,1.2
									c0.7,0,1.5-0.4,1.9-1.2l0.3,0.2C-8.6,63.1-9.4,63.6-10.2,63.6z"/>
								<path class="st4" d="M-4.4,62.4c-0.5-0.7-1.2-1.2-1.9-1.2c-0.7,0-1.3,0.4-1.7,1.2l-0.3-0.2c0.5-0.8,1.2-1.3,2-1.3
									c0.8,0,1.7,0.5,2.2,1.3L-4.4,62.4z"/>
								<path class="st4" d="M-2.5,63.6C-2.5,63.6-2.5,63.6-2.5,63.6c-0.9,0-1.6-0.5-2-1.3l0.3-0.2c0.4,0.7,1,1.1,1.7,1.2
									c0.7,0,1.5-0.4,1.9-1.2l0.3,0.2C-0.8,63.2-1.6,63.6-2.5,63.6z"/>
								<path class="st4" d="M3.3,62.4c-0.5-0.7-1.2-1.2-1.9-1.2c-0.7,0-1.3,0.4-1.7,1.2l-0.3-0.2c0.5-0.8,1.2-1.3,2-1.3
									c0.8,0,1.7,0.5,2.2,1.3L3.3,62.4z"/>
								<path class="st4" d="M5.2,63.6C5.2,63.6,5.2,63.6,5.2,63.6c-0.9,0-1.6-0.5-2-1.3l0.3-0.2c0.4,0.7,1,1.1,1.7,1.2
									c0.7,0,1.5-0.4,1.9-1.2l0.3,0.2C6.8,63.1,6,63.6,5.2,63.6z"/>
								<path class="st4" d="M11,62.4c-0.5-0.7-1.2-1.2-1.9-1.2c-0.7,0-1.3,0.4-1.7,1.2L7,62.2c0.5-0.8,1.2-1.3,2-1.3
									c0.8,0,1.7,0.5,2.2,1.3L11,62.4z"/>
								<path class="st4" d="M13,63.6C12.9,63.6,12.9,63.6,13,63.6c-0.9,0-1.6-0.5-2-1.3l0.3-0.2c0.4,0.7,1,1.1,1.7,1.2
									c0.7,0,1.5-0.4,1.9-1.2l0.3,0.2C14.6,63.2,13.8,63.6,13,63.6z"/>
								<path class="st4" d="M18.7,62.4c-0.5-0.7-1.2-1.2-1.9-1.2c-0.7,0-1.3,0.4-1.7,1.2l-0.3-0.2c0.5-0.8,1.2-1.3,2-1.3
									c0.8,0,1.7,0.5,2.2,1.3L18.7,62.4z"/>
							</g>
						</g>
					</g>
				</g>
				<g>
					<g>
						<defs>
							<rect id="SVGID_7_" x="-3.8" y="-11.2" width="80.6" height="80.6"/>
						</defs>
						<clipPath id="SVGID_8_">
							<use xlink:href="#SVGID_7_"  style="overflow:visible;"/>
						</clipPath>
						
							<radialGradient id="SVGID_9_" cx="47.746" cy="631.512" r="19.996" fx="56.4804" fy="624.8381" gradientTransform="matrix(1 0 0 1 0 -623.6672)" gradientUnits="userSpaceOnUse">
							<stop  offset="0.4346" style="stop-color:#D99542"/>
							<stop  offset="1" style="stop-color:#FFD197"/>
						</radialGradient>
						<circle class="st5" cx="46.2" cy="13" r="20"/>
					</g>
				</g>
				<g>
					<g>
						<defs>
							<rect id="SVGID_10_" x="-3.8" y="-11.2" width="80.6" height="80.6"/>
						</defs>
						<clipPath id="SVGID_11_">
							<use xlink:href="#SVGID_10_"  style="overflow:visible;"/>
						</clipPath>
						<path class="st6" d="M62.2,71c-1.3-5.4-2.7-10.7-4.2-16c-0.8-2.7-1.5-5.3-2.4-7.9c-0.6-2-1.3-3.9-2.9-5.3
							c-0.5-0.8-1-1.6-1.6-2.3c-1-1.3-2.1-2.1-3.8-2.5c-3.2-0.7-6.5-0.2-9.7,0.4c-0.8,0.2-1.3,1.2-1.1,1.9c0.1,0.3,0.2,0.5,0.4,0.7
							c-0.3,0.3-0.6,0.7-0.8,1.1c-0.6,0.9-1.2,1.8-1.7,2.7c-0.4,0.7-0.7,1.5-0.9,2.4c-0.6,0.1-1.3,0.2-1.9,0.3c-0.1,0-0.1,0-0.1,0
							c-0.1,0-0.1,0-0.2,0c-0.2,0-0.4,0-0.6,0.1c-0.2,0-0.5,0-0.7,0.1c-2.4-1.5-4.3-3.9-5.1-6.6c-0.3-1.1-1.5-1.8-2.6-1.5
							c-0.7,0.2-1.3,0.8-1.5,1.5c-0.2,0.1-0.4,0.1-0.5,0.3c-4.5,0.1-7.9,5.1-10.5,8.4C6.2,53.4,2.5,58-1.2,62.6
							c-0.3,0.4-0.5,0.8-0.4,1.3c-0.5,2.6-0.7,5.3-0.4,7.9c0.1,0.8,0.7,1.6,1.6,1.6c0.1,0,0.2,0,0.3,0c15.9,0.5,31.8,2.9,47.7,1.7
							c4.5-0.3,9-1,13.4-2c0.3-0.1,0.5-0.2,0.7-0.3C62.1,72.3,62.4,71.7,62.2,71z M47.4,40.2c0.3,0.1,0.5,0.3,0.8,0.5
							C47.9,40.5,47.7,40.4,47.4,40.2z"/>
					</g>
				</g>
				<g>
					<g>
						<defs>
							<rect id="SVGID_12_" x="-3.8" y="-11.2" width="80.6" height="80.6"/>
						</defs>
						<clipPath id="SVGID_13_">
							<use xlink:href="#SVGID_12_"  style="overflow:visible;"/>
						</clipPath>
						<path class="st7" d="M7.4,52.6c0.1-0.3-0.3-0.5-0.5-0.3c0,0-0.1,0.1-0.1,0.1C4.9,56.3,1.3,59-0.2,63.1c0,0.1-0.1,0.2,0,0.3
							c0.1,0.1,0.3,0.2,0.4,0.1c0.1-0.1,0.2-0.2,0.3-0.4c1.5-3.1,3.7-5.8,5.9-8.4c-0.9,2.1-0.7,4.9-0.6,7.2c0,1,0,2,0.1,3
							c0.1,0.6,0.2,1.1,0.7,1.4c0.2,0.1,0.4,0,0.5-0.2C8.7,61.7,5.8,57,7.4,52.6z M6.3,63.3c0-0.8-0.1-1.6-0.1-2.4
							C6.3,61.8,6.3,62.5,6.3,63.3C6.3,63.3,6.3,63.3,6.3,63.3z M6.3,63.6c0,0.3,0,0.5,0,0.8C6.3,64.2,6.3,63.9,6.3,63.6z"/>
					</g>
				</g>
				<g>
					<g>
						<defs>
							<rect id="SVGID_14_" x="-3.8" y="-11.2" width="80.6" height="80.6"/>
						</defs>
						<clipPath id="SVGID_15_">
							<use xlink:href="#SVGID_14_"  style="overflow:visible;"/>
						</clipPath>
						<path class="st8" d="M16.3,55.9c-0.9-1.3-1.9-2.5-2.9-3.7c-0.7-0.8-1.5-1.7-1.7-2.7c-0.1-0.8,0-1.6-0.2-2.4
							c-1.5,1.2-2.4,3-2.7,4.9c-0.4,1.9-0.2,3.8,0,5.8c0,0.4,0.9,3.2,1.3,1.6c0.4-1.3,0-2.6-0.2-4c-0.2-1.6-0.1-3.3,0.4-4.9
							c-0.2,0.5,0.4,1.9,0.4,2.5c0,1,0.1,2,0.1,2.9c0.1,2,0.4,4,1,5.9c0.1,0.3,0.2,0.7,0.5,0.9c0.2,0.2,0.6,0.3,0.9,0.2
							c0.5-0.3,0.3-1,0-1.5c-1-2.2-1.9-4.2-1.8-6.7c0.1-1.3,0.6-2.7,0.1-4c0.8,2.6,2.1,5.1,3.9,7.2c0.2-0.1,0.1-0.4,0-0.5
							c-1.5-1.9-2.7-4.2-3.5-6.6c1.3,1.7,2.6,3.4,3.9,5.1c0.1,0.2,0.3,0.3,0.5,0.2C16.3,56,16.3,56,16.3,55.9z M9.5,58.9
							C9.5,58.8,9.5,58.8,9.5,58.9c0-0.1,0-0.1,0-0.2c0-0.4,0-0.8-0.1-1.2C9.6,57.9,9.6,58.4,9.5,58.9z M10.8,49.6
							C10.8,49.6,10.8,49.6,10.8,49.6c0-0.1,0-0.2,0-0.2C10.8,49.5,10.8,49.5,10.8,49.6z"/>
					</g>
				</g>
				<g>
					<g>
						<defs>
							<rect id="SVGID_16_" x="-3.8" y="-11.2" width="80.6" height="80.6"/>
						</defs>
						<clipPath id="SVGID_17_">
							<use xlink:href="#SVGID_16_"  style="overflow:visible;"/>
						</clipPath>
						<path class="st9" d="M30.2,69.4c-3.5,1.5-7.2,2-11,2.6c-0.1-0.1-0.3-0.1-0.5-0.2c-0.7,0-1.4,0-2.1-0.1c0.9-0.4,1.8-0.7,2.7-1
							c0.1,0,0.2-0.1,0.2-0.1c0.6,0.2,1.3-0.7,0.9-1.3c-0.5-0.7-0.7-1.5-0.7-2.3c0.2-0.7,0.5-1.4,0.7-1.9c0.3-0.7,0.6-1.5,0.9-2.2
							c0.3-0.7,0.7-1.5,0.7-2.3c0-1.4-1.3-1.9-2.2-2.7c-0.6-0.5-1-1.1-1.4-1.8c-0.5-1-1-2.2-1.1-3.3c-0.1-0.5,0-1.1-0.1-1.7
							c-0.1-0.5-0.3-1.1-0.8-1.3c-0.5-0.2-0.9,0.1-0.8,0.7c0.4,1.5,0.6,3,0.5,4.5c-0.1,0.5-0.1,1-0.2,1.5c-0.1,0.6-0.2,1.1-0.4,1.7
							c-0.4,1.2-0.9,2.3-1.2,3.4c-0.3,1.2-0.1,2.3,0,3.5c0.1,1.9-1,3.5-2.1,5c-0.2,0.3-0.5,0.6-0.7,1c-0.2,0.2-0.4,0.3-0.6,0.5
							c-0.2,0.2-0.3,0.5-0.2,0.7c-0.3,0.5-0.6,1-0.8,1.6c-0.4,0.1-0.7,0.7-0.3,1c0,0.1,0,0.1,0,0.2c0,0,0,0.1,0,0.1c0,0,0,0,0,0.1
							c-0.6,1.6,1.7,1.6,2.6,1.6c1.8,0,3.6,0.1,5.3,0.1c0.1,0,0.2,0,0.3,0c0.1,0,0.1,0,0.2,0c0.8,0,0.8-1.2,0-1.3
							c-1.6-0.1-3.2-0.3-4.8-0.8c5.8-1.6,12-1.6,17.6-4C32.1,70.4,31.3,69,30.2,69.4z M11.2,75.5C11.2,75.5,11.2,75.5,11.2,75.5
							c0-0.1,0-0.1,0-0.1c0.1,0,0.2,0.1,0.3,0.1C11.3,75.5,11.2,75.5,11.2,75.5z"/>
					</g>
				</g>
				<g>
					<g>
						<defs>
							<rect id="SVGID_18_" x="-3.8" y="-11.2" width="80.6" height="80.6"/>
						</defs>
						<clipPath id="SVGID_19_">
							<use xlink:href="#SVGID_18_"  style="overflow:visible;"/>
						</clipPath>
						<path class="st10" d="M54.1,42.1c-0.1-0.2-0.4-0.1-0.5,0.1c-0.1,0.1-0.1,0.1-0.1,0.2c-0.9,1.5-2,3-3.1,4.4
							c-0.5,0.7-1,1.3-1.4,2c-0.3,0.5-0.8,2-1.3,2.3c-0.1,0.1-0.2,0.2-0.3,0.4C44.4,59.4,45.5,68,43,76c-0.1,0.3,0.1,0.8,0.5,0.9
							c0.5,0.1,1,0.1,1.4,0c1.1,1,2.6,0,2.7-1.3c0.1-0.8-0.2-1.7-0.5-2.5c-0.2-0.6-0.4-1.2-0.7-1.8c-0.2-0.5-0.7-1-0.6-1.5
							c0-0.3,0.1-0.5,0.1-0.8c0-0.2,0-0.4,0.1-0.5c0.1-0.2,0.3-0.4,0.5-0.6c1-1.1,1.1-2.8,0.3-4c-0.1-0.1-0.2-0.2-0.3-0.2
							c0.1-1.2,0.1-2.3,0.3-3.5c0.2-1.1,0.8-2,1.3-3c0.5-1.1,0.7-2.2,0-3.3c-0.3-0.4,0.3-1.1,0.5-1.5c0.3-0.6,0.1-1.3,0.3-1.9
							c1-3.2,4-5,5.3-8C54.1,42.4,54.2,42.2,54.1,42.1z"/>
					</g>
				</g>
				<g>
					<g>
						<defs>
							<rect id="SVGID_20_" x="-3.8" y="-11.2" width="80.6" height="80.6"/>
						</defs>
						<clipPath id="SVGID_21_">
							<use xlink:href="#SVGID_20_"  style="overflow:visible;"/>
						</clipPath>
						<path class="st11" d="M38.9,33.6c0.2-1.9,0-3.9-0.5-5.8c-0.1-0.6-0.5-0.9-0.9-1c0,0,0,0,0-0.1c0-0.1,0-0.1,0.1-0.2
							c0.6-0.3,0.9-1,0.7-1.7c-0.2-0.6-0.8-1.1-1.4-1.1c-0.1,0-0.1-0.1-0.2-0.1c-0.1-0.1-0.3-0.1-0.4-0.2c0,0,0-0.1,0-0.1
							c-0.1-1.8-1.5-3.2-3.3-3.5c-1-0.1-1.9,0-2.8,0.3c-0.9,0.3-1.7,0.7-2.6,0.8c-0.8,0.1-1.5,0.6-1.5,1.5c0,0.1,0,0.2,0,0.2
							c-0.2,0.1-0.3,0.3-0.5,0.4c-0.7,0.5-1.1,1.3-0.9,2.2c0.2,0.9,0.9,1.3,1.7,1.5c-0.7,0-1.4,0.4-1.9,1.1c-0.7,1-1,2.4-0.8,3.6
							c0.3,1.4,1.3,2.3,2.5,2.9c-1.5-0.3-3.1,1.8-1.7,3.2c1.1,1.1,2.4,2,3.8,2.8c1.1,0.7,2.3,1.4,3.6,1.4c0.1,1.5,0.2,3,0.3,4.5
							c0.1,1.3,1.6,2,2.5,1.1c2.5-2.3,3.4-5.9,2.5-9.1c0-0.1-0.1-0.2-0.1-0.3C38.4,36.9,38.7,35.2,38.9,33.6z M27.2,34.9
							c-0.1-0.1-0.1-0.1-0.2-0.2c0.2,0.1,0.4,0.2,0.6,0.2c0.5,0.5,1.2,1,2,1.2c0,0.2-0.1,0.3-0.1,0.5C28.7,36.2,27.9,35.6,27.2,34.9
							z"/>
					</g>
				</g>
				<g>
					<g>
						<defs>
							<rect id="SVGID_22_" x="-3.8" y="-11.2" width="80.6" height="80.6"/>
						</defs>
						<clipPath id="SVGID_23_">
							<use xlink:href="#SVGID_22_"  style="overflow:visible;"/>
						</clipPath>
						<path class="st12" d="M34.4,30.2c-0.4-0.9-1.8,0.2-2.3,0.4c0,0-1.2-4.1-1.3-4.5c-0.2-0.7-0.6-1.1-1.4-1v0.1
							c0.1,0,0.3,0.1,0.3,0.2c0.4,1.7,0.5,3.5,0.3,5.2c0,0,0,0,0,0.1c0.3,0.7,1,0.7,1.7,0.4c0,0,0,0,0,0c0.3,0.1,0.7,0,1-0.1
							c0.1-0.1,1.1-0.7,1.2-0.6C34,30.9,34.6,30.6,34.4,30.2z"/>
					</g>
				</g>
				<g>
					<g>
						<defs>
							<rect id="SVGID_24_" x="-3.8" y="-11.2" width="80.6" height="80.6"/>
						</defs>
						<clipPath id="SVGID_25_">
							<use xlink:href="#SVGID_24_"  style="overflow:visible;"/>
						</clipPath>
						<path class="st13" d="M25.6,37.4c2,1.8,4.4,2.3,7.1,2.3c2-0.1,3.7-0.7,5.2-1.7c0-0.5-0.3-0.5-0.7-0.4
							c-0.9,0.2-1.8,0.3-2.6,0.4c0.3,0-1-2.5-1.2-2.7c0.6,0,1.2-0.2,1.7-0.5c0.1-0.1,0.2-0.2,0.2-0.3c0-0.1,0-0.3-0.1-0.3
							c-0.1,0-0.3,0.1-0.4,0.2c-0.3,0.3-0.8,0.4-1.3,0.4c-0.7,0.1-1.2-0.4-1.7-0.9c0,0,0.1,0.1,0.2,0c1.1-0.2,2.5-0.1,3.5-0.6
							c0.3-0.1,0-0.5-0.2-0.4c-0.5,0.2-1.1,0.3-1.7,0.3c-0.5,0.1-1.1,0.2-1.6,0.2c0.3-0.4,0.2-1-0.1-1.4c-0.1,0-0.3,0-0.4,0
							c0,0,0,0-0.1,0c-0.6-0.1-1,0.2-1.6-0.3c-0.6-0.5-0.5-1.1-0.4-1.8c0.1-2.1-0.7-3.7-1-5.7c-0.2-1-0.7-2.1-1.4-2.8
							c-0.3-0.3-0.7-0.6-1.2-0.5c-0.5,0.1-0.8,0.8-1.3,1c-0.4,0.2-0.8,0.4-1,0.7c-1,1,0,2.8-0.2,4c-0.3,1.5-0.3,3-0.2,4.5
							c0.1,1.6,0.4,3.1,0.6,4.6c0.2,1.3,0.5,2.9,0,4.1c-0.3,0.2-0.4,0.6-0.2,1c0.9,2.4,2.6,4.4,4.7,5.8c1.2,0.8,2.7,1.4,4.1,1.7
							c0.6,0.1,1.5,0.4,2.1,0.1c0.2-0.2,0.3-0.3,0.4-0.6c0.4-1.1,0.8-1.8,1.4-2.8c0.9-1.6,1.4-3.4,1.3-5.2c0-0.3-0.1-0.6-0.2-0.8
							c-1.4,0.7-2.9,1.1-4.5,1.2c-2.8,0.1-5.4-0.6-7.5-2.4C24.9,37.6,25.3,37.1,25.6,37.4z M25.1,29.8c-0.1-0.2-0.1-0.4,0.2-0.5
							c0.2-0.1,0.5,0,0.7,0c0.7,0.1,1.4,0,2.1-0.4c0.4-0.2,0.7-0.1,0.8,0.3c0.3,0.9,0.3,1.8,0.1,2.7c0,0.1-0.1,0.3-0.2,0.3
							c-0.2,0.1-0.4-0.1-0.6-0.3C28,31.9,25.5,30.6,25.1,29.8z"/>
					</g>
				</g>
				<g>
					<g>
						<defs>
							<rect id="SVGID_26_" x="-3.8" y="-11.2" width="80.6" height="80.6"/>
						</defs>
						<clipPath id="SVGID_27_">
							<use xlink:href="#SVGID_26_"  style="overflow:visible;"/>
						</clipPath>
						<path class="st14" d="M40,39.4c0-0.2,0-0.3-0.1-0.4c0-0.9-0.5-1.7-1.4-2c-0.6-0.2-0.8,0.7-0.3,0.9c0.4,0.2,0.8,0.7,0.7,1.1
							c0,0.1,0,0.2,0,0.4c-0.2,0.7-0.3,1.4-0.5,2.1c0,0,0,0,0,0c-1.4,2.5-3.2,4.6-4.1,7.3c-0.5,1.3-0.8,2.7-1.1,4.1
							c-0.2,1.1-0.9,2.8-0.7,3.9c-0.5-2.7-1.1-5.4-2.3-7.9c-0.8-1.6-1.8-3-3.2-4.1c-0.7-0.6-1.5-1-2.1-1.5c-0.7-0.7-1-1.9-1.5-2.8
							c-0.3-0.5-1.1,0-0.8,0.5c0.7,1.2,1.2,2.7,2.4,3.5c0.2,0.1,0.3,0.2,0.4,0.3c0.6,0.7,0.8,2.3,1,3.2c0.3,1.3,0.5,2.5,0.7,3.8
							c0.4,2.6,0.5,5.2,0.8,7.8c0.4,5.1,1.1,10.3,2.1,15.3c0.2,1.3,0.6,4.6,2.8,3.6c1.1-0.5,0.8-1.6,0.7-2.5
							c-0.1-1.3-0.2-2.5-0.2-3.8c-0.1-2.5-0.2-5.1-0.2-7.6c0.1-5,0.6-10.1,2.3-14.9c0.5-1.4,1-2.8,1.7-4.1c0,0,0,0,0-0.1
							c0.4-0.5,0.7-1,1.1-1.5c-0.6,3.3-0.9,6.6-1.1,10c-0.1,2.5,0,5.1,0.1,7.6c0.2,2.5,0.5,5,0.8,7.4c0.3,2.9,0.3,5.8-0.5,8.6
							c-0.2,0.6,0.7,0.8,0.9,0.3c1.3-4.8,0.3-9.8-0.1-14.7c-0.5-5-0.4-10.1,0.2-15.2C38.7,45.3,39.2,42.3,40,39.4z M32.4,77.7
							c-0.7,0.8-1.2-0.8-1.3-1.2c-0.2-0.7-0.3-1.5-0.4-2.2c-0.3-1.4-0.5-2.8-0.7-4.2c-0.4-2.9-0.8-5.9-1.1-8.9
							c-0.5-5.1-0.4-10.5-2.2-15.5c0.2,0.2,0.4,0.3,0.5,0.6c0.1,0.1,0.2,0.2,0.2,0.2C30.6,50,31.4,55,32,59.6c0,0.1,0.1,0.2,0.2,0.3
							c-0.5,5.9-0.1,11.9,0.3,17.7C32.5,77.6,32.4,77.6,32.4,77.7z"/>
					</g>
				</g>
				<g>
					<g>
						<defs>
							<rect id="SVGID_28_" x="-3.8" y="-11.2" width="80.6" height="80.6"/>
						</defs>
						<clipPath id="SVGID_29_">
							<use xlink:href="#SVGID_28_"  style="overflow:visible;"/>
						</clipPath>
						<path class="st15" d="M45.1,23.5c0-0.3-0.2-0.7-0.3-0.9c-0.2-0.4-0.5-0.7-0.8-0.9c0,0,0,0,0,0c0.4-0.8,0.1-1.7-0.6-2.1
							c0.1-0.2,0.2-0.3,0.3-0.5c0.5-0.9-0.1-2.3-1.3-2.2c-0.1,0-0.2,0-0.3,0c0-0.5-0.5-1.1-0.9-1.2c0-0.5-0.3-1-0.8-1.2
							c-0.1-0.6-0.4-1.1-1.1-1.2c-0.1,0-0.1,0-0.2,0c0.1-0.8-0.7-1.6-1.5-1.7c-0.5-0.1-1.1-0.1-1.6-0.2c0,0,0-0.1,0-0.1
							c-0.1-0.6-0.8-1.2-1.4-1.1c-0.2,0-0.4,0-0.5,0.1c-0.3-0.6-0.9-1.1-1.8-1.1c-0.1,0-0.1,0-0.2,0c-0.3-0.3-0.8-0.5-1.3-0.5
							c-0.6,0-1,0.2-1.3,0.5C29.3,9.1,29.1,9,29,8.9c-0.8-0.7-1.9-0.5-2.4,0.4C26,8.4,24.7,8.2,24,9.3c0,0,0,0.1-0.1,0.1
							c-0.1,0-0.1,0-0.2,0c-0.5,0-0.9,0.2-1.3,0.4c-0.7-0.2-1.6,0.3-1.9,1.1c0,0.1-0.1,0.2-0.1,0.3c0,0-0.1,0-0.1,0
							c-0.7,0-1.2,0.3-1.5,0.7c-0.7,0-1.3,0.5-1.5,1.1c0,0,0,0.1,0,0.1c-0.7,0.1-1.2,0.5-1.4,1c-0.6,0.2-1.1,0.8-1.1,1.4
							c0,0.1,0,0.1,0,0.2C14.4,16,14,16.4,13.8,17c-0.4,0.2-0.7,0.5-0.7,0.9c0,0.1-0.1,0.3-0.1,0.4c-0.5,0.2-0.9,0.6-1.1,1
							c-0.5,0.2-0.9,0.7-0.8,1.3c0,0.1,0,0.3,0.1,0.4c0,0,0,0,0,0c0,0.2,0,0.3,0,0.5c-0.8,0.4-1.2,1.3-1.1,2.1
							c-0.7,0.5-0.9,1.4-0.7,2.2C9.2,26.6,9,27.3,9,28c0,0.8,0.7,1.4,1.4,1.5c0,0,0,0.1,0,0.1c0,0.2,0,0.4,0,0.6
							c-0.1,0.6,0.1,1.2,0.5,1.7c0,0.1,0,0.2,0.1,0.3c0,0.4,0.2,0.8,0.5,1.1c-0.1,0.2-0.1,0.3-0.1,0.5c-0.2,0.6,0.1,1.2,0.6,1.6
							c0,0.9,0.8,1.8,1.8,1.5c0.3-0.1,0.5-0.2,0.8-0.2c0,0,0.1,0,0.3,0c-0.3,0.9,0.4,2,1.4,2c-0.1,1,0.8,1.8,1.9,1.6
							c0.4-0.1,0.8-0.1,1.1-0.2c0.9,0.7,2.6,0.9,3.7,0.7c1.2-0.2,2.3-1.2,2.5-2.4c0.1-0.7-0.1-1.3-0.3-1.9c-0.2-0.7-0.4-1.4-0.6-2
							c-1-3.6-2.6-9.6,1-12.2c0.3-0.2,0.5-0.3,0.8-0.5c0.2-0.1,0.3-0.2,0.4-0.4c1.1-0.3,2.2-0.5,3.3-0.7c0.9-0.1,1.9-0.2,2.8-0.1
							c0.7,0.1,1.2,0.6,1.5,1.2c1,1.5,1.8,3.3,2.5,4.9c0.6,1.3,1.2,2.6,1.7,4c0,0,0,0,0,0.1c0.2,1,0.3,2.1,0.3,3.1
							c-0.2,0.8-0.3,1.6-0.5,2.4c-0.1,0.3,0.3,0.4,0.5,0.1c0.3-0.8,0.9-1.2,1.5-1.9c0.2-0.2,0.3-0.5,0.3-0.7c0,0,0.1,0,0.1-0.1
							c0-0.1,0.1-0.1,0.1-0.1c0.2-0.1,0.4-0.2,0.6-0.4c0.2-0.1,0.5-0.3,0.6-0.6c0.4-0.5,0.7-1.1,1-1.7c1-0.2,1.4-1.1,1.3-2
							c0.6-0.5,0.8-1.3,0.5-2c0.2-0.5,0.5-1,0.8-1.6C46,24.7,45.7,23.9,45.1,23.5z M39.2,35c0-0.1,0-0.2,0.1-0.2c0.1,0,0.1,0,0.2,0
							C39.3,34.9,39.2,35,39.2,35z"/>
					</g>
				</g>
				<g>
					<g>
						<defs>
							<rect id="SVGID_30_" x="-3.8" y="-11.2" width="80.6" height="80.6"/>
						</defs>
						<clipPath id="SVGID_31_">
							<use xlink:href="#SVGID_30_"  style="overflow:visible;"/>
						</clipPath>
						<path class="st16" d="M53.3,42.5c-1.2-2.3-2.5-4.2-5.1-5c-2.7-0.8-5.6-0.9-8.3-0.3c-0.6,0.1-0.7,0.7-0.5,1.1
							c-0.1,0.5,0.2,1,0.8,1.1c2.3,0,4.7,0.5,6.8,1.4c0.1,0.1,0.2,0.1,0.3,0.2c-0.1,0-0.3,0-0.4,0.1c-0.3,0.1-0.6,0.2-0.9,0.4
							c-0.4,0.3-0.7,0.7-1.2,0.6c-0.7-0.1-1-0.9-1.7-0.9c-0.6,0-1.1,0.3-1.4,0.8c0,0.1,0.1,0.2,0.1,0.1c0.3-0.6,1.2-0.9,1.8-0.5
							c0.4,0.3,0.8,0.8,1.3,0.7c0.6,0,1-0.7,1.5-0.9c0.3-0.2,0.7-0.2,1-0.2c0.4,0.3,0.8,0.6,1.2,1c0.3,0.3,0.7,0.3,1,0.1
							c0.6,0.4,1.2,0.8,1.7,1.2c0.2,0.1,0.4,0.2,0.6,0.2C52.6,44.2,53.8,43.4,53.3,42.5z"/>
					</g>
				</g>
				<g>
					<g>
						<defs>
							<rect id="SVGID_32_" x="-3.8" y="-11.2" width="80.6" height="80.6"/>
						</defs>
						<clipPath id="SVGID_33_">
							<use xlink:href="#SVGID_32_"  style="overflow:visible;"/>
						</clipPath>
						<path class="st17" d="M22.2,41.9c-0.1-0.2-0.2-0.4-0.3-0.6c-0.7-1.1-6-0.4-6,1c-0.1,1.4,4.9,1,5.8,1
							C22.7,43.4,22.5,42.5,22.2,41.9z"/>
					</g>
				</g>
				<g>
					<g>
						<defs>
							<rect id="SVGID_34_" x="-3.8" y="-11.2" width="80.6" height="80.6"/>
						</defs>
						<clipPath id="SVGID_35_">
							<use xlink:href="#SVGID_34_"  style="overflow:visible;"/>
						</clipPath>
						<path class="st18" d="M43.1,30.6c-0.3,0.3-0.5,0.7-0.7,1.1c-0.1,0.3-0.2,0.6-0.3,0.9c-0.2,0.4-0.5,0.5-0.9,0.7
							c-0.6,0.4-0.8,0.9-1.1,1.6c-0.2,0.4-0.5,0.8-0.9,0.9c-0.2,0-0.4,0.1-0.4,0.2c0,0.1,0,0.1,0,0.2c0,0.2-0.2,0.3-0.4,0.3
							c-0.7-0.1,0.2-1.9,0.2-2.6c0.1-1.1,0-2.2-0.2-3.3c0,0,0-0.1,0-0.1c0,0,0,0,0,0c-0.7-1.7-1.5-3.3-2.2-5c0,0,0,0,0-0.1
							c-0.7-1.9-1.5-3.8-3.2-5c-0.2-0.2-0.5,0.2-0.2,0.4c1.6,1.1,2.3,2.9,3,4.6c0,0,0,0.1,0,0.1c0.8,1.7,1.5,3.4,2.3,5.1
							c0.1,1,0.3,2,0.2,3c-0.1,1.1-0.5,1.8-0.9,2.7c0,0.1,0,0.1,0,0.2c0,0,0.1,0.1,0.1,0.1c0.5,0.1,1.4,0.5,1.8-0.1
							c0.1-0.1,0-0.2,0-0.2c0.5-0.2,0.9-0.4,1.1-0.8c0.1-0.2,0.2-0.4,0.3-0.6c0.2-0.5,0.3-0.9,0.8-1.2c0.4-0.3,0.8-0.5,1.1-1
							c0.3-0.6,0.3-1.4,0.9-1.9C43.7,30.7,43.4,30.4,43.1,30.6z"/>
					</g>
				</g>
				<g>
					<g>
						<defs>
							<rect id="SVGID_36_" x="-3.8" y="-11.2" width="80.6" height="80.6"/>
						</defs>
						<clipPath id="SVGID_37_">
							<use xlink:href="#SVGID_36_"  style="overflow:visible;"/>
						</clipPath>
						<path class="st19" d="M33.3,10.2c-0.3,0.1-0.4,0.3-0.6,0.5c-0.5,0.4-0.9-0.2-1.3-0.3c-0.5-0.2-1,0.1-1.3,0.5
							c0,0.1,0.1,0.2,0.1,0.1c0.2-0.4,0.6-0.6,1.1-0.5c0.3,0.1,0.5,0.3,0.8,0.4c0.6,0.2,0.8-0.4,1.3-0.6
							C33.4,10.4,33.4,10.2,33.3,10.2z"/>
					</g>
				</g>
				<g>
					<g>
						<defs>
							<rect id="SVGID_38_" x="-3.8" y="-11.2" width="80.6" height="80.6"/>
						</defs>
						<clipPath id="SVGID_39_">
							<use xlink:href="#SVGID_38_"  style="overflow:visible;"/>
						</clipPath>
						<path class="st20" d="M37.5,13.1c-0.4-0.1-0.8-0.2-1.1,0.1c-0.3,0.3-0.4,1-1,0.9c-0.3-0.1-0.5-0.3-0.7-0.4
							c-0.2-0.1-0.3-0.1-0.5-0.1c-0.4,0-0.7,0.3-0.9,0.6c0,0.1,0.1,0.2,0.1,0.1c0.3-0.6,1-0.6,1.5-0.3c0.2,0.2,0.5,0.3,0.8,0.3
							c0.2-0.1,0.4-0.3,0.5-0.5c0.1-0.2,0.2-0.3,0.3-0.5c0.3-0.3,0.6-0.2,1-0.1C37.6,13.3,37.6,13.1,37.5,13.1z"/>
					</g>
				</g>
				<g>
					<g>
						<defs>
							<rect id="SVGID_40_" x="-3.8" y="-11.2" width="80.6" height="80.6"/>
						</defs>
						<clipPath id="SVGID_41_">
							<use xlink:href="#SVGID_40_"  style="overflow:visible;"/>
						</clipPath>
						<path class="st21" d="M40.9,16c-0.2,0.1-0.5,0.3-0.8,0.3c-0.3,0-0.4-0.2-0.6-0.3c-0.3-0.2-0.6-0.2-0.9-0.3
							c-0.3,0-0.5,0-0.7,0.2c-0.2,0.2-0.3,0.4-0.5,0.5c-0.3,0.1-0.6,0-0.8-0.1c-0.1-0.1-0.2,0-0.1,0.1c0.2,0.2,0.5,0.3,0.8,0.2
							c0.5-0.1,0.7-0.7,1.2-0.7c0.3,0,0.7,0.1,0.9,0.2c0.2,0.1,0.3,0.2,0.5,0.3c0.4,0.1,0.8-0.1,1.1-0.2C41.1,16.1,41,16,40.9,16z"
							/>
					</g>
				</g>
				<g>
					<g>
						<defs>
							<rect id="SVGID_42_" x="-3.8" y="-11.2" width="80.6" height="80.6"/>
						</defs>
						<clipPath id="SVGID_43_">
							<use xlink:href="#SVGID_42_"  style="overflow:visible;"/>
						</clipPath>
						<path class="st22" d="M42,18.1c-0.4,0.3-0.9,0.4-1.3,0.1c-0.3-0.2-0.5-0.4-0.8-0.4c-0.3,0-0.6,0.1-0.8,0.2
							c-0.4,0.3-0.9,0.4-1.4,0.2c-0.1-0.1-0.2,0.1-0.1,0.1c0.3,0.2,0.7,0.2,1,0.1c0.6-0.2,0.9-0.8,1.6-0.4c0.4,0.2,0.6,0.5,1,0.5
							c0.3,0,0.7-0.1,0.9-0.3C42.2,18.2,42,18.1,42,18.1z"/>
					</g>
				</g>
				<g>
					<g>
						<defs>
							<rect id="SVGID_44_" x="-3.8" y="-11.2" width="80.6" height="80.6"/>
						</defs>
						<clipPath id="SVGID_45_">
							<use xlink:href="#SVGID_44_"  style="overflow:visible;"/>
						</clipPath>
						<path class="st23" d="M43.2,20.4c-0.2,0.2-0.5,0.3-0.8,0.3c-0.2,0-0.4-0.1-0.6-0.2c-0.2-0.1-0.4-0.3-0.7-0.3
							c-0.3,0-0.5,0.1-0.8,0.3c-0.5,0.3-1,0.4-1.5,0.1c-0.1-0.1-0.2,0.1-0.1,0.1c0.3,0.2,0.7,0.3,1.1,0.1c0.4-0.1,0.8-0.6,1.3-0.6
							c0.4,0.1,0.7,0.4,1,0.5c0.4,0.1,0.8-0.1,1.1-0.3C43.4,20.4,43.3,20.3,43.2,20.4z"/>
					</g>
				</g>
				<g>
					<g>
						<defs>
							<rect id="SVGID_46_" x="-3.8" y="-11.2" width="80.6" height="80.6"/>
						</defs>
						<clipPath id="SVGID_47_">
							<use xlink:href="#SVGID_46_"  style="overflow:visible;"/>
						</clipPath>
						<path class="st24" d="M44.2,22.4c-0.4,0.3-1,0.7-1.5,0.3c-0.2-0.2-0.5-0.4-0.7-0.4c-0.3,0-0.5,0.1-0.7,0.2
							c-0.4,0.3-1,0.4-1.4,0.1c-0.1-0.1-0.2,0-0.1,0.1c0.2,0.2,0.5,0.3,0.9,0.2c0.5-0.1,1-0.6,1.5-0.4c0.4,0.2,0.6,0.5,1,0.5
							c0.4,0,0.8-0.3,1.2-0.5C44.3,22.4,44.2,22.3,44.2,22.4z"/>
					</g>
				</g>
				<g>
					<g>
						<defs>
							<rect id="SVGID_48_" x="-3.8" y="-11.2" width="80.6" height="80.6"/>
						</defs>
						<clipPath id="SVGID_49_">
							<use xlink:href="#SVGID_48_"  style="overflow:visible;"/>
						</clipPath>
						<path class="st25" d="M44.6,24.1c-0.4,0.2-0.7,0.5-1.1,0.7c-0.2,0.1-0.4,0.3-0.6,0.3c-0.3,0.1-0.5,0-0.8-0.2
							c-0.5-0.3-1-0.3-1.5,0c-0.1,0.1,0,0.2,0.1,0.1c0.4-0.2,0.8-0.3,1.3-0.1c0.2,0.1,0.5,0.3,0.8,0.3c0.3,0,0.6-0.2,0.8-0.4
							c0.4-0.2,0.8-0.5,1.1-0.7C44.8,24.2,44.7,24,44.6,24.1z"/>
					</g>
				</g>
				<g>
					<g>
						<defs>
							<rect id="SVGID_50_" x="-3.8" y="-11.2" width="80.6" height="80.6"/>
						</defs>
						<clipPath id="SVGID_51_">
							<use xlink:href="#SVGID_50_"  style="overflow:visible;"/>
						</clipPath>
						<path class="st26" d="M50.6,43.1c-0.6-0.3-1.4-0.4-2.1-0.2c-0.3,0.1-0.6,0.2-0.8,0.4c-0.4,0.3-0.6,0.8-1.1,1
							c-0.9,0.3-1.7-0.6-2.6-0.7c-0.5-0.1-1,0.1-1.3,0.6c0,0.1,0.1,0.1,0.2,0c0.3-0.7,1.3-0.5,1.9-0.2c0.6,0.3,1.3,0.7,1.9,0.4
							c0.3-0.1,0.5-0.3,0.7-0.6c0.2-0.3,0.5-0.5,0.9-0.7c0.7-0.3,1.6-0.3,2.3,0.1C50.7,43.3,50.7,43.1,50.6,43.1z"/>
					</g>
				</g>
				<g>
					<g>
						<defs>
							<rect id="SVGID_52_" x="-3.8" y="-11.2" width="80.6" height="80.6"/>
						</defs>
						<clipPath id="SVGID_53_">
							<use xlink:href="#SVGID_52_"  style="overflow:visible;"/>
						</clipPath>
						<path class="st27" d="M52.4,45.2c-1.3-0.3-2.8-0.6-3.9,0.4c-0.6,0.5-1.1,1.3-2,1c-0.3-0.1-0.7-0.3-1-0.3
							c-0.4-0.1-0.8,0-1.2,0.2c-0.1,0-0.1,0.2,0,0.2c0.5-0.2,0.9-0.2,1.4-0.1c0.4,0.1,0.7,0.3,1.1,0.4c0.5,0.1,1-0.3,1.3-0.6
							c0.6-0.6,1.1-1,1.9-1.1c0.8-0.1,1.6,0.1,2.3,0.3C52.4,45.4,52.5,45.3,52.4,45.2z"/>
					</g>
				</g>
				<g>
					<g>
						<defs>
							<rect id="SVGID_54_" x="-3.8" y="-11.2" width="80.6" height="80.6"/>
						</defs>
						<clipPath id="SVGID_55_">
							<use xlink:href="#SVGID_54_"  style="overflow:visible;"/>
						</clipPath>
						<path class="st28" d="M55.6,47.6c-0.7,0.4-1.2-0.5-1.7-0.8c-0.3-0.2-0.7-0.2-1-0.2c-0.9,0.2-1.7,1.2-2.6,0.9
							c-0.1,0-0.1,0.1,0,0.2h0c-0.2,0.2-0.6-0.2-0.8-0.3c-0.1-0.1-0.3-0.2-0.5-0.2c-0.4-0.1-0.8,0.1-1.2,0.3c-0.9,0.4-2,1.6-3,1
							c-0.1-0.1-0.2,0.1-0.1,0.1c1,0.6,2-0.3,2.9-0.8c0.6-0.4,1.3-0.6,1.9-0.2c0.3,0.2,0.7,0.5,0.9,0.2c0,0,0,0,0,0
							c0.9,0.1,1.6-0.7,2.5-0.9c0.8-0.2,1.1,0.3,1.7,0.8c0.3,0.3,0.8,0.5,1.2,0.2C55.8,47.7,55.7,47.6,55.6,47.6z"/>
					</g>
				</g>
				<g>
					<g>
						<defs>
							<rect id="SVGID_56_" x="-3.8" y="-11.2" width="80.6" height="80.6"/>
						</defs>
						<clipPath id="SVGID_57_">
							<use xlink:href="#SVGID_56_"  style="overflow:visible;"/>
						</clipPath>
						<path class="st29" d="M56.3,50.6c-0.5-0.5-1.1-1-1.8-0.9c-0.8,0.2-0.9,1.2-1.6,1.4c-0.9,0.3-1.7-0.7-2.5-0.9
							c-0.8-0.3-1.7,0.1-2.4,0.5c-0.1,0.1,0,0.2,0.1,0.1c0.9-0.5,1.7-0.9,2.7-0.3c0.6,0.3,1.2,0.8,1.9,0.8c0.6,0,0.8-0.5,1.2-0.9
							c0.7-1,1.7-0.3,2.4,0.4C56.3,50.8,56.4,50.7,56.3,50.6z"/>
					</g>
				</g>
				<g>
					<g>
						<defs>
							<rect id="SVGID_58_" x="-3.8" y="-11.2" width="80.6" height="80.6"/>
						</defs>
						<clipPath id="SVGID_59_">
							<use xlink:href="#SVGID_58_"  style="overflow:visible;"/>
						</clipPath>
						<path class="st30" d="M57,53.4c-0.5-0.6-1.2-0.9-2-0.8c-0.8,0.1-1.4,0.8-2.1,1.1c-1,0.5-1.7-0.6-2.6-0.8
							c-0.8-0.2-1.7-0.1-2.3,0.4c-0.1,0.1,0,0.2,0.1,0.1c0.7-0.6,1.8-0.7,2.6-0.3c0.6,0.3,1.1,1,1.9,0.8c0.7-0.1,1.2-0.8,1.8-1.1
							c0.8-0.4,1.9-0.1,2.4,0.6C57,53.6,57.1,53.5,57,53.4z"/>
					</g>
				</g>
				<g>
					<g>
						<defs>
							<rect id="SVGID_60_" x="-3.8" y="-11.2" width="80.6" height="80.6"/>
						</defs>
						<clipPath id="SVGID_61_">
							<use xlink:href="#SVGID_60_"  style="overflow:visible;"/>
						</clipPath>
						<path class="st31" d="M58.1,56c-0.8,0.9-2.1-0.2-2.9-0.5c-0.4-0.2-0.8-0.3-1.3-0.1c-0.3,0.1-0.6,0.4-0.9,0.6
							c-0.5,0.4-1,0.6-1.5,0.3c-0.4-0.2-0.7-0.5-1.1-0.6c-0.8-0.3-1.6,0-2.1,0.6c-0.1,0.1,0,0.2,0.1,0.1c0.3-0.4,0.9-0.7,1.4-0.7
							c0.5,0,0.9,0.3,1.4,0.6c0.3,0.2,0.7,0.4,1.1,0.3c0.3-0.1,0.6-0.3,0.9-0.5c0.5-0.4,0.9-0.7,1.5-0.6c0.5,0.1,1,0.4,1.5,0.7
							c0.6,0.3,1.5,0.5,2,0C58.3,56.1,58.1,56,58.1,56z"/>
					</g>
				</g>
				<g>
					<g>
						<defs>
							<rect id="SVGID_62_" x="-3.8" y="-11.2" width="80.6" height="80.6"/>
						</defs>
						<clipPath id="SVGID_63_">
							<use xlink:href="#SVGID_62_"  style="overflow:visible;"/>
						</clipPath>
						<path class="st32" d="M58.6,57.9c-0.5,0.4-1,0.8-1.7,0.9c-0.7,0.1-1.2-0.2-1.7-0.6c-0.4-0.2-0.8-0.3-1.3-0.3
							c-0.5,0.1-0.9,0.4-1.4,0.6c-0.2,0.2-0.5,0.3-0.8,0.3c-0.3,0-0.6-0.2-0.8-0.3c-0.3-0.2-0.7-0.4-1.1-0.4c-0.8-0.1-1.6,0.3-2,1
							c-0.1,0.1,0.1,0.2,0.1,0.1c0.6-0.9,1.9-1.2,2.8-0.6c0.4,0.2,0.7,0.5,1.1,0.5c0.4-0.1,0.7-0.3,1.1-0.5c0.5-0.4,1.1-0.5,1.7-0.4
							c0.5,0.1,0.9,0.6,1.4,0.7c1,0.3,1.9-0.4,2.7-0.9C58.8,58,58.7,57.9,58.6,57.9z"/>
					</g>
				</g>
				<g>
					<g>
						<defs>
							<rect id="SVGID_64_" x="-3.8" y="-11.2" width="80.6" height="80.6"/>
						</defs>
						<clipPath id="SVGID_65_">
							<use xlink:href="#SVGID_64_"  style="overflow:visible;"/>
						</clipPath>
						<path class="st33" d="M59.3,60.6c-0.8,0.8-1.8,1.7-2.9,1.2c-0.7-0.3-1.3-0.8-2-0.5c-0.8,0.3-1.3,1.1-2.2,0.7
							c-0.7-0.3-1.3-1-2.1-0.6c-0.1,0,0,0.2,0.1,0.1c1-0.4,1.7,0.8,2.6,0.8c0.8,0,1.2-0.9,2-0.9c0.5,0,0.9,0.3,1.3,0.5
							c0.4,0.2,0.7,0.3,1.1,0.2c0.9-0.1,1.6-0.7,2.2-1.3C59.5,60.6,59.4,60.5,59.3,60.6z"/>
					</g>
				</g>
				<g>
					<g>
						<defs>
							<rect id="SVGID_66_" x="-3.8" y="-11.2" width="80.6" height="80.6"/>
						</defs>
						<clipPath id="SVGID_67_">
							<use xlink:href="#SVGID_66_"  style="overflow:visible;"/>
						</clipPath>
						<path class="st34" d="M59.8,63.8c-0.8,0-1.1,0.8-1.8,1c-0.8,0.2-1.6-0.5-2.3-0.8c-0.8-0.3-1.3,0.1-2,0.5
							c-0.5,0.3-1,0.4-1.5,0.2c-0.5-0.2-0.9-0.4-1.4-0.6c-0.1,0-0.1,0.1,0,0.2c0.8,0.3,1.7,1,2.6,0.6c0.4-0.1,0.7-0.4,1-0.6
							c0.5-0.3,0.9-0.3,1.4-0.1c0.6,0.3,1.3,0.8,2,0.8c0.8-0.1,1.2-1,2-1C59.9,64,59.9,63.8,59.8,63.8z"/>
					</g>
				</g>
				<g>
					<g>
						<defs>
							<rect id="SVGID_68_" x="-3.8" y="-11.2" width="80.6" height="80.6"/>
						</defs>
						<clipPath id="SVGID_69_">
							<use xlink:href="#SVGID_68_"  style="overflow:visible;"/>
						</clipPath>
						<path class="st35" d="M60.1,63.8c-0.1,0-0.1,0.2,0,0.2C60.1,63.9,60.1,63.8,60.1,63.8z"/>
					</g>
				</g>
				<g>
					<g>
						<defs>
							<rect id="SVGID_70_" x="-3.8" y="-11.2" width="80.6" height="80.6"/>
						</defs>
						<clipPath id="SVGID_71_">
							<use xlink:href="#SVGID_70_"  style="overflow:visible;"/>
						</clipPath>
						<path class="st36" d="M60.5,66.1c-0.6,0.4-1.3,0.9-2,1.2c-0.8,0.2-1.4-0.2-2-0.6c-0.4-0.2-0.8-0.4-1.3-0.2
							c-0.3,0.1-0.5,0.3-0.8,0.4c-0.4,0.2-0.9,0.3-1.3,0.3c-0.1,0-0.1,0.2,0,0.2c0.7,0,1.3-0.3,1.9-0.6c0.7-0.4,1.4,0.1,2,0.4
							c0.5,0.3,1,0.4,1.6,0.2c0.7-0.2,1.4-0.7,2-1.1C60.7,66.2,60.6,66,60.5,66.1z"/>
					</g>
				</g>
				<g>
					<g>
						<defs>
							<rect id="SVGID_72_" x="-3.8" y="-11.2" width="80.6" height="80.6"/>
						</defs>
						<clipPath id="SVGID_73_">
							<use xlink:href="#SVGID_72_"  style="overflow:visible;"/>
						</clipPath>
						<path class="st37" d="M61.4,69.2c-0.4-0.5-1-0.2-1.5,0c-0.8,0.5-1.8,0.7-2.7,0.2c-0.5-0.3-1.1-0.7-1.7-0.5
							c-0.6,0.2-1.2,0.8-1.9,0.7c-0.1,0-0.1,0.1,0,0.2c0.5,0.1,1-0.2,1.4-0.4c0.3-0.2,0.7-0.4,1.1-0.3c0.4,0,0.8,0.3,1.1,0.5
							c0.6,0.3,1.2,0.4,1.8,0.3c0.3-0.1,0.6-0.2,0.9-0.4c0.4-0.2,1-0.6,1.4-0.1C61.3,69.4,61.4,69.3,61.4,69.2z"/>
					</g>
				</g>
			</g>
		</g>
	</g>
</g>
</svg>
