<?xml version="1.0" encoding="utf-8"?>
<!-- Generator: Adobe Illustrator 23.0.2, SVG Export Plug-In . SVG Version: 6.00 Build 0)  -->
<svg version="1.1" id="Layer_1" xmlns="http://www.w3.org/2000/svg" xmlns:xlink="http://www.w3.org/1999/xlink" x="0px" y="0px"
	 viewBox="0 0 993.5 726" style="enable-background:new 0 0 993.5 726;" xml:space="preserve">
<style type="text/css">
	.st0{fill:none;stroke:#443D4A;stroke-width:18;stroke-miterlimit:10;}
	.st1{fill:#443D4A;}
	.st2{clip-path:url(#SVGID_2_);fill:none;stroke:#443D4A;stroke-width:2.6499;stroke-miterlimit:10;}
	.st3{clip-path:url(#SVGID_4_);fill:none;stroke:#443D4A;stroke-width:2.6499;stroke-miterlimit:10;}
	.st4{clip-path:url(#SVGID_6_);fill:none;stroke:#443D4A;stroke-width:2.6499;stroke-miterlimit:10;}
	.st5{clip-path:url(#SVGID_8_);fill:none;stroke:#443D4A;stroke-width:2.6499;stroke-miterlimit:10;}
	.st6{clip-path:url(#SVGID_10_);fill:none;stroke:#443D4A;stroke-width:2.6499;stroke-miterlimit:10;}
	.st7{clip-path:url(#SVGID_12_);fill:none;stroke:#443D4A;stroke-width:2.6499;stroke-miterlimit:10;}
	.st8{clip-path:url(#SVGID_14_);fill:none;stroke:#443D4A;stroke-width:2.6499;stroke-miterlimit:10;}
	.st9{clip-path:url(#SVGID_16_);fill:none;stroke:#443D4A;stroke-width:2.6499;stroke-miterlimit:10;}
	.st10{clip-path:url(#SVGID_18_);fill:none;stroke:#443D4A;stroke-width:2.6499;stroke-miterlimit:10;}
	.st11{clip-path:url(#SVGID_20_);fill:none;stroke:#443D4A;stroke-width:2.6499;stroke-miterlimit:10;}
</style>
<g>
	<path class="st0" d="M24.6,72.2c0,0,75.8-1.3,113.1,98.4s78.5,115.7,122.4,73.2s57.2-6.6,38.6,33.2C280,316.9,85.8,708,85.8,708
		l-19.9-51.4L24.6,72.2z"/>
	<polygon class="st1" points="298.6,277 155.6,690.6 55.9,680 	"/>
	<path class="st1" d="M65.8,656.6l-24.9,15.5V724c0,0,62.8,25.9,130.7,0v-48.9l-31.9-18.5"/>
	<path class="st1" d="M20,112.4L0,52.6c0,0,39.9-8,55.9,0s57.8,16.4,86.8,100.8s58.2,116.1,117.4,90.4c0,0-47.8,70-94.3-4.7
		C113.1,154.6,65.2,100.8,20,112.4z"/>
</g>
<g id="Layer_3">
</g>
<g id="Layer_4">
	<g>
		<g>
			<g>
				<g>
					<defs>
						<path id="SVGID_1_" d="M29.9,84.5c0,0,93.9,26.2,135.8,144.7c11.5,37.9,69.3,48.9,112.9,0c37.6-21.9,39.1,22.3,11.9,71.2
							S85.8,677.1,85.8,677.1h-18L29.9,84.5z"/>
					</defs>
					<clipPath id="SVGID_2_">
						<use xlink:href="#SVGID_1_"  style="overflow:visible;"/>
					</clipPath>
					<line class="st2" x1="59.1" y1="111.4" x2="98.1" y2="651"/>
				</g>
			</g>
		</g>
		<g>
			<g>
				<g>
					<defs>
						<path id="SVGID_3_" d="M29.9,84.5c0,0,93.9,26.2,135.8,144.7c11.5,37.9,69.3,48.9,112.9,0c37.6-21.9,39.1,22.3,11.9,71.2
							S85.8,677.1,85.8,677.1h-18L29.9,84.5z"/>
					</defs>
					<clipPath id="SVGID_4_">
						<use xlink:href="#SVGID_3_"  style="overflow:visible;"/>
					</clipPath>
					<line class="st3" x1="84" y1="109.6" x2="123" y2="649.2"/>
				</g>
			</g>
		</g>
		<g>
			<g>
				<g>
					<defs>
						<path id="SVGID_5_" d="M29.9,84.5c0,0,93.9,26.2,135.8,144.7c11.5,37.9,69.3,48.9,112.9,0c37.6-21.9,39.1,22.3,11.9,71.2
							S85.8,677.1,85.8,677.1h-18L29.9,84.5z"/>
					</defs>
					<clipPath id="SVGID_6_">
						<use xlink:href="#SVGID_5_"  style="overflow:visible;"/>
					</clipPath>
					<line class="st4" x1="108.7" y1="105.4" x2="147.7" y2="645"/>
				</g>
			</g>
		</g>
		<g>
			<g>
				<g>
					<defs>
						<path id="SVGID_7_" d="M29.9,84.5c0,0,93.9,26.2,135.8,144.7c11.5,37.9,69.3,48.9,112.9,0c37.6-21.9,39.1,22.3,11.9,71.2
							S85.8,677.1,85.8,677.1h-18L29.9,84.5z"/>
					</defs>
					<clipPath id="SVGID_8_">
						<use xlink:href="#SVGID_7_"  style="overflow:visible;"/>
					</clipPath>
					<line class="st5" x1="133.5" y1="103.6" x2="172.5" y2="643.3"/>
				</g>
			</g>
		</g>
		<g>
			<g>
				<g>
					<defs>
						<path id="SVGID_9_" d="M29.9,84.5c0,0,93.9,26.2,135.8,144.7c11.5,37.9,69.3,48.9,112.9,0c37.6-21.9,39.1,22.3,11.9,71.2
							S85.8,677.1,85.8,677.1h-18L29.9,84.5z"/>
					</defs>
					<clipPath id="SVGID_10_">
						<use xlink:href="#SVGID_9_"  style="overflow:visible;"/>
					</clipPath>
					<line class="st6" x1="158.2" y1="99.4" x2="197.2" y2="639.1"/>
				</g>
			</g>
		</g>
		<g>
			<g>
				<g>
					<defs>
						<path id="SVGID_11_" d="M29.9,84.5c0,0,93.9,26.2,135.8,144.7c11.5,37.9,69.3,48.9,112.9,0c37.6-21.9,39.1,22.3,11.9,71.2
							S85.8,677.1,85.8,677.1h-18L29.9,84.5z"/>
					</defs>
					<clipPath id="SVGID_12_">
						<use xlink:href="#SVGID_11_"  style="overflow:visible;"/>
					</clipPath>
					<line class="st7" x1="181.9" y1="97.2" x2="220.9" y2="636.8"/>
				</g>
			</g>
		</g>
		<g>
			<g>
				<g>
					<defs>
						<path id="SVGID_13_" d="M29.9,84.5c0,0,93.9,26.2,135.8,144.7c11.5,37.9,69.3,48.9,112.9,0c37.6-21.9,39.1,22.3,11.9,71.2
							S85.8,677.1,85.8,677.1h-18L29.9,84.5z"/>
					</defs>
					<clipPath id="SVGID_14_">
						<use xlink:href="#SVGID_13_"  style="overflow:visible;"/>
					</clipPath>
					<line class="st8" x1="206.7" y1="95.4" x2="245.7" y2="635.1"/>
				</g>
			</g>
		</g>
		<g>
			<g>
				<g>
					<defs>
						<path id="SVGID_15_" d="M29.9,84.5c0,0,93.9,26.2,135.8,144.7c11.5,37.9,69.3,48.9,112.9,0c37.6-21.9,39.1,22.3,11.9,71.2
							S85.8,677.1,85.8,677.1h-18L29.9,84.5z"/>
					</defs>
					<clipPath id="SVGID_16_">
						<use xlink:href="#SVGID_15_"  style="overflow:visible;"/>
					</clipPath>
					<line class="st9" x1="253.1" y1="62.6" x2="292.1" y2="602.2"/>
				</g>
			</g>
		</g>
		<g>
			<g>
				<g>
					<defs>
						<path id="SVGID_17_" d="M29.9,84.5c0,0,93.9,26.2,135.8,144.7c11.5,37.9,69.3,48.9,112.9,0c37.6-21.9,39.1,22.3,11.9,71.2
							S85.8,677.1,85.8,677.1h-18L29.9,84.5z"/>
					</defs>
					<clipPath id="SVGID_18_">
						<use xlink:href="#SVGID_17_"  style="overflow:visible;"/>
					</clipPath>
					<line class="st10" x1="274.1" y1="52" x2="313.1" y2="591.7"/>
				</g>
			</g>
		</g>
		<g>
			<g>
				<g>
					<defs>
						<path id="SVGID_19_" d="M29.9,84.5c0,0,93.9,26.2,135.8,144.7c11.5,37.9,69.3,48.9,112.9,0c37.6-21.9,39.1,22.3,11.9,71.2
							S85.8,677.1,85.8,677.1h-18L29.9,84.5z"/>
					</defs>
					<clipPath id="SVGID_20_">
						<use xlink:href="#SVGID_19_"  style="overflow:visible;"/>
					</clipPath>
					<line class="st11" x1="231.4" y1="91.2" x2="270.4" y2="630.9"/>
				</g>
			</g>
		</g>
	</g>
</g>
</svg>
