<?xml version="1.0" encoding="utf-8"?>
<!-- Generator: Adobe Illustrator 23.0.2, SVG Export Plug-In . SVG Version: 6.00 Build 0)  -->
<svg version="1.1" xmlns="http://www.w3.org/2000/svg" xmlns:xlink="http://www.w3.org/1999/xlink" x="0px" y="0px"
	 viewBox="0 0 401 127.5" style="enable-background:new 0 0 401 127.5;" xml:space="preserve">
<g id="Layer_2">
	
		<image style="overflow:visible;" width="1924" height="790" xlink:href="5E8B50DED398EA0E.png"  transform="matrix(0.24 0 0 0.24 -31.897 -32.0954)">
	</image>
</g>
<g id="Layer_3">
	
		<image style="overflow:visible;" width="1925" height="790" xlink:href="5E8B50DED398EA01.png"  transform="matrix(0.24 0 0 0.24 -29.977 -29.2154)">
	</image>
</g>
<g id="Layer_1">
	<g>
		<g>
			<g>
				<polygon style="fill:#FFFFFF;" points="17.2,4 17.2,6.6 12.2,6.6 12.2,21.7 9.5,21.7 9.5,6.6 4.5,6.6 4.5,4 				"/>
			</g>
		</g>
		<g>
			<g>
				<polygon style="fill:#FFFFFF;" points="32.5,4 32.5,21.7 29.8,21.7 29.8,13.8 22.2,13.8 22.2,21.7 19.4,21.7 19.4,4 22.2,4 
					22.2,11.2 29.8,11.2 29.8,4 				"/>
			</g>
		</g>
		<g>
			<g>
				<polygon style="fill:#FFFFFF;" points="38.3,6.6 38.3,11.2 43.9,11.2 43.9,13.8 38.3,13.8 38.3,19 45.2,19 45.2,21.7 35.6,21.7 
					35.6,4 45.2,4 45.2,6.6 				"/>
			</g>
		</g>
		<g>
			<path style="fill:#FFFFFF;" d="M25.8,47h20.4v2.7c0,2.6-0.6,5-1.6,7.3c-1.1,2.3-2.5,4.3-4.3,6c-1.8,1.7-3.9,3-6.3,4
				c-2.4,1-5,1.5-7.7,1.5h-0.6c-2.8,0-5.3-0.5-7.8-1.5c-2.4-1-4.6-2.4-6.4-4.1c-1.8-1.7-3.2-3.7-4.3-6c-1-2.3-1.6-4.8-1.6-7.4
				c0-2.6,0.5-5.1,1.6-7.4c1-2.3,2.5-4.3,4.3-6c1.8-1.7,3.9-3.1,6.4-4.1c2.4-1,5-1.5,7.8-1.5c2.7,0,5.3,0.5,7.7,1.5
				c2.5,1,4.7,2.4,6.7,4.3l-2.7,2.5c-1.7-1.5-3.5-2.7-5.5-3.6c-2-0.9-4.1-1.3-6.3-1.3c-2.2,0-4.3,0.4-6.3,1.2
				c-2,0.8-3.7,1.9-5.1,3.4c-1.5,1.4-2.6,3.1-3.5,4.9c-0.8,1.9-1.3,3.9-1.3,6c0,2.1,0.4,4.1,1.3,6c0.8,1.9,2,3.5,3.5,5
				c1.5,1.4,3.2,2.5,5.1,3.4c2,0.8,4,1.2,6.3,1.2h0.6c2.1,0,4.2-0.4,6-1.1c1.9-0.8,3.6-1.8,5-3.1c1.4-1.3,2.6-2.8,3.5-4.6
				c0.9-1.7,1.4-3.6,1.6-5.6H25.8V47z"/>
		</g>
		<g>
			<path style="fill:#FFFFFF;" d="M64.1,31c1.8,0,3.5,0.3,5,0.9c1.6,0.6,2.9,1.5,4.1,2.6c1.2,1.1,2.1,2.4,2.8,3.9
				c0.7,1.5,1,3.1,1,4.8c0,1.3-0.2,2.5-0.6,3.7c-0.4,1.2-0.9,2.2-1.6,3.2c-0.7,1-1.5,1.9-2.5,2.6s-2,1.4-3.2,1.8L79.7,68h-4.8
				L65,55.5c-0.2,0-0.3,0-0.5,0s-0.3,0-0.5,0h-6.8V68h-3.8V31H64.1z M57.3,34.6v17.2h6.8c1.2,0,2.4-0.2,3.5-0.7
				c1.1-0.4,2.1-1.1,2.9-1.8c0.8-0.8,1.5-1.7,1.9-2.8s0.7-2.2,0.7-3.4c0-1.2-0.2-2.3-0.7-3.4c-0.5-1-1.1-1.9-1.9-2.7
				c-0.8-0.8-1.8-1.3-2.9-1.8s-2.3-0.6-3.5-0.6H57.3z"/>
		</g>
		<g>
			<path style="fill:#FFFFFF;" d="M100.4,31l15.2,37h-4.2l-5.2-12.7h-13c-0.8,2.1-1.6,4.2-2.5,6.3c-0.8,2.1-1.7,4.3-2.5,6.4h-4.2
				l14.5-37H100.4z M94.6,51.6h10.1c-0.4-1.1-0.9-2.1-1.3-3.1c-0.4-1-0.8-2-1.2-3c-0.4-1-0.8-2-1.3-3.1s-0.9-2.2-1.4-3.4L94.6,51.6z
				"/>
		</g>
		<g>
			<path style="fill:#FFFFFF;" d="M121.8,68V31h3.3l18.4,18.2V31h3.8v37h-3.8V54.4l-17.9-17.5V68H121.8z"/>
		</g>
		<g>
			<path style="fill:#FFFFFF;" d="M156.4,31h5.9c2.8,0,5.3,0.5,7.8,1.4c2.4,0.9,4.6,2.2,6.4,3.8c1.8,1.6,3.2,3.6,4.3,5.8
				c1,2.2,1.6,4.7,1.6,7.3c0,2.6-0.5,5.1-1.6,7.3c-1,2.3-2.5,4.2-4.3,5.9c-1.8,1.7-3.9,3-6.3,4c-2.4,1-5,1.4-7.8,1.4h-6V31z
				 M160.3,34.6v29.7h2.1c2.2,0,4.3-0.4,6.3-1.2c2-0.8,3.7-1.8,5.1-3.2c1.5-1.3,2.6-2.9,3.5-4.8c0.8-1.8,1.3-3.8,1.3-5.9
				c0-2.1-0.4-4.1-1.3-5.9c-0.8-1.8-2-3.3-3.5-4.7c-1.5-1.3-3.2-2.3-5.1-3.1c-2-0.7-4-1.1-6.3-1.1H160.3z"/>
		</g>
		<g>
			<path style="fill:#FFFFFF;" d="M190,68V31h3.7l13.2,31.3L220.1,31h3.7v37H220V41.3c-1.9,4.4-3.8,8.9-5.7,13.4
				c-1.9,4.5-3.8,8.9-5.6,13.3h-3.6l-11.3-26.7V68H190z"/>
		</g>
		<g>
			<path style="fill:#FFFFFF;" d="M251,30.5c2.8,0,5.3,0.5,7.8,1.5c2.4,1,4.6,2.3,6.4,4.1c1.8,1.7,3.2,3.7,4.3,6
				c1,2.3,1.6,4.8,1.6,7.4c0,2.6-0.5,5.1-1.6,7.4c-1,2.3-2.5,4.3-4.3,6c-1.8,1.7-3.9,3.1-6.4,4.1c-2.4,1-5,1.5-7.8,1.5
				c-2.8,0-5.3-0.5-7.8-1.5c-2.4-1-4.5-2.4-6.3-4.1c-1.8-1.7-3.2-3.7-4.3-6c-1.1-2.3-1.6-4.8-1.6-7.4c0-2.6,0.5-5.1,1.6-7.4
				c1.1-2.3,2.5-4.3,4.3-6c1.8-1.7,3.9-3.1,6.3-4.1C245.6,31,248.2,30.5,251,30.5z M251,64.8c2.2,0,4.3-0.4,6.2-1.2
				c2-0.8,3.7-1.9,5.1-3.3c1.5-1.4,2.6-3,3.5-4.9c0.8-1.9,1.3-3.8,1.3-6c0-2.1-0.4-4-1.3-5.9c-0.8-1.9-2-3.5-3.5-4.9
				c-1.5-1.4-3.2-2.5-5.1-3.3c-2-0.8-4-1.2-6.2-1.2s-4.3,0.4-6.2,1.2c-1.9,0.8-3.6,1.9-5.1,3.3c-1.5,1.4-2.6,3-3.5,4.9
				c-0.8,1.9-1.3,3.8-1.3,5.9c0,2.1,0.4,4.1,1.3,6c0.8,1.9,2,3.5,3.5,4.9c1.5,1.4,3.2,2.5,5.1,3.3C246.7,64.4,248.8,64.8,251,64.8z"
				/>
		</g>
		<g>
			<path style="fill:#FFFFFF;" d="M271.2,31h25.9v3.6h-11V68h-3.8V34.6h-11V31z"/>
		</g>
		<g>
			<path style="fill:#FFFFFF;" d="M304.3,68V31h3.8v16h19.1V31h3.8v37h-3.8V50.6h-19.1V68H304.3z"/>
		</g>
		<g>
			<path style="fill:#FFFFFF;" d="M340.2,68V31h19.2v3.6H344V47h12.4v3.6H344v13.7h15.3V68H340.2z"/>
		</g>
		<g>
			<path style="fill:#FFFFFF;" d="M378.2,31c1.8,0,3.5,0.3,5,0.9c1.6,0.6,2.9,1.5,4.1,2.6c1.2,1.1,2.1,2.4,2.8,3.9
				c0.7,1.5,1,3.1,1,4.8c0,1.3-0.2,2.5-0.6,3.7c-0.4,1.2-0.9,2.2-1.6,3.2c-0.7,1-1.5,1.9-2.5,2.6s-2,1.4-3.2,1.8L393.8,68H389
				l-9.9-12.5c-0.2,0-0.3,0-0.5,0c-0.1,0-0.3,0-0.5,0h-6.8V68h-3.8V31H378.2z M371.3,34.6v17.2h6.8c1.2,0,2.4-0.2,3.5-0.7
				c1.1-0.4,2.1-1.1,2.9-1.8c0.8-0.8,1.5-1.7,1.9-2.8c0.5-1.1,0.7-2.2,0.7-3.4c0-1.2-0.2-2.3-0.7-3.4c-0.5-1-1.1-1.9-1.9-2.7
				c-0.8-0.8-1.8-1.3-2.9-1.8c-1.1-0.4-2.3-0.6-3.5-0.6H371.3z"/>
		</g>
		<g>
			<g>
				<path style="fill:#FFFFFF;" d="M19.8,91c-0.4-0.9-1-1.8-1.7-2.5c-0.7-0.7-1.6-1.2-2.6-1.6c-2-0.8-4.3-0.8-6.3,0
					c-1,0.4-1.8,0.9-2.6,1.6c-0.7,0.7-1.3,1.5-1.8,2.5c-0.4,1-0.6,2-0.6,3c0,1.1,0.2,2.1,0.6,3c0.4,0.9,1,1.8,1.8,2.5
					c0.7,0.7,1.6,1.2,2.6,1.7c1,0.4,2,0.6,3.2,0.6c1.1,0,2.2-0.2,3.1-0.6c1-0.4,1.9-1,2.6-1.7c0.7-0.7,1.3-1.5,1.7-2.5
					c0.4-1,0.6-2,0.6-3C20.4,93,20.2,92,19.8,91z M17.3,96c-0.3,0.6-0.7,1.2-1.2,1.6c-0.5,0.5-1.1,0.8-1.7,1.1
					c-1.3,0.5-2.9,0.5-4.2,0c-0.7-0.3-1.2-0.7-1.7-1.1c-0.5-0.5-0.9-1-1.2-1.6c-0.3-0.6-0.4-1.3-0.4-2c0-0.7,0.1-1.3,0.4-2
					c0.3-0.6,0.7-1.2,1.2-1.6c0.5-0.5,1.1-0.8,1.7-1.1c0.6-0.3,1.3-0.4,2.1-0.4c0.7,0,1.4,0.1,2.1,0.4c0.7,0.3,1.2,0.6,1.7,1.1
					c0.5,0.5,0.9,1,1.2,1.6c0.3,0.6,0.4,1.3,0.4,2S17.6,95.4,17.3,96z"/>
			</g>
		</g>
		<g>
			<g>
				<polygon style="fill:#FFFFFF;" points="24.6,89.1 24.6,92.5 29.2,92.5 29.2,95.1 24.6,95.1 24.6,101.6 21.9,101.6 21.9,86.5 
					30.3,86.5 30.3,89.1 				"/>
			</g>
		</g>
		<g>
			<path style="fill:#FFFFFF;" d="M53.5,100.2c3.8,0.8,6.7,2.1,8.8,3.9c2.1,1.8,3.1,4.1,3.1,6.9c0,1.7-0.4,3.2-1.2,4.4
				c-0.8,1.2-1.8,2.3-3.1,3.1c-1.3,0.8-2.8,1.5-4.4,1.9c-1.7,0.4-3.4,0.6-5.2,0.6c-1.7,0-3.2-0.2-4.6-0.6c-1.4-0.4-2.5-0.8-3.5-1.2
				c-1-0.5-1.7-0.9-2.3-1.3c-0.6-0.4-0.9-0.7-1-0.8l2.6-2.8c0.1,0.1,0.4,0.3,0.8,0.6c0.5,0.3,1.1,0.7,1.9,1.1c0.8,0.4,1.8,0.7,2.9,1
				s2.3,0.4,3.6,0.4c1.4,0,2.6-0.2,3.8-0.5c1.2-0.3,2.2-0.7,3-1.3c0.9-0.6,1.5-1.2,2-2c0.5-0.8,0.7-1.7,0.7-2.7
				c0-1.8-0.9-3.4-2.7-4.6c-1.8-1.3-4.4-2.3-7.8-3v0c-3.2-0.7-5.7-1.9-7.4-3.7c-1.7-1.7-2.5-3.8-2.5-6.2c0-1.5,0.3-2.9,1-4.1
				c0.7-1.2,1.5-2.3,2.6-3.1c1.1-0.9,2.4-1.5,3.9-2c1.5-0.5,3-0.7,4.6-0.7c1.5,0,3.2,0.3,5.1,0.8c1.8,0.5,3.4,1.3,4.8,2.4l-2.4,2.7
				c-1.4-0.8-2.6-1.3-3.7-1.7c-1.1-0.4-2.3-0.6-3.5-0.6c-1.3,0-2.5,0.2-3.6,0.5c-1.1,0.3-2,0.8-2.7,1.4c-0.7,0.6-1.3,1.3-1.7,2.1
				c-0.4,0.8-0.6,1.7-0.6,2.6s0.2,1.8,0.6,2.5c0.4,0.7,1,1.3,1.8,1.8c0.8,0.5,1.6,0.9,2.7,1.2C51.1,99.6,52.2,99.9,53.5,100.2z"/>
		</g>
		<g>
			<path style="fill:#FFFFFF;" d="M95.8,96.2c0,1.7-0.3,3.3-1,4.8c-0.7,1.5-1.6,2.8-2.8,3.9c-1.2,1.1-2.5,2-4.1,2.7
				c-1.6,0.7-3.3,1-5.1,1h-6.9V121H72V84h10.7c1.7,0,3.3,0.3,4.8,0.9c1.6,0.6,3,1.5,4.2,2.6s2.2,2.4,2.9,3.9
				C95.4,92.9,95.8,94.5,95.8,96.2z M75.9,87.6v17.2h6.9c1.2,0,2.4-0.2,3.6-0.7c1.1-0.4,2.1-1.1,2.9-1.9c0.8-0.8,1.5-1.7,2-2.8
				s0.7-2.2,0.7-3.4c0-1.2-0.3-2.3-0.8-3.3c-0.5-1-1.2-1.9-2.1-2.7c-0.9-0.8-1.8-1.4-2.9-1.8s-2.2-0.6-3.3-0.6H75.9z"/>
		</g>
		<g>
			<path style="fill:#FFFFFF;" d="M104.4,84v37h-3.8V84H104.4z"/>
		</g>
		<g>
			<path style="fill:#FFFFFF;" d="M124.1,84c1.8,0,3.5,0.3,5,0.9c1.6,0.6,2.9,1.5,4.1,2.6c1.2,1.1,2.1,2.4,2.8,3.9
				c0.7,1.5,1,3.1,1,4.8c0,1.3-0.2,2.5-0.6,3.7c-0.4,1.2-0.9,2.2-1.6,3.2c-0.7,1-1.5,1.9-2.5,2.6s-2,1.4-3.2,1.8l10.6,13.4H135
				l-9.9-12.5c-0.2,0-0.3,0-0.5,0s-0.3,0-0.5,0h-6.8V121h-3.8V84H124.1z M117.3,87.6v17.2h6.8c1.2,0,2.4-0.2,3.5-0.7
				c1.1-0.4,2.1-1.1,2.9-1.8c0.8-0.8,1.5-1.7,1.9-2.8s0.7-2.2,0.7-3.4c0-1.2-0.2-2.3-0.7-3.4c-0.5-1-1.1-1.9-1.9-2.7
				c-0.8-0.8-1.8-1.3-2.9-1.8c-1.1-0.4-2.3-0.6-3.5-0.6H117.3z"/>
		</g>
		<g>
			<path style="fill:#FFFFFF;" d="M150.8,84v37h-3.8V84H150.8z"/>
		</g>
		<g>
			<path style="fill:#FFFFFF;" d="M158,84h25.9v3.6h-11V121H169V87.6h-11V84z"/>
		</g>
		<g>
			<path style="fill:#FFFFFF;" d="M214.7,84v26.9c0,1.6-0.3,3-0.9,4.3c-0.6,1.3-1.4,2.4-2.4,3.3c-1,0.9-2.2,1.6-3.7,2.1
				c-1.4,0.5-3,0.7-4.6,0.7c-1.7,0-3.2-0.2-4.7-0.7c-1.5-0.5-2.7-1.2-3.8-2.1c-1.1-0.9-2-2-2.6-3.3s-1-2.7-1-4.3V84h3.8v26.8
				c0,1,0.2,1.9,0.6,2.7c0.4,0.8,1,1.6,1.7,2.2c0.7,0.6,1.6,1.1,2.6,1.5c1,0.4,2.1,0.6,3.3,0.6c1.2,0,2.2-0.2,3.1-0.5
				c0.9-0.3,1.8-0.8,2.4-1.4c0.7-0.6,1.2-1.3,1.6-2.2c0.4-0.9,0.6-1.8,0.6-2.8V84H214.7z"/>
		</g>
		<g>
			<path style="fill:#FFFFFF;" d="M236.1,84l15.2,37h-4.2l-5.2-12.7h-13c-0.8,2.1-1.6,4.2-2.5,6.3c-0.8,2.1-1.7,4.3-2.5,6.4h-4.2
				l14.5-37H236.1z M230.3,104.6h10.1c-0.4-1.1-0.9-2.1-1.3-3.1c-0.4-1-0.8-2-1.2-3c-0.4-1-0.8-2-1.3-3.1s-0.9-2.2-1.4-3.4
				L230.3,104.6z"/>
		</g>
		<g>
			<path style="fill:#FFFFFF;" d="M276.7,117.4v3.6h-19.2V84h3.8v33.4H276.7z"/>
		</g>
		<g>
			<path style="fill:#FFFFFF;" d="M292.9,84h14.8v29.5c0,1.6-0.4,2.9-1.1,3.9c-0.7,1-1.7,1.7-2.8,2.3c-1.1,0.5-2.3,0.9-3.5,1.1
				c-1.2,0.2-2.4,0.3-3.5,0.3v-3.6c0.7,0,1.4,0,2.2-0.1c0.8-0.1,1.6-0.3,2.3-0.5c0.7-0.3,1.3-0.7,1.8-1.2c0.5-0.5,0.7-1.2,0.7-2.1
				V87.6h-11V84z"/>
		</g>
		<g>
			<path style="fill:#FFFFFF;" d="M328.6,84l15.2,37h-4.2l-5.2-12.7h-13c-0.8,2.1-1.6,4.2-2.5,6.3c-0.8,2.1-1.7,4.3-2.5,6.4h-4.2
				l14.5-37H328.6z M322.8,104.6h10.1c-0.4-1.1-0.9-2.1-1.3-3.1c-0.4-1-0.8-2-1.2-3c-0.4-1-0.8-2-1.3-3.1c-0.4-1.1-0.9-2.2-1.4-3.4
				L322.8,104.6z"/>
		</g>
		<g>
			<path style="fill:#FFFFFF;" d="M367.1,121h-20.4l13.8-33.4h-13.9V84h19.5l-13.8,33.4h14.7V121z"/>
		</g>
		<g>
			<path style="fill:#FFFFFF;" d="M393.8,121h-20.4l13.8-33.4h-13.9V84h19.5l-13.8,33.4h14.7V121z"/>
		</g>
	</g>
</g>
</svg>
