<?xml version="1.0" encoding="utf-8"?>
<!-- Generator: Adobe Illustrator 23.0.2, SVG Export Plug-In . SVG Version: 6.00 Build 0)  -->
<svg version="1.1" id="Layer_2" xmlns="http://www.w3.org/2000/svg" xmlns:xlink="http://www.w3.org/1999/xlink" x="0px" y="0px"
	 viewBox="0 0 304.32 304.32" style="enable-background:new 0 0 304.32 304.32;" xml:space="preserve">
<path d="M152.16,0C68.12,0,0,68.12,0,152.16s68.12,152.16,152.16,152.16s152.16-68.12,152.16-152.16S236.2,0,152.16,0z
	 M159.61,56.25c7.68-9,20.54-15.61,31.26-16.04c0.88-0.03,1.66,0.63,1.76,1.52c1.24,11.33-2.87,23.98-11,33.84
	c-7.72,9.34-19.03,15.13-29.51,15.13c-0.74,0-1.48-0.03-2.2-0.08c-0.8-0.06-1.44-0.68-1.55-1.48
	C146.69,76.43,153.07,63.81,159.61,56.25z M235,192.11l-0.06,0.18c-1.45,4.64-5.73,16.76-14.28,29.25
	c-8.19,11.96-17.47,25.52-32.59,25.8c-7.07,0.14-11.85-1.94-16.5-3.95c-4.71-2.04-9.58-4.15-17.21-4.15
	c-8.02,0-13.14,2.18-18.09,4.28c-4.41,1.88-8.96,3.82-15.27,4.07c-0.27,0.01-0.52,0.01-0.77,0.01c-13.42,0-23.22-12.57-32.9-26.56
	c-19.39-28-30.54-74.18-13-104.6c9.22-16.03,25.94-26.17,43.64-26.43c0.18-0.01,0.36-0.01,0.54-0.01c7.62,0,14.8,2.86,21.15,5.37
	c4.75,1.88,8.84,3.51,12,3.51c2.81,0,6.88-1.6,11.6-3.47c6.83-2.69,15.33-6.05,24.22-6.05c1.14,0,2.26,0.05,3.37,0.16
	c7.55,0.33,26.33,3.03,38.58,20.95c0.26,0.38,0.35,0.85,0.26,1.3c-0.09,0.45-0.36,0.84-0.74,1.09l-0.17,0.1
	c-3.56,2.2-21.3,14.35-21.07,37.29c0.24,28.23,23.6,38.6,26.26,39.69c0.03,0.01,0.11,0.04,0.13,0.05
	C234.88,190.39,235.27,191.29,235,192.11z"/>
</svg>
