<?xml version="1.0" encoding="utf-8"?>
<!-- Generator: Adobe Illustrator 23.0.2, SVG Export Plug-In . SVG Version: 6.00 Build 0)  -->
<svg version="1.1" id="Layer_1" xmlns="http://www.w3.org/2000/svg" xmlns:xlink="http://www.w3.org/1999/xlink" x="0px" y="0px"
	 viewBox="0 0 304.3 304.3" style="enable-background:new 0 0 304.3 304.3;" xml:space="preserve">
<style type="text/css">
	.st0{opacity:0.5;fill:#FFFFFF;}
</style>
<path class="st0" d="M152.2,0C68.1,0,0,68.1,0,152.2s68.1,152.2,152.2,152.2s152.2-68.1,152.2-152.2S236.2,0,152.2,0z M159.6,56.2
	c7.7-9,20.5-15.6,31.3-16c0.9,0,1.7,0.6,1.8,1.5c1.2,11.3-2.9,24-11,33.8c-7.7,9.3-19,15.1-29.5,15.1c-0.7,0-1.5,0-2.2-0.1
	c-0.8-0.1-1.4-0.7-1.6-1.5C146.7,76.4,153.1,63.8,159.6,56.2z M235,192.1l-0.1,0.2c-1.4,4.6-5.7,16.8-14.3,29.2
	c-8.2,12-17.5,25.5-32.6,25.8c-7.1,0.1-11.9-1.9-16.5-3.9c-4.7-2-9.6-4.1-17.2-4.1c-8,0-13.1,2.2-18.1,4.3c-4.4,1.9-9,3.8-15.3,4.1
	c-0.3,0-0.5,0-0.8,0c-13.4,0-23.2-12.6-32.9-26.6c-19.4-28-30.5-74.2-13-104.6c9.2-16,25.9-26.2,43.6-26.4c0.2,0,0.4,0,0.5,0
	c7.6,0,14.8,2.9,21.2,5.4c4.8,1.9,8.8,3.5,12,3.5c2.8,0,6.9-1.6,11.6-3.5c6.8-2.7,15.3-6.1,24.2-6.1c1.1,0,2.3,0.1,3.4,0.2
	c7.6,0.3,26.3,3,38.6,21c0.3,0.4,0.4,0.8,0.3,1.3c-0.1,0.4-0.4,0.8-0.7,1.1l-0.2,0.1c-3.6,2.2-21.3,14.3-21.1,37.3
	c0.2,28.2,23.6,38.6,26.3,39.7c0,0,0.1,0,0.1,0.1C234.9,190.4,235.3,191.3,235,192.1z"/>
</svg>
