<?xml version="1.0" encoding="utf-8"?>
<!-- Generator: Adobe Illustrator 23.0.2, SVG Export Plug-In . SVG Version: 6.00 Build 0)  -->
<svg version="1.1" id="Layer_1" xmlns="http://www.w3.org/2000/svg" xmlns:xlink="http://www.w3.org/1999/xlink" x="0px" y="0px"
	 viewBox="0 0 372.96 372.79" style="enable-background:new 0 0 372.96 372.79;" xml:space="preserve">
<style type="text/css">
	.st0{clip-path:url(#SVGID_2_);}
	.st1{clip-path:url(#SVGID_4_);fill:#443D4A;}
	.st2{clip-path:url(#SVGID_6_);}
	.st3{fill:#FFE6C9;}
	.st4{clip-path:url(#SVGID_8_);fill:url(#SVGID_9_);}
	.st5{clip-path:url(#SVGID_11_);fill:#AEA4BD;}
	.st6{clip-path:url(#SVGID_13_);fill:#766985;}
	.st7{clip-path:url(#SVGID_15_);fill:#766985;}
	.st8{clip-path:url(#SVGID_17_);fill:#766985;}
	.st9{clip-path:url(#SVGID_19_);fill:#766985;}
	.st10{clip-path:url(#SVGID_21_);fill:#BA8149;}
	.st11{clip-path:url(#SVGID_23_);fill:#694829;}
	.st12{clip-path:url(#SVGID_25_);fill:#694829;}
	.st13{clip-path:url(#SVGID_27_);fill:#FFB967;}
	.st14{clip-path:url(#SVGID_29_);fill:#1F1926;}
	.st15{clip-path:url(#SVGID_31_);fill:#FFE6C9;}
	.st16{clip-path:url(#SVGID_33_);fill:#FFE6C9;}
	.st17{clip-path:url(#SVGID_35_);fill:#FFE6C9;}
	.st18{clip-path:url(#SVGID_37_);fill:#FFE6C9;}
	.st19{clip-path:url(#SVGID_39_);fill:#FFE6C9;}
	.st20{clip-path:url(#SVGID_41_);fill:#FFE6C9;}
	.st21{clip-path:url(#SVGID_43_);fill:#FFE6C9;}
	.st22{clip-path:url(#SVGID_45_);fill:#FFE6C9;}
	.st23{clip-path:url(#SVGID_47_);fill:#FFE6C9;}
	.st24{clip-path:url(#SVGID_49_);fill:#FFE6C9;}
	.st25{clip-path:url(#SVGID_51_);fill:#FFE6C9;}
	.st26{clip-path:url(#SVGID_53_);fill:#FFE6C9;}
	.st27{clip-path:url(#SVGID_55_);fill:#FFE6C9;}
	.st28{clip-path:url(#SVGID_57_);fill:#FFE6C9;}
	.st29{clip-path:url(#SVGID_59_);fill:#FFE6C9;}
	.st30{clip-path:url(#SVGID_61_);fill:#FFE6C9;}
	.st31{clip-path:url(#SVGID_63_);fill:#FFE6C9;}
	.st32{clip-path:url(#SVGID_65_);fill:#FFE6C9;}
	.st33{clip-path:url(#SVGID_67_);fill:#FFE6C9;}
	.st34{clip-path:url(#SVGID_69_);fill:#FFE6C9;}
	.st35{clip-path:url(#SVGID_71_);fill:#FFE6C9;}
	.st36{clip-path:url(#SVGID_73_);fill:#FFE6C9;}
</style>
<g id="Layer_10">
</g>
<g>
	<defs>
		<rect id="SVGID_1_" width="372.79" height="372.79"/>
	</defs>
	<clipPath id="SVGID_2_">
		<use xlink:href="#SVGID_1_"  style="overflow:visible;"/>
	</clipPath>
	<g id="Layer_12" class="st0">
		<g>
			<g>
				<defs>
					<rect id="SVGID_3_" x="-30.75" y="-70.83" width="514.45" height="514.45"/>
				</defs>
				<clipPath id="SVGID_4_">
					<use xlink:href="#SVGID_3_"  style="overflow:visible;"/>
				</clipPath>
				<rect x="-117.38" y="-144.49" class="st1" width="624.99" height="607.36"/>
			</g>
			<g>
				<defs>
					<rect id="SVGID_5_" x="-30.75" y="-70.83" width="514.45" height="514.45"/>
				</defs>
				<clipPath id="SVGID_6_">
					<use xlink:href="#SVGID_5_"  style="overflow:visible;"/>
				</clipPath>
				<g class="st2">
					<g>
						<path class="st3" d="M-68.58,174.51c-0.11,0-0.22,0-0.33,0c-5.1-0.13-9.6-3.1-12.68-8.38l1.73-1.01
							c2.71,4.66,6.62,7.28,11,7.39c4.7,0.11,9.31-2.66,12.42-7.43l1.68,1.09C-58.18,171.41-63.32,174.51-68.58,174.51z"/>
						<path class="st3" d="M-31.82,166.8c-3.1-4.77-7.75-7.56-12.42-7.43c-4.38,0.11-8.29,2.73-11,7.39l-1.73-1.01
							c3.08-5.28,7.58-8.25,12.68-8.38c5.39-0.13,10.66,2.99,14.14,8.34L-31.82,166.8z"/>
						<path class="st3" d="M-19.09,174.83c-0.11,0-0.22,0-0.33,0c-5.1-0.13-9.6-3.1-12.68-8.38l1.73-1.01
							c2.71,4.66,6.62,7.28,11,7.39c4.67,0.11,9.31-2.66,12.42-7.43l1.68,1.09C-8.69,171.73-13.83,174.83-19.09,174.83z"/>
						<path class="st3" d="M17.67,167.12c-3.1-4.77-7.76-7.52-12.42-7.43c-4.38,0.11-8.29,2.73-11,7.39l-1.73-1.01
							c3.08-5.28,7.58-8.25,12.68-8.38c5.35-0.16,10.66,2.98,14.14,8.34L17.67,167.12z"/>
						<path class="st3" d="M29.8,174.51c-0.11,0-0.22,0-0.33,0c-5.1-0.13-9.6-3.1-12.68-8.38l1.73-1.01c2.71,4.66,6.62,7.28,11,7.39
							c4.68,0.11,9.31-2.66,12.42-7.43l1.68,1.09C40.2,171.41,35.06,174.51,29.8,174.51z"/>
						<path class="st3" d="M66.57,166.8c-3.1-4.77-7.75-7.56-12.42-7.43c-4.38,0.11-8.29,2.73-11,7.39l-1.73-1.01
							c3.08-5.28,7.58-8.25,12.68-8.38c5.36-0.12,10.66,2.98,14.14,8.34L66.57,166.8z"/>
						<path class="st3" d="M79.29,174.83c-0.11,0-0.22,0-0.33,0c-5.1-0.13-9.6-3.1-12.68-8.38l1.73-1.01
							c2.71,4.66,6.62,7.28,11,7.39c4.66,0.11,9.31-2.66,12.42-7.43l1.68,1.09C89.69,171.73,84.55,174.83,79.29,174.83z"/>
						<path class="st3" d="M116.06,167.12c-3.1-4.77-7.75-7.54-12.42-7.43c-4.38,0.11-8.29,2.73-11,7.39l-1.73-1.01
							c3.08-5.28,7.58-8.25,12.68-8.38c5.35-0.16,10.66,2.98,14.14,8.34L116.06,167.12z"/>
					</g>
					<g>
						<path class="st3" d="M-69,145.97c-0.11,0-0.22,0-0.33,0c-5.1-0.13-9.6-3.1-12.68-8.38l1.73-1.01c2.71,4.66,6.62,7.28,11,7.39
							c4.7,0.12,9.31-2.66,12.42-7.43l1.68,1.09C-58.6,142.87-63.74,145.97-69,145.97z"/>
						<path class="st3" d="M-32.24,138.26c-3.1-4.77-7.74-7.55-12.42-7.43c-4.38,0.11-8.29,2.73-11,7.39l-1.73-1.01
							c3.08-5.28,7.58-8.25,12.68-8.38c5.38-0.12,10.66,2.99,14.14,8.34L-32.24,138.26z"/>
						<path class="st3" d="M-19.51,146.29c-0.11,0-0.22,0-0.33,0c-5.1-0.13-9.6-3.1-12.68-8.38l1.73-1.01
							c2.71,4.66,6.62,7.28,11,7.39c4.67,0.09,9.31-2.66,12.42-7.43l1.68,1.09C-9.11,143.19-14.25,146.29-19.51,146.29z"/>
						<path class="st3" d="M17.25,138.58c-3.1-4.77-7.75-7.53-12.42-7.43c-4.38,0.11-8.29,2.73-11,7.39l-1.73-1.01
							c3.08-5.28,7.58-8.25,12.68-8.38c5.39-0.13,10.66,2.98,14.14,8.34L17.25,138.58z"/>
						<path class="st3" d="M29.38,145.97c-0.11,0-0.22,0-0.33,0c-5.1-0.13-9.6-3.1-12.68-8.38l1.73-1.01
							c2.71,4.66,6.62,7.28,11,7.39c4.66,0.12,9.31-2.66,12.42-7.43l1.68,1.09C39.78,142.87,34.64,145.97,29.38,145.97z"/>
						<path class="st3" d="M66.14,138.26c-3.1-4.77-7.72-7.55-12.42-7.43c-4.38,0.11-8.29,2.73-11,7.39l-1.73-1.01
							c3.08-5.28,7.58-8.25,12.68-8.38c5.4-0.12,10.66,2.98,14.14,8.34L66.14,138.26z"/>
						<path class="st3" d="M78.87,146.29c-0.11,0-0.22,0-0.33,0c-5.1-0.13-9.6-3.1-12.68-8.38l1.73-1.01
							c2.71,4.66,6.62,7.28,11,7.39c4.66,0.09,9.31-2.66,12.42-7.43l1.68,1.09C89.27,143.19,84.13,146.29,78.87,146.29z"/>
						<path class="st3" d="M115.63,138.58c-3.1-4.77-7.76-7.53-12.42-7.43c-4.38,0.11-8.29,2.73-11,7.39l-1.73-1.01
							c3.08-5.28,7.58-8.25,12.68-8.38c5.35-0.15,10.66,2.98,14.14,8.34L115.63,138.58z"/>
					</g>
					<g>
						<path class="st3" d="M-68.16,119.88c-0.11,0-0.22,0-0.33,0c-5.1-0.13-9.6-3.1-12.68-8.38l1.73-1.01
							c2.71,4.66,6.62,7.28,11,7.39c4.67,0.1,9.31-2.66,12.42-7.43l1.68,1.09C-57.76,116.78-62.9,119.88-68.16,119.88z"/>
						<path class="st3" d="M-31.4,112.16c-3.1-4.77-7.75-7.56-12.42-7.43c-4.38,0.11-8.29,2.73-11,7.39l-1.73-1.01
							c3.08-5.28,7.58-8.25,12.68-8.38c5.36-0.15,10.66,2.98,14.14,8.34L-31.4,112.16z"/>
						<path class="st3" d="M-18.67,120.19c-0.11,0-0.22,0-0.33,0c-5.1-0.13-9.6-3.1-12.68-8.38l1.73-1.01
							c2.71,4.66,6.62,7.28,11,7.39c4.66,0.09,9.31-2.66,12.42-7.43l1.68,1.09C-8.27,117.09-13.41,120.19-18.67,120.19z"/>
						<path class="st3" d="M18.09,112.48c-3.1-4.77-7.74-7.53-12.42-7.43c-4.38,0.11-8.29,2.73-11,7.39l-1.73-1.01
							c3.08-5.28,7.58-8.25,12.68-8.38c5.36-0.16,10.66,2.98,14.14,8.34L18.09,112.48z"/>
						<path class="st3" d="M30.23,119.88c-0.11,0-0.22,0-0.33,0c-5.1-0.13-9.6-3.1-12.68-8.38l1.73-1.01
							c2.71,4.66,6.62,7.28,11,7.39c4.65,0.11,9.31-2.66,12.42-7.43l1.68,1.09C40.63,116.78,35.49,119.88,30.23,119.88z"/>
						<path class="st3" d="M66.99,112.16c-3.1-4.77-7.76-7.53-12.42-7.43c-4.38,0.11-8.29,2.73-11,7.39l-1.73-1.01
							c3.08-5.28,7.58-8.25,12.68-8.38c5.36-0.15,10.66,2.98,14.14,8.34L66.99,112.16z"/>
						<path class="st3" d="M79.72,120.19c-0.11,0-0.22,0-0.33,0c-5.1-0.13-9.6-3.1-12.68-8.38l1.73-1.01
							c2.71,4.66,6.62,7.28,11,7.39c4.66,0.11,9.31-2.66,12.42-7.43l1.68,1.09C90.12,117.09,84.98,120.19,79.72,120.19z"/>
						<path class="st3" d="M116.48,112.48c-3.1-4.77-7.76-7.53-12.42-7.43c-4.38,0.11-8.29,2.73-11,7.39l-1.73-1.01
							c3.08-5.28,7.58-8.25,12.68-8.38c5.36-0.16,10.66,2.98,14.14,8.34L116.48,112.48z"/>
					</g>
					<g>
						<path class="st3" d="M-67.74,95.97c-0.11,0-0.22,0-0.33,0c-5.1-0.13-9.6-3.1-12.68-8.38l1.73-1.01
							c2.71,4.66,6.62,7.28,11,7.39c4.66,0.12,9.31-2.66,12.42-7.43l1.68,1.09C-57.34,92.87-62.48,95.97-67.74,95.97z"/>
						<path class="st3" d="M-30.98,88.25c-3.1-4.77-7.76-7.53-12.42-7.43c-4.38,0.11-8.29,2.73-11,7.39l-1.73-1.01
							c3.08-5.28,7.58-8.25,12.68-8.38c5.39-0.14,10.66,2.98,14.14,8.34L-30.98,88.25z"/>
						<path class="st3" d="M-18.25,96.29c-0.11,0-0.22,0-0.33,0c-5.1-0.13-9.6-3.1-12.68-8.38l1.73-1.01
							c2.71,4.66,6.62,7.28,11,7.39c4.65,0.11,9.31-2.66,12.42-7.43l1.68,1.09C-7.85,93.19-12.99,96.29-18.25,96.29z"/>
						<path class="st3" d="M18.51,88.57c-3.1-4.77-7.76-7.54-12.42-7.43c-4.38,0.11-8.29,2.73-11,7.39l-1.73-1.01
							c3.08-5.28,7.58-8.25,12.68-8.38c5.4-0.12,10.66,2.99,14.14,8.34L18.51,88.57z"/>
						<path class="st3" d="M30.65,95.97c-0.11,0-0.22,0-0.33,0c-5.1-0.13-9.6-3.1-12.68-8.38l1.73-1.01c2.71,4.66,6.62,7.28,11,7.39
							c4.68,0.12,9.31-2.66,12.42-7.43l1.68,1.09C41.05,92.87,35.91,95.97,30.65,95.97z"/>
						<path class="st3" d="M67.41,88.25c-3.1-4.77-7.75-7.56-12.42-7.43c-4.38,0.11-8.29,2.73-11,7.39l-1.73-1.01
							c3.08-5.28,7.58-8.25,12.68-8.38c5.37-0.14,10.66,2.98,14.14,8.34L67.41,88.25z"/>
						<path class="st3" d="M80.14,96.29c-0.11,0-0.22,0-0.33,0c-5.1-0.13-9.6-3.1-12.68-8.38l1.73-1.01c2.71,4.66,6.62,7.28,11,7.39
							c4.68,0.11,9.31-2.66,12.42-7.43l1.68,1.09C90.54,93.19,85.4,96.29,80.14,96.29z"/>
						<path class="st3" d="M116.9,88.57c-3.1-4.77-7.76-7.54-12.42-7.43c-4.38,0.11-8.29,2.73-11,7.39l-1.73-1.01
							c3.08-5.28,7.58-8.25,12.68-8.38c5.37-0.13,10.66,2.98,14.14,8.34L116.9,88.57z"/>
					</g>
					<g>
						<path class="st3" d="M-69,203.53c-0.11,0-0.22,0-0.33,0c-5.1-0.13-9.6-3.1-12.68-8.38l1.73-1.01c2.71,4.66,6.62,7.28,11,7.39
							c4.67,0.14,9.31-2.66,12.42-7.43l1.68,1.09C-58.6,200.43-63.74,203.53-69,203.53z"/>
						<path class="st3" d="M-32.24,195.83c-3.1-4.77-7.74-7.58-12.42-7.43c-4.38,0.11-8.29,2.73-11,7.39l-1.73-1.01
							c3.08-5.28,7.58-8.25,12.68-8.38c5.38-0.11,10.66,2.99,14.14,8.34L-32.24,195.83z"/>
						<path class="st3" d="M-19.51,203.85c-0.11,0-0.22,0-0.33,0c-5.1-0.13-9.6-3.1-12.68-8.38l1.73-1.01
							c2.71,4.66,6.62,7.28,11,7.39c4.67,0.09,9.31-2.66,12.42-7.43l1.68,1.09C-9.11,200.75-14.25,203.85-19.51,203.85z"/>
						<path class="st3" d="M17.25,196.14c-3.1-4.77-7.75-7.52-12.42-7.43c-4.38,0.11-8.29,2.73-11,7.39l-1.73-1.01
							c3.08-5.28,7.58-8.25,12.68-8.38c5.39-0.12,10.66,2.98,14.14,8.34L17.25,196.14z"/>
						<path class="st3" d="M29.38,203.53c-0.11,0-0.22,0-0.33,0c-5.1-0.13-9.6-3.1-12.68-8.38l1.73-1.01
							c2.71,4.66,6.62,7.28,11,7.39c4.66,0.14,9.31-2.66,12.42-7.43l1.68,1.09C39.78,200.43,34.64,203.53,29.38,203.53z"/>
						<path class="st3" d="M66.14,195.83c-3.1-4.77-7.75-7.59-12.42-7.43c-4.38,0.11-8.29,2.73-11,7.39l-1.73-1.01
							c3.08-5.28,7.58-8.25,12.68-8.38c5.4-0.11,10.66,2.98,14.14,8.34L66.14,195.83z"/>
						<path class="st3" d="M78.87,203.85c-0.11,0-0.22,0-0.33,0c-5.1-0.13-9.6-3.1-12.68-8.38l1.73-1.01
							c2.71,4.66,6.62,7.28,11,7.39c4.63,0.09,9.31-2.66,12.42-7.43l1.68,1.09C89.27,200.75,84.13,203.85,78.87,203.85z"/>
						<path class="st3" d="M115.63,196.14c-3.1-4.77-7.76-7.52-12.42-7.43c-4.38,0.11-8.29,2.73-11,7.39l-1.73-1.01
							c3.08-5.28,7.58-8.25,12.68-8.38c5.35-0.13,10.66,2.98,14.14,8.34L115.63,196.14z"/>
					</g>
					<g>
						<path class="st3" d="M-69.42,232.55c-0.11,0-0.22,0-0.33,0c-5.1-0.13-9.6-3.1-12.68-8.38l1.73-1.01
							c2.71,4.66,6.62,7.28,11,7.39c4.64,0.09,9.31-2.66,12.42-7.43l1.68,1.09C-59.02,229.45-64.16,232.55-69.42,232.55z"/>
						<path class="st3" d="M-32.66,224.84c-3.1-4.77-7.76-7.54-12.42-7.43c-4.38,0.11-8.29,2.73-11,7.39l-1.73-1.01
							c3.08-5.28,7.58-8.25,12.68-8.38c5.33-0.16,10.66,2.98,14.14,8.34L-32.66,224.84z"/>
						<path class="st3" d="M-19.93,232.87c-0.11,0-0.22,0-0.33,0c-5.1-0.13-9.6-3.1-12.68-8.38l1.73-1.01
							c2.71,4.66,6.62,7.28,11,7.39c4.67,0.14,9.31-2.66,12.42-7.43l1.68,1.09C-9.53,229.77-14.67,232.87-19.93,232.87z"/>
						<path class="st3" d="M16.83,225.16c-3.1-4.77-7.74-7.57-12.42-7.43c-4.38,0.11-8.29,2.73-11,7.39l-1.73-1.01
							c3.08-5.28,7.58-8.25,12.68-8.38c5.4-0.15,10.66,2.98,14.14,8.34L16.83,225.16z"/>
						<path class="st3" d="M28.96,232.55c-0.11,0-0.22,0-0.33,0c-5.1-0.13-9.6-3.1-12.68-8.38l1.73-1.01
							c2.71,4.66,6.62,7.28,11,7.39c4.68,0.09,9.31-2.66,12.42-7.43l1.68,1.09C39.36,229.45,34.22,232.55,28.96,232.55z"/>
						<path class="st3" d="M65.72,224.84c-3.1-4.77-7.78-7.52-12.42-7.43c-4.38,0.11-8.29,2.73-11,7.39l-1.73-1.01
							c3.08-5.28,7.58-8.25,12.68-8.38c5.36-0.16,10.66,2.98,14.14,8.34L65.72,224.84z"/>
						<path class="st3" d="M78.45,232.87c-0.11,0-0.22,0-0.33,0c-5.1-0.13-9.6-3.1-12.68-8.38l1.73-1.01
							c2.71,4.66,6.62,7.28,11,7.39c4.66,0.14,9.31-2.66,12.42-7.43l1.68,1.09C88.85,229.77,83.71,232.87,78.45,232.87z"/>
						<path class="st3" d="M115.21,225.16c-3.1-4.77-7.73-7.58-12.42-7.43c-4.38,0.11-8.29,2.73-11,7.39l-1.73-1.01
							c3.08-5.28,7.58-8.25,12.68-8.38c5.37-0.14,10.66,2.98,14.14,8.34L115.21,225.16z"/>
					</g>
					<g>
						<path class="st3" d="M-69.84,261.58c-0.11,0-0.22,0-0.33,0c-5.1-0.13-9.6-3.1-12.68-8.38l1.73-1.01
							c2.71,4.66,6.62,7.28,11,7.39c4.66,0.13,9.31-2.66,12.42-7.43l1.68,1.09C-59.44,258.48-64.58,261.58-69.84,261.58z"/>
						<path class="st3" d="M-33.08,253.87c-3.1-4.77-7.73-7.58-12.42-7.43c-4.38,0.11-8.29,2.73-11,7.39l-1.73-1.01
							c3.08-5.28,7.58-8.25,12.68-8.38c5.37-0.15,10.66,2.99,14.14,8.34L-33.08,253.87z"/>
						<path class="st3" d="M-20.35,261.89c-0.11,0-0.22,0-0.33,0c-5.1-0.13-9.6-3.1-12.68-8.38l1.73-1.01
							c2.71,4.66,6.62,7.28,11,7.39c4.66,0.09,9.31-2.66,12.42-7.43l1.68,1.09C-9.95,258.79-15.09,261.89-20.35,261.89z"/>
						<path class="st3" d="M16.41,254.18c-3.1-4.77-7.74-7.52-12.42-7.43c-4.38,0.11-8.29,2.73-11,7.39l-1.73-1.01
							c3.08-5.28,7.58-8.25,12.68-8.38c5.39-0.13,10.66,2.99,14.14,8.34L16.41,254.18z"/>
						<path class="st3" d="M28.54,261.58c-0.11,0-0.22,0-0.33,0c-5.1-0.13-9.6-3.1-12.68-8.38l1.73-1.01
							c2.71,4.66,6.62,7.28,11,7.39c4.67,0.14,9.31-2.66,12.42-7.43l1.68,1.09C38.94,258.48,33.8,261.58,28.54,261.58z"/>
						<path class="st3" d="M65.3,253.87c-3.1-4.77-7.73-7.58-12.42-7.43c-4.38,0.11-8.29,2.73-11,7.39l-1.73-1.01
							c3.08-5.28,7.58-8.25,12.68-8.38c5.35-0.15,10.66,2.99,14.14,8.34L65.3,253.87z"/>
						<path class="st3" d="M78.03,261.89c-0.11,0-0.22,0-0.33,0c-5.1-0.13-9.6-3.1-12.68-8.38l1.73-1.01
							c2.71,4.66,6.62,7.28,11,7.39c4.66,0.09,9.31-2.66,12.42-7.43l1.68,1.09C88.43,258.79,83.29,261.89,78.03,261.89z"/>
						<path class="st3" d="M114.79,254.18c-3.1-4.77-7.75-7.52-12.42-7.43c-4.38,0.11-8.29,2.73-11,7.39l-1.73-1.01
							c3.08-5.28,7.58-8.25,12.68-8.38c5.39-0.13,10.66,2.99,14.14,8.34L114.79,254.18z"/>
					</g>
					<g>
						<path class="st3" d="M-70.27,290.6c-0.11,0-0.22,0-0.33,0c-5.1-0.13-9.6-3.1-12.68-8.38l1.73-1.01
							c2.71,4.66,6.62,7.28,11,7.39c4.66,0.1,9.31-2.66,12.42-7.43l1.68,1.09C-59.87,287.5-65.01,290.6-70.27,290.6z"/>
						<path class="st3" d="M-33.5,282.88c-3.1-4.77-7.74-7.54-12.42-7.43c-4.38,0.11-8.29,2.73-11,7.39l-1.73-1.01
							c3.08-5.28,7.58-8.25,12.68-8.38c5.37-0.15,10.66,2.98,14.14,8.34L-33.5,282.88z"/>
						<path class="st3" d="M-20.78,290.92c-0.11,0-0.22,0-0.33,0c-5.1-0.13-9.6-3.1-12.68-8.38l1.73-1.01
							c2.71,4.66,6.62,7.28,11,7.39c4.67,0.08,9.31-2.66,12.42-7.43l1.68,1.09C-10.38,287.82-15.52,290.92-20.78,290.92z"/>
						<path class="st3" d="M15.99,283.2c-3.1-4.77-7.76-7.58-12.42-7.43c-4.38,0.11-8.29,2.73-11,7.39l-1.73-1.01
							c3.08-5.28,7.58-8.25,12.68-8.38c5.4-0.14,10.66,2.99,14.14,8.34L15.99,283.2z"/>
						<path class="st3" d="M28.12,290.6c-0.11,0-0.22,0-0.33,0c-5.1-0.13-9.6-3.1-12.68-8.38l1.73-1.01c2.71,4.66,6.62,7.28,11,7.39
							c4.64,0.1,9.31-2.66,12.42-7.43l1.68,1.09C38.52,287.5,33.38,290.6,28.12,290.6z"/>
						<path class="st3" d="M64.88,282.88c-3.1-4.77-7.75-7.54-12.42-7.43c-4.38,0.11-8.29,2.73-11,7.39l-1.73-1.01
							c3.08-5.28,7.58-8.25,12.68-8.38c5.35-0.14,10.66,2.98,14.14,8.34L64.88,282.88z"/>
						<path class="st3" d="M77.61,290.92c-0.11,0-0.22,0-0.33,0c-5.1-0.13-9.6-3.1-12.68-8.38l1.73-1.01
							c2.71,4.66,6.62,7.28,11,7.39c4.68,0.1,9.31-2.66,12.42-7.43l1.68,1.09C88.01,287.82,82.87,290.92,77.61,290.92z"/>
						<path class="st3" d="M114.37,283.2c-3.1-4.77-7.74-7.57-12.42-7.43c-4.38,0.11-8.29,2.73-11,7.39l-1.73-1.01
							c3.08-5.28,7.58-8.25,12.68-8.38c5.4-0.14,10.66,2.98,14.14,8.34L114.37,283.2z"/>
					</g>
					<g>
						<path class="st3" d="M-70.69,319.62c-0.11,0-0.22,0-0.33,0c-5.1-0.13-9.6-3.1-12.68-8.38l1.73-1.01
							c2.71,4.66,6.62,7.28,11,7.39c4.67,0.15,9.31-2.66,12.42-7.43l1.68,1.09C-60.29,316.52-65.43,319.62-70.69,319.62z"/>
						<path class="st3" d="M-33.93,311.91c-3.1-4.77-7.71-7.58-12.42-7.43c-4.38,0.11-8.29,2.73-11,7.39l-1.73-1.01
							c3.08-5.28,7.58-8.25,12.68-8.38c5.36-0.16,10.66,2.99,14.14,8.34L-33.93,311.91z"/>
						<path class="st3" d="M-21.2,319.94c-0.11,0-0.22,0-0.33,0c-5.1-0.13-9.6-3.1-12.68-8.38l1.73-1.01
							c2.71,4.66,6.62,7.28,11,7.39c4.67,0.14,9.31-2.66,12.42-7.43l1.68,1.09C-10.8,316.84-15.94,319.94-21.2,319.94z"/>
						<path class="st3" d="M15.56,312.22c-3.1-4.77-7.75-7.54-12.42-7.43c-4.38,0.11-8.29,2.73-11,7.39l-1.73-1.01
							c3.08-5.28,7.58-8.25,12.68-8.38c5.34-0.15,10.66,2.98,14.14,8.34L15.56,312.22z"/>
						<path class="st3" d="M27.7,319.62c-0.11,0-0.22,0-0.33,0c-5.1-0.13-9.6-3.1-12.68-8.38l1.73-1.01c2.71,4.66,6.62,7.28,11,7.39
							c4.67,0.14,9.31-2.66,12.42-7.43l1.68,1.09C38.1,316.52,32.96,319.62,27.7,319.62z"/>
						<path class="st3" d="M64.46,311.91c-3.1-4.77-7.72-7.58-12.42-7.43c-4.38,0.11-8.29,2.73-11,7.39l-1.73-1.01
							c3.08-5.28,7.58-8.25,12.68-8.38c5.36-0.16,10.66,2.99,14.14,8.34L64.46,311.91z"/>
						<path class="st3" d="M77.19,319.94c-0.11,0-0.22,0-0.33,0c-5.1-0.13-9.6-3.1-12.68-8.38l1.73-1.01
							c2.71,4.66,6.62,7.28,11,7.39c4.67,0.14,9.31-2.66,12.42-7.43l1.68,1.09C87.59,316.84,82.45,319.94,77.19,319.94z"/>
						<path class="st3" d="M113.95,312.22c-3.1-4.77-7.78-7.52-12.42-7.43c-4.38,0.11-8.29,2.73-11,7.39l-1.73-1.01
							c3.08-5.28,7.58-8.25,12.68-8.38c5.36-0.14,10.66,2.98,14.14,8.34L113.95,312.22z"/>
					</g>
					<g>
						<path class="st3" d="M-71.11,348.64c-0.11,0-0.22,0-0.33,0c-5.1-0.13-9.6-3.1-12.68-8.38l1.73-1.01
							c2.71,4.66,6.62,7.28,11,7.39c4.65,0.1,9.31-2.66,12.42-7.43l1.68,1.09C-60.71,345.54-65.85,348.64-71.11,348.64z"/>
						<path class="st3" d="M-34.35,340.93c-3.1-4.77-7.77-7.52-12.42-7.43c-4.38,0.11-8.29,2.73-11,7.39l-1.73-1.01
							c3.08-5.28,7.58-8.25,12.68-8.38c5.35-0.16,10.66,2.98,14.14,8.34L-34.35,340.93z"/>
						<path class="st3" d="M-21.62,348.96c-0.11,0-0.22,0-0.33,0c-5.1-0.13-9.6-3.1-12.68-8.38l1.73-1.01
							c2.71,4.66,6.62,7.28,11,7.39c4.66,0.1,9.31-2.66,12.42-7.43l1.68,1.09C-11.22,345.86-16.36,348.96-21.62,348.96z"/>
						<path class="st3" d="M15.14,341.24c-3.1-4.77-7.76-7.57-12.42-7.43c-4.38,0.11-8.29,2.73-11,7.39l-1.73-1.01
							c3.08-5.28,7.58-8.25,12.68-8.38c5.39-0.15,10.66,2.98,14.14,8.34L15.14,341.24z"/>
						<path class="st3" d="M27.28,348.64c-0.11,0-0.22,0-0.33,0c-5.1-0.13-9.6-3.1-12.68-8.38l1.73-1.01
							c2.71,4.66,6.62,7.28,11,7.39c4.68,0.09,9.31-2.66,12.42-7.43l1.68,1.09C37.68,345.54,32.54,348.64,27.28,348.64z"/>
						<path class="st3" d="M64.04,340.93c-3.1-4.77-7.74-7.52-12.42-7.43c-4.38,0.11-8.29,2.73-11,7.39l-1.73-1.01
							c3.08-5.28,7.58-8.25,12.68-8.38c5.39-0.15,10.66,2.99,14.14,8.34L64.04,340.93z"/>
						<path class="st3" d="M76.77,348.96c-0.11,0-0.22,0-0.33,0c-5.1-0.13-9.6-3.1-12.68-8.38l1.73-1.01
							c2.71,4.66,6.62,7.28,11,7.39c4.7,0.09,9.31-2.66,12.42-7.43l1.68,1.09C87.17,345.86,82.03,348.96,76.77,348.96z"/>
						<path class="st3" d="M113.53,341.24c-3.1-4.77-7.74-7.58-12.42-7.43c-4.38,0.11-8.29,2.73-11,7.39l-1.73-1.01
							c3.08-5.28,7.58-8.25,12.68-8.38c5.4-0.15,10.66,2.99,14.14,8.34L113.53,341.24z"/>
					</g>
					<g>
						<path class="st3" d="M-71.53,377.66c-0.11,0-0.22,0-0.33,0c-5.1-0.13-9.6-3.1-12.68-8.38l1.73-1.01
							c2.71,4.66,6.62,7.28,11,7.39c4.66,0.14,9.31-2.66,12.42-7.43l1.68,1.09C-61.13,374.56-66.27,377.66-71.53,377.66z"/>
						<path class="st3" d="M-34.77,369.95c-3.1-4.77-7.73-7.56-12.42-7.43c-4.38,0.11-8.29,2.73-11,7.39l-1.73-1.01
							c3.08-5.28,7.58-8.25,12.68-8.38c5.36-0.17,10.66,2.99,14.14,8.34L-34.77,369.95z"/>
						<path class="st3" d="M-22.04,377.98c-0.11,0-0.22,0-0.33,0c-5.1-0.13-9.6-3.1-12.68-8.38l1.73-1.01
							c2.71,4.66,6.62,7.28,11,7.39c4.66,0.16,9.31-2.66,12.42-7.43l1.68,1.09C-11.64,374.88-16.78,377.98-22.04,377.98z"/>
						<path class="st3" d="M14.72,370.27c-3.1-4.77-7.76-7.53-12.42-7.43c-4.38,0.11-8.29,2.73-11,7.39l-1.73-1.01
							c3.08-5.28,7.58-8.25,12.68-8.38c5.41-0.14,10.66,2.98,14.14,8.34L14.72,370.27z"/>
						<path class="st3" d="M26.86,377.66c-0.11,0-0.22,0-0.33,0c-5.1-0.13-9.6-3.1-12.68-8.38l1.73-1.01
							c2.71,4.66,6.62,7.28,11,7.39c4.66,0.14,9.31-2.66,12.42-7.43l1.68,1.09C37.26,374.56,32.12,377.66,26.86,377.66z"/>
						<path class="st3" d="M63.62,369.95c-3.1-4.77-7.76-7.6-12.42-7.43c-4.38,0.11-8.29,2.73-11,7.39l-1.73-1.01
							c3.08-5.28,7.58-8.25,12.68-8.38c5.4-0.16,10.66,2.99,14.14,8.34L63.62,369.95z"/>
						<path class="st3" d="M76.35,377.98c-0.11,0-0.22,0-0.33,0c-5.1-0.13-9.6-3.1-12.68-8.38l1.73-1.01
							c2.71,4.66,6.62,7.28,11,7.39c4.66,0.16,9.31-2.66,12.42-7.43l1.68,1.09C86.75,374.88,81.61,377.98,76.35,377.98z"/>
						<path class="st3" d="M113.11,370.27c-3.1-4.77-7.77-7.53-12.42-7.43c-4.38,0.11-8.29,2.73-11,7.39l-1.73-1.01
							c3.08-5.28,7.58-8.25,12.68-8.38c5.37-0.16,10.66,2.98,14.14,8.34L113.11,370.27z"/>
					</g>
					<g>
						<path class="st3" d="M-71.95,406.68c-0.11,0-0.22,0-0.33,0c-5.1-0.13-9.6-3.1-12.68-8.38l1.73-1.01
							c2.71,4.66,6.62,7.28,11,7.39c4.67,0.07,9.31-2.66,12.42-7.43l1.68,1.09C-61.55,403.58-66.69,406.68-71.95,406.68z"/>
						<path class="st3" d="M-35.19,398.97c-3.1-4.77-7.76-7.53-12.42-7.43c-4.38,0.11-8.29,2.73-11,7.39l-1.73-1.01
							c3.08-5.28,7.58-8.25,12.68-8.38c5.34-0.14,10.66,2.98,14.14,8.34L-35.19,398.97z"/>
						<path class="st3" d="M-22.46,407c-0.11,0-0.22,0-0.33,0c-5.1-0.13-9.6-3.1-12.68-8.38l1.73-1.01c2.71,4.66,6.62,7.28,11,7.39
							c4.66,0.09,9.31-2.66,12.42-7.43l1.68,1.09C-12.06,403.9-17.2,407-22.46,407z"/>
						<path class="st3" d="M14.3,399.29c-3.1-4.77-7.73-7.56-12.42-7.43c-4.38,0.11-8.29,2.73-11,7.39l-1.73-1.01
							c3.08-5.28,7.58-8.25,12.68-8.38c5.36-0.13,10.66,2.99,14.14,8.34L14.3,399.29z"/>
						<path class="st3" d="M26.43,406.68c-0.11,0-0.22,0-0.33,0c-5.1-0.13-9.6-3.1-12.68-8.38l1.73-1.01
							c2.71,4.66,6.62,7.28,11,7.39c4.67,0.07,9.31-2.66,12.42-7.43l1.68,1.09C36.83,403.58,31.69,406.68,26.43,406.68z"/>
						<path class="st3" d="M63.2,398.97c-3.1-4.77-7.78-7.51-12.42-7.43c-4.38,0.11-8.29,2.73-11,7.39l-1.73-1.01
							c3.08-5.28,7.58-8.25,12.68-8.38c5.36-0.14,10.66,2.98,14.14,8.34L63.2,398.97z"/>
						<path class="st3" d="M75.92,407c-0.11,0-0.22,0-0.33,0c-5.1-0.13-9.6-3.1-12.68-8.38l1.73-1.01c2.71,4.66,6.62,7.28,11,7.39
							c4.69,0.09,9.31-2.66,12.42-7.43l1.68,1.09C86.32,403.9,81.18,407,75.92,407z"/>
						<path class="st3" d="M112.69,399.29c-3.1-4.77-7.73-7.56-12.42-7.43c-4.38,0.11-8.29,2.73-11,7.39l-1.73-1.01
							c3.08-5.28,7.58-8.25,12.68-8.38c5.36-0.13,10.66,2.99,14.14,8.34L112.69,399.29z"/>
					</g>
				</g>
			</g>
			<g>
				<defs>
					<rect id="SVGID_7_" x="-30.75" y="-70.83" width="514.45" height="514.45"/>
				</defs>
				<clipPath id="SVGID_8_">
					<use xlink:href="#SVGID_7_"  style="overflow:visible;"/>
				</clipPath>
				
					<radialGradient id="SVGID_9_" cx="298.1199" cy="325.6368" r="127.6958" fx="353.8986" fy="283.0168" gradientTransform="matrix(1 0 0 -1 0 376.3328)" gradientUnits="userSpaceOnUse">
					<stop  offset="0.4346" style="stop-color:#D99542"/>
					<stop  offset="1" style="stop-color:#FFD197"/>
				</radialGradient>
				<circle class="st4" cx="288.52" cy="83.54" r="127.7"/>
			</g>
			<g>
				<defs>
					<rect id="SVGID_10_" x="-30.75" y="-70.83" width="514.45" height="514.45"/>
				</defs>
				<clipPath id="SVGID_11_">
					<use xlink:href="#SVGID_10_"  style="overflow:visible;"/>
				</clipPath>
				<path class="st5" d="M390.62,454.03c-8.3-34.26-17.28-68.35-26.97-102.24c-4.84-16.95-9.85-33.84-15.05-50.69
					c-3.94-12.77-8.42-24.92-18.27-33.83c-3.04-5.12-6.32-10.1-9.91-14.85c-6.26-8.3-13.71-13.53-23.98-15.72
					c-20.59-4.39-41.52-1.01-61.91,2.8c-5.31,0.99-8.33,7.41-6.98,12.3c0.49,1.78,1.38,3.23,2.53,4.36
					c-1.91,2.21-3.65,4.64-5.41,7.05c-4.02,5.52-7.89,11.18-10.98,17.28c-2.28,4.5-4.49,9.72-6.03,15.18
					c-4.05,0.75-8.11,1.42-12.15,2.04c-0.61,0.09-0.93,0.14-0.95,0.14c-0.36,0.04-0.73,0.09-1.09,0.13
					c-1.28,0.14-2.55,0.28-3.83,0.39c-1.49,0.13-2.98,0.24-4.47,0.32c-15.31-9.4-27.21-24.66-32.28-41.85
					c-2.06-6.99-9.49-11.39-16.61-9.43c-4.61,1.27-8.16,5.08-9.42,9.54c-1.21,0.39-2.38,0.92-3.48,1.61
					c-29.04,0.67-50.28,32.72-66.97,53.46C32.74,341.45,9.06,370.87-14.6,400.3c-1.9,2.37-2.97,5.25-2.8,8.05
					c-3.2,16.68-4.23,33.6-2.69,50.53c0.49,5.38,4.25,10,10,10c0.7,0,1.41-0.1,2.11-0.26c101.43,3.5,202.85,18.25,304.44,10.62
					c28.85-2.17,57.6-6.18,85.84-12.56c1.81-0.41,3.24-1.17,4.33-2.14C389.76,462.43,391.77,458.75,390.62,454.03z M296.12,257.58
					c1.79,0.77,3.38,1.75,4.87,3.03C299.42,259.52,297.8,258.51,296.12,257.58z"/>
			</g>
			<g>
				<defs>
					<rect id="SVGID_12_" x="-30.75" y="-70.83" width="514.45" height="514.45"/>
				</defs>
				<clipPath id="SVGID_13_">
					<use xlink:href="#SVGID_12_"  style="overflow:visible;"/>
				</clipPath>
				<path class="st6" d="M40.37,336.71c0.77-2.15-2.16-3.21-3.45-1.75c-0.26,0.16-0.5,0.4-0.66,0.74
					C24.5,360.11,1.72,377.66-7.92,403.26c-0.22,0.6-0.44,1.27-0.18,1.85c0.39,0.86,1.65,0.98,2.46,0.48c0.8-0.5,1.25-1.4,1.66-2.25
					c9.61-19.65,23.6-36.78,37.46-53.7c-5.73,13.37-4.32,31.56-4.07,45.81c0.11,6.44,0.19,13,0.94,19.4
					c0.43,3.65,1.44,6.77,4.63,8.83c1.19,0.77,2.49-0.06,2.94-1.2C48.96,394.54,30.31,364.74,40.37,336.71z M33.71,405.04
					c-0.24-5.01-0.35-10.02-0.34-15.03C33.51,395.02,33.62,400.04,33.71,405.04C33.71,405.05,33.71,405.04,33.71,405.04z
					 M33.74,406.87c0.03,1.75,0.06,3.51,0.08,5.26C33.71,410.3,33.75,408.45,33.74,406.87z"/>
			</g>
			<g>
				<defs>
					<rect id="SVGID_14_" x="-30.75" y="-70.83" width="514.45" height="514.45"/>
				</defs>
				<clipPath id="SVGID_15_">
					<use xlink:href="#SVGID_14_"  style="overflow:visible;"/>
				</clipPath>
				<path class="st7" d="M97.01,357.8c-5.69-8.23-11.84-16.14-18.41-23.68c-4.55-5.23-9.49-10.65-10.78-17.46
					c-0.95-5.01,0.2-10.3-1.15-15.22c-9.69,7.57-15.29,19.45-17.52,31.54c-2.24,12.09-1.43,24.52-0.31,36.76
					c0.25,2.71,5.49,20.41,8.43,10.21c2.36-8.21-0.29-16.9-1.46-25.36c-1.46-10.52-0.57-21.36,2.59-31.5
					c-0.99,3.2,2.49,11.82,2.65,15.74c0.25,6.24,0.47,12.49,0.93,18.72c0.94,12.73,2.71,25.48,6.61,37.68
					c0.67,2.08,1.44,4.22,3.01,5.74c1.56,1.52,4.15,2.22,5.97,1.03c2.94-1.92,1.77-6.43,0.26-9.61c-6.63-14-12.34-26.94-11.55-42.87
					c0.41-8.59,3.78-17.5,0.64-25.5c5.16,16.77,13.63,32.52,24.78,46.08c1.27-0.49,0.6-2.4-0.25-3.46
					c-9.86-12.44-17.4-26.71-22.1-41.88c8.36,10.87,16.72,21.73,25.07,32.6c0.76,0.99,2.21,2.03,3.05,1.12
					C97.32,358.25,97.16,358.02,97.01,357.8z M54.03,376.44c-0.03-0.08-0.04-0.17-0.07-0.26c0.13-0.31,0.21-0.67,0.19-1.09
					c-0.12-2.5-0.26-5-0.4-7.5C54.25,370.56,54.58,373.55,54.03,376.44z M62.16,317.51c-0.14-0.17-0.28-0.34-0.43-0.51
					c0.18-0.35,0.36-0.71,0.54-1.07C62.23,316.46,62.19,316.99,62.16,317.51z"/>
			</g>
			<g>
				<defs>
					<rect id="SVGID_16_" x="-30.75" y="-70.83" width="514.45" height="514.45"/>
				</defs>
				<clipPath id="SVGID_17_">
					<use xlink:href="#SVGID_16_"  style="overflow:visible;"/>
				</clipPath>
				<path class="st8" d="M186.36,443.79c-22.21,9.74-46.13,12.99-69.96,16.68c-0.81-0.58-1.83-0.94-3.08-0.97
					c-4.41-0.08-8.82-0.24-13.22-0.47c5.68-2.29,11.43-4.41,17.27-6.32c0.52-0.19,0.97-0.43,1.38-0.71
					c4.14,1.22,8.58-4.39,6.03-8.29c-3.03-4.65-4.38-9.6-4.62-14.65c1.16-4.59,3.45-9.2,4.74-12.3c1.99-4.74,3.97-9.48,5.96-14.21
					c1.92-4.58,4.71-9.5,4.67-14.61c-0.06-8.96-8.1-12.31-13.86-17.45c-3.62-3.23-6.59-7.22-8.66-11.61
					c-2.89-6.12-6.22-14.25-6.95-20.97c-0.38-3.51-0.03-7.09-0.65-10.57c-0.52-2.9-2.23-7.15-5.38-8.12
					c-3.1-0.96-5.8,0.78-4.82,4.16c2.76,9.47,3.93,19.27,3.43,29.01c-0.33,3.09-0.66,6.18-0.99,9.27c-0.59,3.63-1.42,7.24-2.5,10.8
					c-2.26,7.42-5.87,14.39-7.78,21.93c-1.96,7.74-0.62,14.67-0.26,22.46c0.57,12.13-6.49,22.21-13.25,31.63
					c-1.45,2.01-2.9,4.03-4.33,6.07c-1.2,1.1-2.39,2.22-3.54,3.38c-1.38,1.38-1.81,2.96-1.58,4.43c-1.92,3.2-3.65,6.5-5,9.97
					c-2.7,0.9-4.23,4.5-2,6.44c-0.09,0.37-0.18,0.73-0.26,1.1c-0.04,0.19-0.04,0.36-0.06,0.54c-0.08,0.16-0.18,0.3-0.25,0.48
					c-4.05,10.15,10.59,10.13,16.36,10.29c11.38,0.31,22.75,0.62,34.13,0.93c0.62,0.02,1.17-0.09,1.64-0.28
					c0.45,0.02,0.91,0.06,1.36,0.08c5.15,0.23,5.14-7.77,0-8c-10.39-0.47-20.64-2.15-30.57-5.02
					c37.03-10.27,76.52-9.96,112.15-25.59C198.38,450.45,192.79,440.97,186.36,443.79z M64.56,483.02c0.08-0.2,0.12-0.38,0.16-0.57
					c0.03-0.11,0.07-0.21,0.1-0.32c0.55,0.22,1.1,0.42,1.65,0.63C65.38,482.77,64.62,482.84,64.56,483.02z"/>
			</g>
			<g>
				<defs>
					<rect id="SVGID_18_" x="-30.75" y="-70.83" width="514.45" height="514.45"/>
				</defs>
				<clipPath id="SVGID_19_">
					<use xlink:href="#SVGID_18_"  style="overflow:visible;"/>
				</clipPath>
				<path class="st9" d="M338.73,269.54c-0.78-1.17-2.29-0.47-3.39,0.63c-0.35,0.35-0.66,0.74-0.89,1.12
					c-5.93,9.87-12.56,19.34-19.81,28.28c-3.38,4.17-6.07,8.35-8.82,12.97c-1.9,3.19-5.19,12.9-8.27,14.66
					c-0.86,0.49-1.59,1.29-2.01,2.43c-18.53,50.19-11.76,105.33-27.99,156.06c-0.67,2.11,0.8,5.19,3.14,5.54
					c3.16,0.46,6.2,0.47,9.14-0.02c6.88,6.45,16.36,0.19,17.01-8.18c0.41-5.22-1.58-10.76-3.17-15.65
					c-1.28-3.93-2.78-7.79-4.45-11.58c-1.29-2.94-4.44-6.36-4.01-9.63c0.22-1.7,0.45-3.4,0.67-5.09c0.15-1.13,0.3-2.27,0.77-3.31
					c0.65-1.44,1.85-2.53,2.9-3.72c6.1-6.91,6.91-17.76,1.74-25.41c-0.46-0.68-1.06-1.06-1.7-1.24c0.75-7.37,0.43-14.94,1.97-22.22
					c1.51-7.12,5.37-12.93,8.58-19.34c3.49-6.97,4.37-14.35-0.1-21.06c-1.85-2.78,2.03-7.05,3.05-9.46
					c1.63-3.87,0.46-8.3,1.71-12.26c6.4-20.17,25.6-32.04,33.75-51C338.91,271.26,339.22,270.27,338.73,269.54z"/>
			</g>
			<g>
				<defs>
					<rect id="SVGID_20_" x="-30.75" y="-70.83" width="514.45" height="514.45"/>
				</defs>
				<clipPath id="SVGID_21_">
					<use xlink:href="#SVGID_20_"  style="overflow:visible;"/>
				</clipPath>
				<path class="st10" d="M241.4,214.93c1.38-12.37,0.11-24.99-3.11-36.99c-0.95-3.55-3.28-5.56-5.97-6.34
					c0.01-0.13,0.02-0.26,0.02-0.39c0.15-0.34,0.3-0.68,0.44-1.02c3.61-2.21,5.78-6.2,4.55-10.66c-1.06-3.86-5.12-7.13-9.24-7.08
					c-0.32-0.21-0.64-0.43-0.99-0.62c-0.89-0.49-1.84-0.87-2.83-1.19c0-0.18,0.01-0.36,0-0.54c-0.65-11.77-9.66-20.61-21.2-22.23
					c-6.11-0.85-12.22,0.11-18.1,1.87c-5.49,1.65-10.95,4.33-16.69,4.98c-5.1,0.58-9.5,3.95-9.5,9.5c0,0.49,0.07,0.98,0.16,1.47
					c-1.14,0.73-2.15,1.65-2.98,2.74c-4.49,3.49-7.29,8.16-5.65,14.11c1.51,5.51,5.83,8.21,11.07,9.38
					c-4.59,0.28-8.94,2.6-11.97,7.03c-4.38,6.42-6.66,15.03-4.9,22.7c2.02,8.78,8.53,14.52,16.18,18.48
					c-9.88-1.62-19.7,11.39-10.67,20.32c7.16,7.09,15.56,12.79,24.2,17.91c7.15,4.23,14.79,9,23.14,9.05
					c0.62,9.65,1.24,19.3,1.86,28.95c0.53,8.24,9.98,12.49,16.22,6.72c15.71-14.56,21.93-37.67,15.8-58.17
					c-0.23-0.77-0.53-1.46-0.88-2.09C238.38,235.94,240.25,225.25,241.4,214.93z M166.99,223.48c-0.35-0.35-0.71-0.67-1.08-0.96
					c1.31,0.53,2.62,1.02,3.94,1.47c3.51,3.5,7.81,6.22,12.78,7.78c-0.18,1.08-0.38,2.17-0.61,3.25
					C176.61,231.64,171.55,228,166.99,223.48z"/>
			</g>
			<g>
				<defs>
					<rect id="SVGID_22_" x="-30.75" y="-70.83" width="514.45" height="514.45"/>
				</defs>
				<clipPath id="SVGID_23_">
					<use xlink:href="#SVGID_22_"  style="overflow:visible;"/>
				</clipPath>
				<path class="st11" d="M212.85,193.53c-2.68-6.01-11.2,1.53-14.69,2.7c0.24-0.08-7.49-26.24-8.12-28.44
					c-1.32-4.6-4.03-7.34-9.08-6.65v0.86c0.82-0.03,1.62,0.38,1.87,1.42c2.65,11.1,2.91,22.12,2.01,33.46
					c-0.01,0.15-0.04,0.29-0.07,0.44c1.79,4.76,6.67,4.55,10.63,2.68c0.06-0.03,0.12-0.04,0.18-0.07c2.15,0.51,4.18,0.23,6.23-0.68
					c0.83-0.37,7.13-4.76,7.59-3.71C210.44,197.9,213.89,195.86,212.85,193.53z"/>
			</g>
			<g>
				<defs>
					<rect id="SVGID_24_" x="-30.75" y="-70.83" width="514.45" height="514.45"/>
				</defs>
				<clipPath id="SVGID_25_">
					<use xlink:href="#SVGID_24_"  style="overflow:visible;"/>
				</clipPath>
				<path class="st12" d="M156.85,239.35c12.95,11.38,28.17,15,45.16,14.47c12.53-0.39,23.32-4.42,33.35-10.67
					c0.23-3.1-1.96-3.21-4.23-2.82c-5.59,0.96-11.19,1.92-16.84,2.39c1.97-0.16-6.56-16.07-7.71-17.23
					c3.87,0.18,7.78-1.02,10.89-3.34c0.65-0.49,1.29-1.06,1.54-1.83c0.24-0.77-0.09-1.78-0.87-2c-0.95-0.27-1.76,0.66-2.47,1.35
					c-2.11,2.07-5.27,2.59-8.22,2.82c-4.74,0.38-7.76-2.61-10.77-6.01c0.31,0.22,0.7,0.35,1.16,0.28c7.12-0.99,15.76-0.88,22.3-4.03
					c1.74-0.84,0.22-3.42-1.51-2.59c-3.23,1.56-7.06,1.7-10.57,2.19c-3.5,0.49-7,0.97-10.49,1.46c2.07-2.65,1.57-6.26-0.38-8.93
					c-0.9-0.07-1.8-0.17-2.69-0.17c-0.13,0-0.26-0.02-0.38-0.04c-3.84-0.64-6.56,1.19-10.13-1.75c-3.73-3.07-3.04-7.03-2.79-11.39
					c0.75-13.2-4.4-23.93-6.4-36.54c-0.98-6.2-4.59-13.38-9.09-17.75c-2.08-2.02-4.7-4.06-7.79-3.39c-3.35,0.73-5.35,4.79-8.31,6.53
					c-2.32,1.36-4.8,2.54-6.7,4.44c-6.37,6.38,0.1,18.06-1.49,25.83c-1.91,9.34-2.09,19.11-1.28,28.61
					c0.85,9.95,2.61,19.79,3.94,29.69c1.1,8.24,2.98,18.23,0.09,26.38c-1.64,1.37-2.47,3.52-1.44,6.23
					c5.75,15.13,16.52,28.14,30.05,36.96c7.74,5.05,17.46,8.74,26.37,10.96c3.71,0.93,9.82,2.63,13.42,0.41
					c1.58-0.98,2.13-1.9,2.74-3.62c2.45-6.91,5.12-11.74,8.83-18.12c5.81-9.99,8.79-21.61,8.37-33.16c-0.07-1.92-0.65-3.52-1.55-4.8
					c-8.82,4.5-18.28,7.3-28.94,7.63c-18.09,0.56-34.23-3.56-47.98-15.64C152.09,240.47,154.93,237.66,156.85,239.35z
					 M153.28,190.95c-0.85-1.42-0.58-2.54,1.5-3.08c1.5-0.39,3.08-0.01,4.61,0.21c4.47,0.63,9.13-0.19,13.12-2.3
					c2.56-1.36,4.33-0.75,5.32,2.13c1.88,5.48,2.15,11.5,0.78,17.13c-0.21,0.87-0.54,1.83-1.35,2.22c-1.29,0.62-2.65-0.61-3.69-1.6
					C172.08,204.2,156.17,195.79,153.28,190.95z"/>
			</g>
			<g>
				<defs>
					<rect id="SVGID_26_" x="-30.75" y="-70.83" width="514.45" height="514.45"/>
				</defs>
				<clipPath id="SVGID_27_">
					<use xlink:href="#SVGID_26_"  style="overflow:visible;"/>
				</clipPath>
				<path class="st13" d="M248.41,252.35c0.25-1.01,0.01-1.86-0.49-2.49c0.25-5.74-3.09-10.91-8.69-12.9
					c-3.65-1.29-5.22,4.5-1.6,5.79c2.81,0.99,4.82,4.18,4.34,7.17c-0.13,0.79-0.03,1.58,0.31,2.24c-1.11,4.51-2.14,9.03-3.12,13.57
					c-0.03,0.04-0.06,0.08-0.09,0.13c-8.74,15.95-20.25,29.56-26.41,46.89c-3.05,8.58-5.33,17.43-7.19,26.34
					c-1.44,6.88-5.48,18.01-4.28,24.96c-2.99-17.31-6.98-34.71-14.75-50.56c-4.96-10.12-11.76-19.11-20.49-26.27
					c-4.3-3.53-9.37-6.14-13.39-9.87c-4.77-4.43-6.45-12.09-9.75-17.65c-1.97-3.32-7.16-0.3-5.18,3.03
					c4.54,7.63,7.54,17.31,15.1,22.26c0.97,0.64,1.98,1.24,2.74,2.12c3.83,4.43,4.97,14.99,6.24,20.51
					c1.86,8.08,3.26,16.25,4.38,24.46c2.26,16.53,3.43,33.2,4.87,49.82c2.84,32.84,7.21,65.56,13.1,97.99
					c1.51,8.29,3.63,29.16,17.64,22.85c6.71-3.02,5.02-9.96,4.63-15.76c-0.54-8.04-1.11-16.08-1.56-24.13
					c-0.92-16.22-1.5-32.47-1.3-48.71c0.41-32.19,3.95-64.66,14.39-95.26c3.04-8.92,6.66-17.65,10.87-26.08
					c0.07-0.14,0.12-0.29,0.16-0.43c2.42-3.15,4.73-6.36,6.94-9.64c-3.73,21.1-6.01,42.46-6.76,63.89
					c-0.57,16.18-0.28,32.38,0.88,48.53c1.14,15.91,3.46,31.69,4.93,47.57c1.7,18.42,2,37.01-2.97,54.99
					c-1.03,3.73,4.76,5.32,5.79,1.6c8.53-30.86,2.08-62.56-0.88-93.71c-3.06-32.23-2.66-64.78,1.16-96.92
					C240.26,289.67,243.79,270.88,248.41,252.35z M200.07,496.54c-4.52,5-7.65-4.86-8.26-7.86c-0.97-4.73-1.79-9.51-2.64-14.27
					c-1.6-9.01-3.08-18.05-4.45-27.1c-2.84-18.81-5.15-37.7-6.94-56.64c-3.12-32.86-2.61-67.27-13.88-98.68
					c1.25,1.04,2.35,2.2,3.18,3.58c0.42,0.69,0.98,1.09,1.58,1.29c19.78,23.26,24.77,54.77,29.21,84.05c0.14,0.94,0.6,1.54,1.2,1.87
					c-3.26,37.49-0.79,75.9,1.91,113.07C200.66,496.01,200.35,496.23,200.07,496.54z"/>
			</g>
			<g>
				<defs>
					<rect id="SVGID_28_" x="-30.75" y="-70.83" width="514.45" height="514.45"/>
				</defs>
				<clipPath id="SVGID_29_">
					<use xlink:href="#SVGID_28_"  style="overflow:visible;"/>
				</clipPath>
				<path class="st14" d="M281.45,150.63c-0.3-2.12-0.99-4.18-2.11-6.06c-1.39-2.32-3.23-4.19-5.34-5.64
					c0.01-0.02,0.02-0.03,0.03-0.05c2.65-4.86,0.84-10.57-3.73-13.12c0.65-1.1,1.29-2.2,1.94-3.29c3.45-5.87-0.88-14.83-8.2-14.29
					c-0.65,0.05-1.26,0.07-1.87,0.08c-0.23-3.23-2.88-6.77-5.95-7.9c0.07-3.31-2.19-6.16-5.12-7.68c-0.5-3.72-2.86-7.26-6.76-7.81
					c-0.41-0.06-0.83-0.12-1.24-0.17c0.68-5.27-4.36-10.09-9.66-10.61c-3.39-0.33-6.78-0.65-10.16-0.98
					c-0.04-0.26-0.07-0.52-0.11-0.78c-0.59-3.66-5.4-7.44-9.16-6.97c-1.15,0.14-2.31,0.29-3.46,0.43c-1.84-3.9-5.57-6.84-11.2-6.84
					c-0.47,0-0.91,0.03-1.35,0.07c-2.04-1.81-4.81-2.97-8.33-2.97c-3.67,0-6.54,1.26-8.6,3.21c-0.99-0.47-1.94-1.04-2.84-1.82
					c-5.06-4.37-12.32-3.14-15.23,2.64c-3.68-5.87-12.24-6.96-16.37-0.32c-0.15,0.24-0.3,0.48-0.44,0.72
					c-0.35-0.03-0.7-0.05-1.07-0.05c-3.37,0-6.03,1.11-7.99,2.84c-4.7-1.28-10.15,2.23-11.88,6.83c-0.18,0.47-0.42,1.18-0.72,1.98
					c-0.24-0.01-0.47-0.04-0.72-0.04c-4.5,0-7.74,1.96-9.72,4.77c-4.18,0.1-8.62,2.94-9.26,7.01c-0.05,0.31-0.11,0.61-0.16,0.92
					c-4.49,0.54-7.52,3.17-9.09,6.54c-3.92,1.29-7.24,4.97-6.87,9.13c0.04,0.45,0.05,0.87,0.03,1.29c-3.65,1.18-6.05,3.94-7.2,7.19
					c-2.3,1.2-4.25,3.48-4.78,5.92c-0.18,0.81-0.37,1.6-0.59,2.38c-3.47,1.11-5.81,3.66-7.02,6.7c-3.16,1.38-5.52,4.22-5.16,8.31
					c0.08,0.88,0.2,1.72,0.37,2.52c-0.01,0-0.02,0-0.03,0c0.2,1.05,0.25,2.12,0.19,3.18c-5.39,2.31-7.67,8.29-6.84,13.71
					c-4.42,3.12-5.92,9.15-4.48,14.25c-1.49,4.39-2.46,8.92-2.46,13.73c0.01,5,4.25,9.11,8.91,9.53c-0.03,0.2-0.05,0.4-0.08,0.6
					c-0.2,1.29-0.21,2.55-0.05,3.74c-0.4,3.84,0.75,7.87,3.44,10.61c0.09,0.68,0.24,1.36,0.43,2.04c0.28,2.71,1.32,5.32,3.14,7.33
					c-0.32,1.01-0.63,2.02-0.95,3.03c-1.3,4.15,0.6,7.96,3.76,10.15c0.14,5.85,5.22,11.44,11.77,9.29c1.65-0.54,3.33-1.16,5.04-1.51
					c-0.08,0.02,0.83-0.07,1.76-0.15c-2.22,5.65,2.33,12.81,8.81,13.01c-0.45,6.68,5.12,11.18,11.9,10.07
					c2.41-0.39,4.81-0.79,7.22-1.18c6.06,4.71,16.69,5.7,23.39,4.44c7.89-1.48,14.67-7.55,16.21-15.54
					c0.84-4.34-0.5-8.16-1.79-12.26c-1.35-4.31-2.63-8.64-3.83-13c-6.41-23.2-16.92-61.49,6.56-78.21c1.68-1,3.36-1.99,5.04-2.99
					c1.13-0.67,2.03-1.45,2.73-2.29c6.88-2.05,13.96-3.51,21-4.24c5.67-0.59,11.97-1.36,17.62-0.43c4.58,0.75,7.47,3.91,9.88,7.64
					c6.38,9.87,11.29,20.99,16.26,31.61c3.91,8.35,7.56,16.81,11.02,25.35c0,0.14,0,0.28,0.04,0.43c1.57,6.6,2.18,13.23,1.85,19.95
					c-1.09,5.16-2.17,10.31-3.26,15.47c-0.41,1.94,2.16,2.54,2.89,0.8c2.17-5.16,6.01-7.75,9.27-11.9c1.12-1.43,1.71-2.88,1.71-4.4
					c0.24-0.11,0.47-0.28,0.63-0.52c0.23-0.33,0.45-0.63,0.68-0.93c1.43-0.54,2.64-1.45,3.57-2.72c1.54-0.73,2.96-1.93,4.08-3.66
					c2.27-3.51,4.29-7.13,6.16-10.8c6.21-1.2,8.94-7.18,8.17-12.58c3.67-2.9,4.82-8.21,3.43-12.61c1.57-3.35,3.21-6.66,5.01-9.92
					C286.74,158.12,284.98,153.23,281.45,150.63z M243.24,224.24c0.11-0.52,0.22-1.04,0.33-1.55c0.36,0.2,0.78,0.26,1.17,0.14
					C244.18,223.33,243.65,223.81,243.24,224.24z"/>
			</g>
			<g>
				<defs>
					<rect id="SVGID_30_" x="-30.75" y="-70.83" width="514.45" height="514.45"/>
				</defs>
				<clipPath id="SVGID_31_">
					<use xlink:href="#SVGID_30_"  style="overflow:visible;"/>
				</clipPath>
				<path class="st15" d="M333.51,271.89c-7.61-14.48-16.21-27.07-32.5-32.21c-17.08-5.39-35.63-5.57-53.06-1.85
					c-3.76,0.8-4.61,4.3-3.49,7.09c-0.57,3.07,1.16,6.67,5.2,6.71c14.99,0.17,29.8,3.26,43.53,8.99c0.66,0.35,1.3,0.72,1.94,1.1
					c-0.93,0.08-1.85,0.22-2.76,0.46c-2.01,0.54-3.82,1.5-5.45,2.77c-2.25,1.75-4.65,4.56-7.81,3.9c-4.22-0.88-6.19-5.52-10.86-5.73
					c-3.58-0.16-6.99,1.76-8.7,4.89c-0.31,0.57,0.56,1.07,0.86,0.5c2.18-4.01,7.46-5.66,11.44-3.28c2.81,1.68,4.95,5.02,8.61,4.72
					c3.82-0.31,6.31-4.18,9.51-5.8c2.09-1.06,4.38-1.54,6.67-1.5c2.65,1.73,5.14,3.77,7.44,6.13c2.02,2.07,4.51,2,6.42,0.85
					c3.77,2.39,7.41,5,10.89,7.84c1.14,0.93,2.39,1.32,3.6,1.33C328.86,282.74,336.52,277.62,333.51,271.89z"/>
			</g>
			<g>
				<defs>
					<rect id="SVGID_32_" x="-30.75" y="-70.83" width="514.45" height="514.45"/>
				</defs>
				<clipPath id="SVGID_33_">
					<use xlink:href="#SVGID_32_"  style="overflow:visible;"/>
				</clipPath>
				<path class="st16" d="M135.19,268.09c-0.61-1.49-1.33-2.81-1.88-3.68c-4.62-7.28-38.08-2.61-38.58,6.44
					c-0.49,8.97,31.26,6.42,37.22,6.69C137.88,277.82,136.94,272.32,135.19,268.09z"/>
			</g>
			<g>
				<defs>
					<rect id="SVGID_34_" x="-30.75" y="-70.83" width="514.45" height="514.45"/>
				</defs>
				<clipPath id="SVGID_35_">
					<use xlink:href="#SVGID_34_"  style="overflow:visible;"/>
				</clipPath>
				<path class="st17" d="M268.74,196.01c-2.16,2.07-3.22,4.54-4.16,7.34c-0.66,1.96-1.11,4.05-2.21,5.84
					c-1.37,2.24-3.44,3.15-5.57,4.45c-4.07,2.47-5.06,5.74-7,9.9c-1.19,2.54-2.97,5.05-5.64,5.89c-0.99,0.31-2.24,0.53-2.55,1.51
					c-0.14,0.43-0.04,0.91-0.12,1.36c-0.21,1.15-1.57,1.79-2.72,1.61c-4.6-0.69,0.97-12.43,1.32-16.32
					c0.64-7.08-0.19-14.22-1.09-21.24c-0.03-0.25-0.12-0.47-0.23-0.65c0-0.01,0-0.02-0.01-0.03c-4.69-10.67-9.38-21.34-14.07-32.01
					c-0.01-0.13-0.04-0.27-0.1-0.42c-4.67-12.04-9.76-24.17-20.74-31.78c-1.59-1.1-3.09,1.5-1.51,2.59
					c10.17,7.05,14.91,18.54,19.24,29.67c0.01,0.19,0.05,0.38,0.13,0.57c4.79,10.9,9.58,21.79,14.37,32.69
					c0.81,6.31,1.78,12.69,1.41,19.08c-0.39,6.78-3.12,11.33-5.49,17.47c-0.13,0.34-0.25,0.73-0.06,1.04
					c0.16,0.26,0.49,0.36,0.79,0.44c3.2,0.82,9.08,2.93,11.46-0.89c0.35-0.56,0.28-1.09-0.01-1.5c2.92-1.01,5.45-2.68,7.31-5.24
					c0.81-1.12,1.45-2.31,1.92-3.61c1.22-3.36,1.66-5.49,4.9-7.56c2.81-1.79,5.31-3.05,6.95-6.1c2.12-3.95,2.22-8.75,5.6-11.99
					C272.24,196.8,270.12,194.68,268.74,196.01z"/>
			</g>
			<g>
				<defs>
					<rect id="SVGID_36_" x="-30.75" y="-70.83" width="514.45" height="514.45"/>
				</defs>
				<clipPath id="SVGID_37_">
					<use xlink:href="#SVGID_36_"  style="overflow:visible;"/>
				</clipPath>
				<path class="st18" d="M205.83,66c-1.76,0.47-2.59,1.84-3.92,2.96c-2.95,2.49-5.75-1.03-8.45-2.03
					c-3.18-1.17-6.65,0.41-8.18,3.34c-0.3,0.57,0.57,1.08,0.86,0.5c1.32-2.53,4.14-3.82,6.89-2.91c1.83,0.6,3.24,2.07,5.06,2.72
					c3.92,1.39,4.8-2.76,8.01-3.62C206.72,66.8,206.46,65.84,205.83,66z"/>
			</g>
			<g>
				<defs>
					<rect id="SVGID_38_" x="-30.75" y="-70.83" width="514.45" height="514.45"/>
				</defs>
				<clipPath id="SVGID_39_">
					<use xlink:href="#SVGID_38_"  style="overflow:visible;"/>
				</clipPath>
				<path class="st19" d="M232.68,84.3c-2.54-0.74-5.19-1.22-7.23,0.84c-1.93,1.95-2.82,6.55-6.22,5.84c-1.79-0.37-2.92-2-4.53-2.78
					c-1.03-0.5-2.14-0.67-3.28-0.57c-2.43,0.22-4.49,1.67-5.52,3.86c-0.27,0.58,0.59,1.09,0.86,0.5c1.87-4,6.18-4.04,9.32-1.65
					c1.43,1.08,2.91,2.23,4.81,1.69c1.53-0.44,2.43-1.86,3.2-3.14c0.62-1.03,1.17-2.21,2.05-3.05c1.8-1.73,4.07-1.22,6.26-0.58
					C233.03,85.44,233.29,84.48,232.68,84.3z"/>
			</g>
			<g>
				<defs>
					<rect id="SVGID_40_" x="-30.75" y="-70.83" width="514.45" height="514.45"/>
				</defs>
				<clipPath id="SVGID_41_">
					<use xlink:href="#SVGID_40_"  style="overflow:visible;"/>
				</clipPath>
				<path class="st20" d="M254.44,102.83c-1.51,0.76-3.22,1.64-4.96,1.63c-1.61-0.01-2.61-0.97-3.86-1.81
					c-1.73-1.17-3.88-1.52-5.93-1.65c-1.78-0.11-3.35,0.14-4.64,1.45c-1.15,1.16-1.62,2.59-3.31,3.16
					c-1.71,0.58-3.54,0.21-4.92-0.94c-0.49-0.41-1.2,0.29-0.71,0.71c1.49,1.25,3.34,1.81,5.27,1.37c3.19-0.72,4.16-4.72,7.5-4.78
					c1.94-0.03,4.27,0.32,5.95,1.35c1.04,0.64,1.84,1.54,3.04,1.92c2.41,0.76,4.97-0.49,7.07-1.55
					C255.52,103.4,255.02,102.54,254.44,102.83z"/>
			</g>
			<g>
				<defs>
					<rect id="SVGID_42_" x="-30.75" y="-70.83" width="514.45" height="514.45"/>
				</defs>
				<clipPath id="SVGID_43_">
					<use xlink:href="#SVGID_42_"  style="overflow:visible;"/>
				</clipPath>
				<path class="st21" d="M261.21,116.31c-2.4,2.08-5.77,2.46-8.5,0.79c-1.69-1.03-2.98-2.46-5.02-2.77
					c-2.01-0.31-3.64,0.42-5.24,1.56c-2.85,2.03-5.87,2.8-9.1,0.96c-0.56-0.32-1.06,0.54-0.5,0.86c2.03,1.16,4.35,1.58,6.64,0.95
					c3.63-1,5.83-4.99,10.01-2.62c2.26,1.28,3.74,2.98,6.49,3.13c2.23,0.12,4.27-0.7,5.93-2.14
					C262.42,116.59,261.71,115.89,261.21,116.31z"/>
			</g>
			<g>
				<defs>
					<rect id="SVGID_44_" x="-30.75" y="-70.83" width="514.45" height="514.45"/>
				</defs>
				<clipPath id="SVGID_45_">
					<use xlink:href="#SVGID_44_"  style="overflow:visible;"/>
				</clipPath>
				<path class="st22" d="M269.33,130.56c-1.51,0.99-3.19,2.12-5.08,2.02c-1.39-0.08-2.63-0.87-3.78-1.58
					c-1.39-0.85-2.79-1.85-4.46-2.01c-1.93-0.19-3.43,0.83-4.95,1.89c-2.99,2.09-6.14,2.83-9.5,0.93c-0.56-0.32-1.07,0.55-0.5,0.86
					c2.19,1.24,4.7,1.67,7.14,0.93c2.81-0.86,4.89-4.05,8.04-3.55c2.49,0.4,4.27,2.6,6.67,3.29c2.58,0.74,4.83-0.54,6.93-1.91
					C270.38,131.07,269.88,130.21,269.33,130.56z"/>
			</g>
			<g>
				<defs>
					<rect id="SVGID_46_" x="-30.75" y="-70.83" width="514.45" height="514.45"/>
				</defs>
				<clipPath id="SVGID_47_">
					<use xlink:href="#SVGID_46_"  style="overflow:visible;"/>
				</clipPath>
				<path class="st23" d="M275.2,143.57c-2.79,2.21-6.07,4.24-9.5,2.07c-1.55-0.98-2.89-2.45-4.78-2.74
					c-1.69-0.26-3.13,0.58-4.52,1.42c-2.67,1.62-6.07,2.64-8.72,0.35c-0.48-0.42-1.19,0.28-0.71,0.71c1.59,1.38,3.47,1.85,5.56,1.55
					c3.2-0.45,6.14-4.05,9.34-2.66c2.34,1.02,3.86,3.26,6.59,3.4c2.86,0.15,5.33-1.71,7.45-3.4
					C276.4,143.87,275.68,143.17,275.2,143.57z"/>
			</g>
			<g>
				<defs>
					<rect id="SVGID_48_" x="-30.75" y="-70.83" width="514.45" height="514.45"/>
				</defs>
				<clipPath id="SVGID_49_">
					<use xlink:href="#SVGID_48_"  style="overflow:visible;"/>
				</clipPath>
				<path class="st24" d="M278.27,154.44c-2.26,1.5-4.55,2.96-6.88,4.36c-1.09,0.66-2.38,1.68-3.6,2.09
					c-2.16,0.73-3.48-0.02-5.25-1.04c-3.14-1.79-6.63-1.82-9.71,0.12c-0.54,0.34-0.04,1.21,0.5,0.86c2.51-1.58,5.41-1.78,8.07-0.47
					c1.56,0.77,2.96,2.01,4.79,1.98c1.93-0.04,3.71-1.48,5.3-2.43c2.47-1.47,4.9-3.02,7.29-4.61
					C279.32,154.95,278.82,154.08,278.27,154.44z"/>
			</g>
			<g>
				<defs>
					<rect id="SVGID_50_" x="-30.75" y="-70.83" width="514.45" height="514.45"/>
				</defs>
				<clipPath id="SVGID_51_">
					<use xlink:href="#SVGID_50_"  style="overflow:visible;"/>
				</clipPath>
				<path class="st25" d="M316.65,275.65c-4.04-2.19-8.76-2.66-13.16-1.31c-1.96,0.6-3.81,1.56-5.41,2.84
					c-2.46,1.97-4.08,5.28-7.26,6.2c-5.68,1.65-10.81-3.96-16.33-4.6c-3.3-0.38-6.69,0.43-8.05,3.73c-0.24,0.59,0.72,0.85,0.96,0.27
					c1.96-4.78,8.58-3.07,12.09-1.38c3.72,1.79,8.12,4.42,12.33,2.69c1.8-0.74,3.08-2.17,4.34-3.59c1.58-1.78,3.27-3.32,5.45-4.35
					c4.61-2.19,10.05-2.06,14.53,0.37C316.71,276.82,317.21,275.96,316.65,275.65z"/>
			</g>
			<g>
				<defs>
					<rect id="SVGID_52_" x="-30.75" y="-70.83" width="514.45" height="514.45"/>
				</defs>
				<clipPath id="SVGID_53_">
					<use xlink:href="#SVGID_52_"  style="overflow:visible;"/>
				</clipPath>
				<path class="st26" d="M327.7,289.53c-8.15-2-17.92-3.88-24.75,2.37c-3.79,3.47-6.74,8.37-12.61,6.11
					c-2.23-0.86-4.24-1.89-6.66-2.18c-2.7-0.33-5.32,0.08-7.84,1.06c-0.59,0.23-0.34,1.2,0.27,0.96c2.95-1.14,6.06-1.47,9.16-0.72
					c2.44,0.59,4.6,2.18,7.11,2.52c3.47,0.48,6.11-1.77,8.38-4.1c3.52-3.61,6.78-6.3,12-6.84c4.93-0.51,9.92,0.62,14.67,1.79
					C328.05,290.64,328.32,289.68,327.7,289.53z"/>
			</g>
			<g>
				<defs>
					<rect id="SVGID_54_" x="-30.75" y="-70.83" width="514.45" height="514.45"/>
				</defs>
				<clipPath id="SVGID_55_">
					<use xlink:href="#SVGID_54_"  style="overflow:visible;"/>
				</clipPath>
				<path class="st27" d="M348.38,304.81c-4.42,2.85-7.76-3.35-10.86-5.4c-2-1.32-4.3-1.59-6.6-1c-5.65,1.45-10.62,7.53-16.84,5.93
					c-0.62-0.16-0.89,0.8-0.27,0.96h0.01c-1.47,0.97-3.8-1.15-4.93-1.82c-0.95-0.56-1.91-0.97-3.01-1.14
					c-2.66-0.41-5.32,0.49-7.67,1.65c-5.7,2.81-12.61,10.51-19.4,6.21c-0.55-0.35-1.05,0.52-0.5,0.86c6.41,4.06,12.96-1.8,18.25-5
					c3.89-2.36,8.24-3.98,12.38-1.35c1.71,1.08,4.24,3.04,5.97,0.98c0.04-0.05,0.07-0.11,0.09-0.16c5.78,0.7,10.38-4.38,15.65-6
					c5-1.54,7.32,1.95,10.73,4.84c2.11,1.79,5,2.92,7.51,1.3C349.43,305.33,348.92,304.46,348.38,304.81z"/>
			</g>
			<g>
				<defs>
					<rect id="SVGID_56_" x="-30.75" y="-70.83" width="514.45" height="514.45"/>
				</defs>
				<clipPath id="SVGID_57_">
					<use xlink:href="#SVGID_56_"  style="overflow:visible;"/>
				</clipPath>
				<path class="st28" d="M352.68,324.03c-2.99-2.89-7.26-6.56-11.77-5.7c-5.08,0.96-5.51,7.41-10.12,8.9
					c-5.86,1.9-10.81-4.19-15.91-5.89c-5.37-1.79-10.6,0.91-15.2,3.49c-0.56,0.32-0.06,1.18,0.5,0.86
					c5.58-3.13,11.13-5.49,17.19-2.1c3.76,2.1,7.43,5.27,12.02,4.91c3.81-0.29,5.41-3.27,7.43-6.05c4.48-6.17,10.95-1.77,15.14,2.29
					C352.43,325.18,353.15,324.47,352.68,324.03z"/>
			</g>
			<g>
				<defs>
					<rect id="SVGID_58_" x="-30.75" y="-70.83" width="514.45" height="514.45"/>
				</defs>
				<clipPath id="SVGID_59_">
					<use xlink:href="#SVGID_58_"  style="overflow:visible;"/>
				</clipPath>
				<path class="st29" d="M357.24,341.44c-2.96-3.82-7.79-5.85-12.6-5.28c-5.38,0.63-8.73,4.96-13.36,7.22
					c-6.54,3.19-10.78-3.68-16.63-5.29c-5.11-1.41-10.64-0.34-14.88,2.8c-0.51,0.38-0.01,1.25,0.5,0.86
					c4.77-3.53,11.31-4.35,16.71-1.72c4.07,1.98,7.21,6.16,12.21,5.14c4.57-0.93,7.72-4.98,11.81-6.93
					c5.39-2.58,11.94-0.73,15.53,3.91C356.92,342.65,357.61,341.94,357.24,341.44z"/>
			</g>
			<g>
				<defs>
					<rect id="SVGID_60_" x="-30.75" y="-70.83" width="514.45" height="514.45"/>
				</defs>
				<clipPath id="SVGID_61_">
					<use xlink:href="#SVGID_60_"  style="overflow:visible;"/>
				</clipPath>
				<path class="st30" d="M364.05,358.5c-5.33,5.53-13.14-1.29-18.31-3.49c-2.55-1.09-5.32-1.65-8-0.7
					c-2.22,0.79-3.98,2.43-5.8,3.86c-3.08,2.42-6.09,3.52-9.81,1.65c-2.41-1.21-4.48-3.03-7.01-4.01
					c-4.85-1.86-10.43-0.16-13.65,3.83c-0.4,0.5,0.3,1.21,0.71,0.71c2.22-2.75,5.51-4.37,9.07-4.29c3.43,0.08,6.02,2.02,8.83,3.73
					c2.14,1.31,4.5,2.43,7.08,2c2.11-0.35,3.86-1.62,5.5-2.92c2.91-2.3,5.68-4.65,9.67-3.92c3.51,0.64,6.42,2.86,9.52,4.47
					c3.98,2.06,9.43,3.4,12.92-0.22C365.2,358.74,364.49,358.03,364.05,358.5z"/>
			</g>
			<g>
				<defs>
					<rect id="SVGID_62_" x="-30.75" y="-70.83" width="514.45" height="514.45"/>
				</defs>
				<clipPath id="SVGID_63_">
					<use xlink:href="#SVGID_62_"  style="overflow:visible;"/>
				</clipPath>
				<path class="st31" d="M367.52,370.62c-3.19,2.48-6.7,5.09-10.74,5.92c-4.55,0.94-7.46-1.49-11.14-3.58
					c-2.48-1.41-5.22-2.07-8.07-1.74c-3.38,0.4-5.89,2.29-8.64,4.1c-1.53,1.01-3.25,2.07-5.14,2.15c-2.03,0.08-3.66-1.09-5.25-2.2
					c-2.16-1.5-4.33-2.52-6.99-2.74c-5.13-0.42-10.19,1.98-12.96,6.33c-0.35,0.54,0.52,1.05,0.86,0.5
					c3.72-5.84,11.87-7.65,17.68-3.86c2.31,1.51,4.38,3.28,7.32,2.89c2.57-0.34,4.73-2.07,6.82-3.47c3.38-2.27,7.04-3.5,11.1-2.34
					c3.27,0.94,5.67,3.62,8.89,4.67c6.23,2.04,12.3-2.32,16.96-5.94C368.73,370.94,368.02,370.23,367.52,370.62z"/>
			</g>
			<g>
				<defs>
					<rect id="SVGID_64_" x="-30.75" y="-70.83" width="514.45" height="514.45"/>
				</defs>
				<clipPath id="SVGID_65_">
					<use xlink:href="#SVGID_64_"  style="overflow:visible;"/>
				</clipPath>
				<path class="st32" d="M371.95,387.65c-4.93,4.79-11.37,10.55-18.77,7.62c-4.3-1.7-8.08-5.27-12.96-3.25
					c-4.99,2.07-8.22,7.13-14.19,4.23c-4.22-2.05-8.26-6.23-13.26-3.94c-0.58,0.27-0.08,1.13,0.5,0.86
					c6.14-2.81,10.81,5.37,16.89,5.07c4.9-0.24,7.8-5.45,12.61-5.87c3.17-0.27,5.89,1.85,8.58,3.18c2.3,1.14,4.68,1.73,7.25,1.42
					c5.73-0.69,10.08-4.78,14.03-8.62C373.11,387.91,372.4,387.2,371.95,387.65z"/>
			</g>
			<g>
				<defs>
					<rect id="SVGID_66_" x="-30.75" y="-70.83" width="514.45" height="514.45"/>
				</defs>
				<clipPath id="SVGID_67_">
					<use xlink:href="#SVGID_66_"  style="overflow:visible;"/>
				</clipPath>
				<path class="st33" d="M375.36,407.98c-4.97-0.09-7.27,5.28-11.8,6.35c-5.17,1.22-9.94-3.51-14.52-5.14
					c-5.02-1.79-8.41,0.54-12.5,3.28c-3.11,2.08-6.21,2.62-9.78,1.42c-3.11-1.04-5.94-2.73-9.06-3.74c-0.61-0.2-0.88,0.77-0.27,0.96
					c5.35,1.73,10.91,6.16,16.76,3.81c2.34-0.94,4.23-2.69,6.37-3.98c2.97-1.78,5.89-1.77,9.03-0.46c4.13,1.73,8.18,5.34,12.92,5.01
					c5.17-0.35,7.7-6.6,12.84-6.51C376.01,408.99,376.01,407.99,375.36,407.98z"/>
			</g>
			<g>
				<defs>
					<rect id="SVGID_68_" x="-30.75" y="-70.83" width="514.45" height="514.45"/>
				</defs>
				<clipPath id="SVGID_69_">
					<use xlink:href="#SVGID_68_"  style="overflow:visible;"/>
				</clipPath>
				<path class="st34" d="M376.7,407.86c-0.64,0-0.64,1,0,1C377.33,408.86,377.33,407.86,376.7,407.86z"/>
			</g>
			<g>
				<defs>
					<rect id="SVGID_70_" x="-30.75" y="-70.83" width="514.45" height="514.45"/>
				</defs>
				<clipPath id="SVGID_71_">
					<use xlink:href="#SVGID_70_"  style="overflow:visible;"/>
				</clipPath>
				<path class="st35" d="M379.62,422.68c-4.01,2.58-8.21,6.05-12.85,7.37c-4.92,1.41-8.64-1.29-12.75-3.52
					c-2.57-1.4-5.42-2.5-8.34-1.54c-1.8,0.59-3.31,1.82-5.01,2.65c-2.71,1.32-5.57,2-8.57,2.15c-0.64,0.03-0.64,1.03,0,1
					c4.66-0.23,8.21-1.92,12.22-4.08c4.74-2.56,8.66,0.49,12.78,2.73c3.32,1.8,6.65,2.65,10.35,1.45c4.58-1.49,8.67-4.76,12.68-7.34
					C380.67,423.2,380.17,422.33,379.62,422.68z"/>
			</g>
			<g>
				<defs>
					<rect id="SVGID_72_" x="-30.75" y="-70.83" width="514.45" height="514.45"/>
				</defs>
				<clipPath id="SVGID_73_">
					<use xlink:href="#SVGID_72_"  style="overflow:visible;"/>
				</clipPath>
				<path class="st36" d="M385.14,442.54c-2.72-2.95-6.61-1.48-9.59,0.21c-5.4,3.05-11.29,4.35-16.97,1.15
					c-3.5-1.97-6.74-4.42-10.95-3.14c-4.04,1.22-7.55,5.23-12.05,4.34c-0.63-0.12-0.9,0.84-0.27,0.96c3.33,0.66,6.07-1.04,8.87-2.61
					c2.09-1.17,4.27-2.32,6.74-2.03c2.68,0.31,4.86,2.04,7.15,3.33c3.55,2,7.51,2.54,11.48,1.62c2.05-0.47,3.93-1.32,5.75-2.35
					c2.73-1.54,6.48-3.66,9.13-0.79C384.86,443.73,385.57,443.02,385.14,442.54z"/>
			</g>
		</g>
	</g>
</g>
</svg>
