<?xml version="1.0" encoding="utf-8"?>
<!-- Generator: Adobe Illustrator 23.0.2, SVG Export Plug-In . SVG Version: 6.00 Build 0)  -->
<svg version="1.1" xmlns="http://www.w3.org/2000/svg" xmlns:xlink="http://www.w3.org/1999/xlink" x="0px" y="0px"
	 viewBox="0 0 384.35 74.63" style="enable-background:new 0 0 384.35 74.63;" xml:space="preserve">
<g id="Layer_1">
	<g>
		<path d="M69.81,51.96v3.55H52.63V25.37h3.84v26.59H69.81z"/>
		<path d="M78.93,25.37v30.14h-3.84V25.37H78.93z"/>
		<path d="M2.9,31.45v3.84h34.88v-3.84H2.9z"/>
		<path d="M110.52,32.76c-0.13-0.13-0.47-0.42-1.03-0.89c-0.56-0.46-1.31-0.95-2.26-1.46c-0.94-0.51-2.05-0.98-3.31-1.39
			c-1.26-0.42-2.66-0.62-4.2-0.62c-1.86,0-3.55,0.3-5.09,0.91c-1.54,0.61-2.86,1.44-3.98,2.5c-1.12,1.06-1.99,2.31-2.62,3.77
			c-0.62,1.46-0.94,3.05-0.94,4.78c0,1.89,0.35,3.58,1.06,5.09c0.7,1.5,1.65,2.78,2.83,3.82c1.18,1.04,2.54,1.83,4.06,2.38
			c1.52,0.54,3.08,0.82,4.68,0.82c1.92,0,3.84-0.4,5.76-1.2c1.92-0.8,3.68-1.87,5.28-3.22l2.74,2.3c-0.13,0.13-0.56,0.5-1.3,1.1
			c-0.74,0.61-1.72,1.25-2.95,1.92c-1.23,0.67-2.66,1.28-4.27,1.82c-1.62,0.54-3.37,0.82-5.26,0.82c-2.27,0-4.41-0.39-6.41-1.18
			c-2-0.78-3.74-1.87-5.23-3.26c-1.49-1.39-2.66-3.04-3.53-4.94c-0.86-1.9-1.3-3.96-1.3-6.17c0-2.05,0.38-4.02,1.13-5.9
			c0.75-1.89,1.83-3.55,3.24-4.99c1.41-1.44,3.13-2.58,5.16-3.43c2.03-0.85,4.34-1.27,6.94-1.27c2.4,0,4.78,0.46,7.15,1.37
			c2.37,0.91,4.45,2.3,6.24,4.15L110.52,32.76z"/>
		<path d="M117.43,55.51V25.37h17.23v3.55h-13.39v8.74h10.7v3.55h-10.7v10.75h13.39v3.55H117.43z"/>
		<path d="M194.42,50.04c-2.02,1.89-4.27,3.36-6.77,4.42c-2.5,1.06-5.1,1.58-7.82,1.58c-2.66,0-5.19-0.5-7.61-1.49
			c-2.42-0.99-4.54-2.34-6.36-4.06c-1.82-1.71-3.28-3.72-4.37-6.02s-1.63-4.77-1.63-7.39c0-2.62,0.53-5.09,1.58-7.39
			c1.06-2.3,2.49-4.31,4.3-6.02c1.81-1.71,3.92-3.06,6.34-4.06c2.42-0.99,5-1.49,7.75-1.49c2.72,0,5.32,0.54,7.8,1.61
			c2.48,1.07,4.73,2.52,6.74,4.34l-2.64,2.5c-1.66-1.54-3.51-2.75-5.54-3.65c-2.03-0.9-4.15-1.34-6.36-1.34s-4.3,0.41-6.26,1.22
			c-1.97,0.82-3.68,1.94-5.14,3.36c-1.46,1.42-2.61,3.07-3.46,4.94c-0.85,1.87-1.27,3.86-1.27,5.98c0,2.11,0.47,4.11,1.42,6
			c0.94,1.89,2.18,3.53,3.7,4.92c1.52,1.39,3.24,2.5,5.16,3.31c1.92,0.82,3.87,1.22,5.86,1.22c2.21,0,4.32-0.45,6.34-1.34
			c2.02-0.9,3.89-2.11,5.62-3.65L194.42,50.04z"/>
		<path d="M213.71,24.94c2.18,0,4.27,0.36,6.29,1.08c2.02,0.72,3.8,1.75,5.35,3.1c1.55,1.34,2.79,2.98,3.72,4.9
			c0.93,1.92,1.39,4.06,1.39,6.43c0,2.4-0.46,4.55-1.39,6.46c-0.93,1.9-2.17,3.53-3.72,4.87c-1.55,1.34-3.34,2.38-5.35,3.1
			c-2.02,0.72-4.11,1.08-6.29,1.08c-2.18,0-4.28-0.36-6.31-1.08c-2.03-0.72-3.82-1.75-5.38-3.1c-1.55-1.34-2.79-2.97-3.72-4.87
			c-0.93-1.9-1.39-4.06-1.39-6.46c0-2.37,0.46-4.51,1.39-6.43c0.93-1.92,2.17-3.55,3.72-4.9c1.55-1.34,3.34-2.38,5.38-3.1
			C209.43,25.3,211.54,24.94,213.71,24.94z M213.71,28.49c-1.7,0-3.33,0.28-4.9,0.84c-1.57,0.56-2.95,1.35-4.15,2.38
			c-1.2,1.02-2.15,2.27-2.86,3.74c-0.7,1.47-1.06,3.14-1.06,4.99s0.35,3.52,1.06,4.99c0.7,1.47,1.66,2.73,2.86,3.77
			c1.2,1.04,2.58,1.83,4.15,2.38c1.57,0.54,3.2,0.82,4.9,0.82c1.7,0,3.32-0.27,4.87-0.82c1.55-0.54,2.93-1.34,4.13-2.38
			c1.2-1.04,2.15-2.3,2.86-3.77c0.7-1.47,1.06-3.14,1.06-4.99s-0.35-3.52-1.06-4.99c-0.7-1.47-1.66-2.72-2.86-3.74
			c-1.2-1.02-2.58-1.82-4.13-2.38C217.03,28.77,215.41,28.49,213.71,28.49z"/>
		<path d="M252.45,51.96v3.55h-17.18V25.37h3.84v26.59H252.45z"/>
		<path d="M251.01,25.37h26.88v3.55h-11.52v26.59h-3.84V28.92h-11.52V25.37z"/>
		<path d="M304,35.88c0,1.28-0.2,2.47-0.6,3.58c-0.4,1.1-0.95,2.09-1.66,2.95c-0.7,0.86-1.54,1.61-2.52,2.23
			c-0.98,0.62-2.06,1.08-3.24,1.37c0.77,0.74,1.58,1.52,2.45,2.35c0.86,0.83,1.74,1.66,2.62,2.5c0.88,0.83,1.74,1.65,2.57,2.45
			c0.83,0.8,1.6,1.54,2.3,2.21h-5.33l-9.26-9.12h-5.28v9.12h-3.84V25.37h8.45c1.95,0,3.74,0.25,5.38,0.74
			c1.63,0.5,3.04,1.2,4.22,2.11c1.18,0.91,2.1,2.02,2.76,3.31C303.67,32.83,304,34.28,304,35.88z M300.16,35.88
			c0-1.09-0.25-2.06-0.74-2.9c-0.5-0.85-1.16-1.58-1.99-2.18c-0.83-0.61-1.8-1.07-2.9-1.39s-2.26-0.48-3.48-0.48h-4.99v13.92h6.67
			c1.15,0,2.18-0.18,3.1-0.55c0.91-0.37,1.69-0.86,2.33-1.49c0.64-0.62,1.14-1.36,1.49-2.21C299.98,37.74,300.16,36.84,300.16,35.88
			z"/>
		<path d="M320.85,25.37l12.1,30.14h-4.13l-3.65-8.93h-10.85l-3.5,8.93h-4.13l11.81-30.14H320.85z M315.62,43.03h8.21
			c-0.35-0.93-0.69-1.8-1.01-2.62c-0.32-0.82-0.64-1.62-0.96-2.4c-0.32-0.78-0.66-1.61-1.01-2.47c-0.35-0.86-0.72-1.81-1.1-2.83
			L315.62,43.03z"/>
		<path d="M336.83,55.51V25.37h3.31l16.42,14.16V25.37h3.84v30.14h-3.84V44.42l-15.89-13.68v24.77H336.83z"/>
		<path d="M367.12,55.51V25.37h17.23v3.55h-13.39v8.74h10.7v3.55h-10.7v10.75h13.39v3.55H367.12z"/>
		<path d="M22.44,0v5.5h3.84V0H22.44z"/>
		<path d="M34.85,31.45l1.55,3.84h1.38v-3.84H34.85z M24.36,0.78l-1.64,0.66l1.64,4.06L25,7.09h1.28V0L24.36,0.78z"/>
		<path d="M72.89,67.38c-1.81,1.89-4.48,2.91-6.91,3.23c-8.92,1.16-13.49-5.6-16.47-12.82c-3.39-8.21-6.57-16.54-9.89-24.77
			c-4.45-11-8.89-22.01-13.34-33.01v7.09H25l9.85,24.36h2.93v3.84H36.4c0.08,0,0.44,1.09,0.47,1.17c1.79,4.43,3.58,8.86,5.37,13.29
			c0.99,2.46,1.99,4.92,2.98,7.39c1.46,3.62,2.96,7.4,5.35,10.58c3.26,4.33,8.1,6.92,13.51,6.92c0.81,0,1.62-0.05,2.4-0.16
			c5.19-0.67,9.19-3.33,11.15-7.09H72.89z"/>
		<polygon points="22.43,0 0,55.52 4.14,55.52 25.99,1.44 		"/>
		<path d="M51.01,61.21l-0.17-0.42l0.05-0.01C50.93,60.92,50.97,61.07,51.01,61.21z"/>
	</g>
</g>
<g id="Layer_2">
</g>
</svg>
