<?xml version="1.0" encoding="utf-8"?>
<!-- Generator: Adobe Illustrator 23.0.2, SVG Export Plug-In . SVG Version: 6.00 Build 0)  -->
<svg version="1.1" id="Layer_1" xmlns="http://www.w3.org/2000/svg" xmlns:xlink="http://www.w3.org/1999/xlink" x="0px" y="0px"
	 viewBox="0 0 548.4 448.5" style="enable-background:new 0 0 548.4 448.5;" xml:space="preserve">
<style type="text/css">
	.st0{fill:#443D4A;}
</style>
<path class="st0" d="M113.7,358.5v72h0L113.7,358.5L113.7,358.5z"/>
<path class="st0" d="M116.7,358.5v72h0L116.7,358.5L116.7,358.5z"/>
<path class="st0" d="M219.7,405.5v25h0L219.7,405.5L219.7,405.5z"/>
<path class="st0" d="M222.7,405.5v25h0L222.7,405.5L222.7,405.5z"/>
<path class="st0" d="M508.8,231c-16-13.9-35.3-21.3-54.1-28.4c-8.7-3.3-17-6.4-24.9-10.2c-28.8-13.7-49.8-29.2-64.1-47.5
	c-9-11.6-15.8-24.6-23-38.4c-6-11.5-12.1-23.3-19.7-34.3C292.3,27.7,237.9,0,181,0C129.4,0,80.4,22.6,46.6,62.1
	C12.1,102.4,4.4,152.6,1.3,200.9c-0.4,6.5-1,43.2-1.2,78.5c-0.1,19.3-0.1,35.9,0,47.9c0.1,13.7,0.3,20,0.9,23.4v88.7c0,5,4,9,9,9
	h527c5,0,9-4,9-9V351c0.1-0.3,0.2-0.7,0.2-1.1c0.2-0.9,0.3-2,0.5-3.4c0.3-2.3,0.6-4.7,0.6-5.2C552.6,297.8,538.1,256.6,508.8,231z
	 M43,430.5H19v-72h17v41.7c0,2.9,2.4,5.3,5.3,5.3H43V430.5z M46,430.5v-25h1.7c2.9,0,5.3-2.4,5.3-5.3v-41.7h18.3v41.7
	c0,2.9,2.4,5.3,5.3,5.3h1.7v25H46z M113.7,430.5H81.4v-25h1.7c2.9,0,5.3-2.4,5.3-5.3v-41.7h25.3V430.5z M149,430.5h-32.3v-72H142
	v41.7c0,2.9,2.4,5.3,5.3,5.3h1.7V430.5z M184.4,430.5H152v-25h1.7c2.9,0,5.3-2.4,5.3-5.3v-41.7h18.3v41.7c0,2.9,2.4,5.3,5.3,5.3h1.7
	V430.5z M219.7,430.5h-32.3v-25h1.7c2.9,0,5.3-2.4,5.3-5.3v-41.7h18.3v41.7c0,2.9,2.4,5.3,5.3,5.3h1.7V430.5z M255,430.5h-32.3v-25
	h1.7c2.9,0,5.3-2.4,5.3-5.3v-41.7H255V430.5z M290.4,430.5H258v-72h25.3v41.7c0,2.9,2.4,5.3,5.3,5.3h1.7V430.5z M325.7,430.5h-32.3
	v-25h1.7c2.9,0,5.3-2.4,5.3-5.3v-41.7h18.3v41.7c0,2.9,2.4,5.3,5.3,5.3h1.7V430.5z M361,430.5h-32.3v-25h1.7c2.9,0,5.3-2.4,5.3-5.3
	v-41.7H361V430.5z M396.4,430.5H364v-72h25.3v41.7c0,2.9,2.4,5.3,5.3,5.3h1.7V430.5z M431.7,430.5h-32.3v-25h1.7
	c2.9,0,5.3-2.4,5.3-5.3v-41.7h18.3v41.7c0,2.9,2.4,5.3,5.3,5.3h1.7V430.5z M467,430.5h-32.3v-25h1.7c2.9,0,5.3-2.4,5.3-5.3v-41.7
	H460v41.7c0,2.9,2.4,5.3,5.3,5.3h1.7V430.5z M502.4,430.5H470v-25h1.7c2.9,0,5.3-2.4,5.3-5.3v-41.7h25.3V430.5z M528,430.5h-22.6
	v-72H528V430.5z M529.5,339.2l0,0.2c0,0.4-0.1,0.8-0.1,1.2H18.3c-0.7-27.8,0-125,0.9-138.4c3-45.2,10-92,41.1-128.3
	C90.7,38.3,134.7,18,181,18c51.1,0,99.8,24.7,127.3,64.5c6.9,10.1,12.6,20.9,18.5,32.4c7.2,13.9,14.7,28.3,24.8,41.2
	c16,20.6,39.1,37.8,70.5,52.7c8.6,4.1,17.5,7.5,26.2,10.8c18,6.8,35.1,13.3,48.6,25.1C521.8,266.2,534,301.6,529.5,339.2z"/>
<path class="st0" d="M325.7,405.5v25h0L325.7,405.5L325.7,405.5z"/>
<path class="st0" d="M328.7,405.5v25h0L328.7,405.5L328.7,405.5z"/>
<path class="st0" d="M431.7,405.5v25h0L431.7,405.5L431.7,405.5z"/>
<path class="st0" d="M434.7,405.5v25h0L434.7,405.5L434.7,405.5z"/>
</svg>
