<?xml version="1.0" encoding="utf-8"?>
<!-- Generator: Adobe Illustrator 23.0.2, SVG Export Plug-In . SVG Version: 6.00 Build 0)  -->
<svg version="1.1" id="Layer_1" xmlns="http://www.w3.org/2000/svg" xmlns:xlink="http://www.w3.org/1999/xlink" x="0px" y="0px"
	 viewBox="0 0 593.25 496.08" style="enable-background:new 0 0 593.25 496.08;" xml:space="preserve">
<style type="text/css">
	.st0{fill:#2A2233;}
	.st1{opacity:0.6;}
	.st2{fill:#2A2233;enable-background:new    ;}
</style>
<g>
	<path class="st0" d="M38.15,214.4l0.26-0.4c-0.1,0.1-0.22,0.2-0.33,0.29L38.15,214.4z"/>
	<path class="st0" d="M189.63,299.3c-1.29-13.05-5.8-25.72-13.69-36.43c-8.21-11.14-18.9-18.62-32.51-21.75
		c-8.37-1.92-16.72-1.66-25.33,0.1c-0.73-1.1-0.73-3.59-0.99-4.85c-0.76-3.78-1.52-7.56-2.28-11.33c-1.55-7.74-3.1-15.47-4.65-23.21
		c-0.56-2.81-1.1-5.62-1.62-8.43c-0.11-0.57,0.3-1.41,0.73-1.89c2.22-2.47,4.57-4.81,6.79-7.28c11.7-13,21.04-27.49,27.3-43.86
		c0.24-0.63,0.5-1.11,0.82-1.46l1.59-5.08c-0.01,0-0.02,0-0.04,0c0.69,0,2.87-10.15,3.13-11.22c0.93-3.88,1.71-7.8,2.35-11.73
		c1.27-7.81,1.99-15.7,2.26-23.61c0.53-15.37-0.07-31.11-3.48-46.14c-2.03-8.93-4.77-18.08-9.09-26.17
		C137.38,8.34,133.09,2.43,125.46,0c-1.51,0-3.02,0-4.53,0c-9.45,2.7-15.09,9.82-20.05,17.58c-6.5,10.16-10.28,21.23-13.77,32.69
		c0.12-0.23,0.23-0.47,0.35-0.7c-3.07,8.61-4.2,17.74-4.68,26.83c-0.37,7.13-0.09,14.28,0.57,21.38
		c1.66,17.95,4.59,36.11,8.23,53.76c0.3,1.44-0.21,2.21-1.09,3.13c-8.96,9.38-17.97,18.7-26.79,28.2
		c-8.98,9.67-17.43,19.79-24.92,30.68c-0.1,0.15-0.24,0.3-0.38,0.45l-0.26,0.4l0.02,0.02l-0.02-0.02l-3.18,4.93c0.05,0,0.1,0,0.15,0
		c-15.85,24.37-21.95,50.45-16.69,78.94h-0.01l1,5.65c0.08,0.21,0.16,0.44,0.22,0.72c3.35,14.68,9.03,28.35,17.94,40.58
		c16.43,22.55,43.4,35.65,71.21,35.69c8.8,0.01,17.42-1.64,26.1-2.91c1.06,0.05,4.39,25.08,4.54,26.11
		c1.56,10.73,3.07,21.46,4.38,32.22c1.08,8.9,1.14,17.78-2.45,26.25c-5.54,13.06-15.73,20.18-29.43,22.6
		c-6.36,1.12-12.63,0.64-18.55-2.17c-5.42-2.57-8.79-6.69-9.37-12.9c2.47-0.4,4.93-0.63,7.29-1.22c11.99-2.98,19.84-13.83,19.2-26.4
		c-0.58-11.47-10.14-21.73-21.95-23.27c-8.04-1.05-15.23,1.06-21.3,6.59c-4.05,3.69-8.46,7.08-10.28,12.61
		c-3.17,9.64-4.85,19.37-0.68,29.1c3.61,8.44,10.19,14.28,17.88,18.91c8.7,5.24,18.16,8.32,28.28,9.29
		c0.43,0.04,0.85,0.23,1.28,0.36c3.32,0,6.64,0,9.96,0c1.61-0.3,3.22-0.59,4.83-0.89c12.46-2.3,22.47-8.32,29.27-19.24
		c6.95-11.17,8.84-23.63,7.71-36.3c-1.23-13.85-3.8-27.57-5.86-41.34c-0.65-4.34-1.54-8.64-2.35-13.13c0.01,0,0.01,0,0.02,0
		l-0.73-4.31c-0.02,0-0.03,0-0.05,0c-0.27-1.19-0.5-2.13-0.68-3.07c-0.62-3.3-0.59-3.25,2.48-4.65
		c21.33-9.8,35.98-27.79,40.29-50.96C190.03,314.64,190.38,306.9,189.63,299.3z M97.98,93.86c2.32-14.84,7.15-29.22,16.75-40.9
		c1.07-1.3,2.14-2.6,3.34-3.77c2.84-2.76,6.34-4.84,10.34-5.22c5.67-0.53,9.38,4.91,10.99,9.72c4.17,12.44,1.54,27.54-3.19,39.41
		c-5.93,14.89-15.36,27.55-25.68,39.62c-0.19,0.23-0.47,0.45-0.76,0.61l-4.2,4.8c0.1,0,0.19,0,0.28,0
		c-2.08,2.28-3.96,4.32-6.11,6.68c0.36-0.39-0.74-6.26-0.82-7.08c-0.8-8.47-2.44-16.73-2.42-25.28
		C96.54,106.3,97.01,100.05,97.98,93.86z M133.07,367.1c-24.66,6.73-47.25,3.28-67.72-11.27c-9.74-6.92-17.3-16.38-21.78-27.46
		c-10.38-25.66-6.64-57.07,8.62-79.88c5.44-8.13,12.21-15.25,19.26-21.99c6.8-6.5,13.63-13.15,20.75-19.29
		c1.46-1.25,2.93-2.49,4.39-3.74c0.68-0.59,3.13-3.43,3.94-3.43c-0.87,0.78,2.11,10.87,2.4,12.56c1.78,10.48,4.14,20.87,6.21,31.3
		c-22.71,9-39.18,30.07-40.32,53.49c0.02,0,0.04,0,0.06,0l-0.01-0.4l0.01,0.4l0.18,6.25c0.11,0.21,0.19,0.48,0.23,0.84
		c1.43,12.77,7.67,22.97,17,31.46c6.29,5.72,13.52,10.02,21.4,13.51c0.61-0.87,1.21-1.72,1.88-2.67c-0.04,0.05-7.73-7.84-8.4-8.63
		c-2.56-3.04-4.87-6.3-6.74-9.81c-7.55-14.15-6.09-33.16,5.28-44.93c2.12-2.2,4.5-4.15,7.09-5.77c0.64-0.4,8.15-4.04,8.22-3.67
		c3.1,15.4,6.1,30.82,9.1,46.23C124.88,324.11,133.62,366.95,133.07,367.1z M157.15,350.36c-3.32,4.57-9.15,9.58-14.2,12.12
		c0.62-0.31-3.16-15.51-3.47-17.07c-4.32-24.37-9.9-48.52-14.92-72.75c-0.1-0.51,10.53,0.98,11.46,1.26
		c3.82,1.12,7.43,2.9,10.7,5.16c14.84,10.26,22.29,31.19,19.63,48.73C165.05,336.39,161.31,342.97,157.15,350.36z"/>
</g>
<g class="st1">
	<rect x="0" y="103.17" class="st2" width="593.25" height="60"/>
	<rect x="0" y="171.97" class="st2" width="593.25" height="60"/>
	<rect x="0" y="307.96" class="st2" width="593.25" height="60"/>
	<rect x="0" y="240.78" class="st2" width="593.25" height="60"/>
</g>
</svg>
