<?xml version="1.0" encoding="utf-8"?>
<!-- Generator: Adobe Illustrator 23.0.2, SVG Export Plug-In . SVG Version: 6.00 Build 0)  -->
<svg version="1.1" id="Layer_1" xmlns="http://www.w3.org/2000/svg" xmlns:xlink="http://www.w3.org/1999/xlink" x="0px" y="0px"
	 viewBox="0 0 2068.9 473" style="enable-background:new 0 0 2068.9 473;" xml:space="preserve">
<style type="text/css">
	.st0{fill:#2A2233;}
	.st1{fill:url(#SVGID_1_);}
	.st2{fill:url(#SVGID_2_);}
	.st3{fill:url(#SVGID_3_);}
	.st4{fill:url(#SVGID_4_);}
</style>
<g>
	<path class="st0" d="M38.2,204.4l0.3-0.4c-0.1,0.1-0.2,0.2-0.3,0.3L38.2,204.4z"/>
	<path class="st0" d="M189.6,289.3c-1.3-13-5.8-25.7-13.7-36.4c-8.2-11.1-18.9-18.6-32.5-21.8c-8.4-1.9-16.7-1.7-25.3,0.1
		c-0.7-1.1-0.7-3.6-1-4.9c-0.8-3.8-1.5-7.6-2.3-11.3c-1.6-7.7-3.1-15.5-4.7-23.2c-0.6-2.8-1.1-5.6-1.6-8.4c-0.1-0.6,0.3-1.4,0.7-1.9
		c2.2-2.5,4.6-4.8,6.8-7.3c11.7-13,21-27.5,27.3-43.9c0.2-0.6,0.5-1.1,0.8-1.5l1.6-5.1c0,0,0,0,0,0c0.7,0,2.9-10.2,3.1-11.2
		c0.9-3.9,1.7-7.8,2.4-11.7c1.3-7.8,2-15.7,2.3-23.6c0.5-15.4-0.1-31.1-3.5-46.1c-2-8.9-4.8-18.1-9.1-26.2
		c-3.5-6.6-7.8-12.5-15.5-15c-1.5,0-3,0-4.5,0c-9.4,2.7-15.1,9.8-20,17.6c-6.5,10.2-10.3,21.2-13.8,32.7c0.1-0.2,0.2-0.5,0.3-0.7
		c-3.1,8.6-4.2,17.7-4.7,26.8c-0.4,7.1-0.1,14.3,0.6,21.4c1.7,18,4.6,36.1,8.2,53.8c0.3,1.4-0.2,2.2-1.1,3.1
		c-9,9.4-18,18.7-26.8,28.2c-9,9.7-17.4,19.8-24.9,30.7c-0.1,0.1-0.2,0.3-0.4,0.4l-0.3,0.4l0,0l0,0l-3.2,4.9c0,0,0.1,0,0.2,0
		c-15.9,24.4-22,50.4-16.7,78.9h0l1,5.6c0.1,0.2,0.2,0.4,0.2,0.7c3.4,14.7,9,28.4,17.9,40.6c16.4,22.5,43.4,35.6,71.2,35.7
		c8.8,0,17.4-1.6,26.1-2.9c1.1,0,4.4,25.1,4.5,26.1c1.6,10.7,3.1,21.5,4.4,32.2c1.1,8.9,1.1,17.8-2.4,26.2
		c-5.5,13.1-15.7,20.2-29.4,22.6c-6.4,1.1-12.6,0.6-18.5-2.2c-5.4-2.6-8.8-6.7-9.4-12.9c2.5-0.4,4.9-0.6,7.3-1.2
		c12-3,19.8-13.8,19.2-26.4c-0.6-11.5-10.1-21.7-21.9-23.3c-8-1-15.2,1.1-21.3,6.6c-4,3.7-8.5,7.1-10.3,12.6
		c-3.2,9.6-4.8,19.4-0.7,29.1c3.6,8.4,10.2,14.3,17.9,18.9c8.7,5.2,18.2,8.3,28.3,9.3c0.4,0,0.8,0.2,1.3,0.4c3.3,0,6.6,0,10,0
		c1.6-0.3,3.2-0.6,4.8-0.9c12.5-2.3,22.5-8.3,29.3-19.2c6.9-11.2,8.8-23.6,7.7-36.3c-1.2-13.9-3.8-27.6-5.9-41.3
		c-0.6-4.3-1.5-8.6-2.4-13.1c0,0,0,0,0,0l-0.7-4.3c0,0,0,0-0.1,0c-0.3-1.2-0.5-2.1-0.7-3.1c-0.6-3.3-0.6-3.2,2.5-4.6
		c21.3-9.8,36-27.8,40.3-51C190,304.6,190.4,296.9,189.6,289.3z M98,83.9c2.3-14.8,7.2-29.2,16.8-40.9c1.1-1.3,2.1-2.6,3.3-3.8
		c2.8-2.8,6.3-4.8,10.3-5.2c5.7-0.5,9.4,4.9,11,9.7c4.2,12.4,1.5,27.5-3.2,39.4c-5.9,14.9-15.4,27.5-25.7,39.6
		c-0.2,0.2-0.5,0.4-0.8,0.6l-4.2,4.8c0.1,0,0.2,0,0.3,0c-2.1,2.3-4,4.3-6.1,6.7c0.4-0.4-0.7-6.3-0.8-7.1c-0.8-8.5-2.4-16.7-2.4-25.3
		C96.5,96.3,97,90.1,98,83.9z M133.1,357.1c-24.7,6.7-47.2,3.3-67.7-11.3c-9.7-6.9-17.3-16.4-21.8-27.5
		c-10.4-25.7-6.6-57.1,8.6-79.9c5.4-8.1,12.2-15.2,19.3-22c6.8-6.5,13.6-13.1,20.8-19.3c1.5-1.2,2.9-2.5,4.4-3.7
		c0.7-0.6,3.1-3.4,3.9-3.4c-0.9,0.8,2.1,10.9,2.4,12.6c1.8,10.5,4.1,20.9,6.2,31.3c-22.7,9-39.2,30.1-40.3,53.5c0,0,0,0,0.1,0l0-0.4
		l0,0.4l0.2,6.2c0.1,0.2,0.2,0.5,0.2,0.8c1.4,12.8,7.7,23,17,31.5c6.3,5.7,13.5,10,21.4,13.5c0.6-0.9,1.2-1.7,1.9-2.7
		c0,0-7.7-7.8-8.4-8.6c-2.6-3-4.9-6.3-6.7-9.8c-7.6-14.1-6.1-33.2,5.3-44.9c2.1-2.2,4.5-4.1,7.1-5.8c0.6-0.4,8.2-4,8.2-3.7
		c3.1,15.4,6.1,30.8,9.1,46.2C124.9,314.1,133.6,357,133.1,357.1z M157.1,340.4c-3.3,4.6-9.1,9.6-14.2,12.1
		c0.6-0.3-3.2-15.5-3.5-17.1c-4.3-24.4-9.9-48.5-14.9-72.8c-0.1-0.5,10.5,1,11.5,1.3c3.8,1.1,7.4,2.9,10.7,5.2
		c14.8,10.3,22.3,31.2,19.6,48.7C165.1,326.4,161.3,333,157.1,340.4z"/>
</g>
<g>
	<linearGradient id="SVGID_1_" gradientUnits="userSpaceOnUse" x1="0" y1="131.17" x2="2068.9294" y2="131.17">
		<stop  offset="0.563" style="stop-color:#2A2233;stop-opacity:0.6"/>
		<stop  offset="1" style="stop-color:#2A2233;stop-opacity:0"/>
	</linearGradient>
	<rect y="101.2" class="st1" width="2068.9" height="60"/>
	<linearGradient id="SVGID_2_" gradientUnits="userSpaceOnUse" x1="0" y1="199.97" x2="2068.9294" y2="199.97">
		<stop  offset="0.563" style="stop-color:#2A2233;stop-opacity:0.6"/>
		<stop  offset="1" style="stop-color:#2A2233;stop-opacity:0"/>
	</linearGradient>
	<rect y="170" class="st2" width="2068.9" height="60"/>
	<linearGradient id="SVGID_3_" gradientUnits="userSpaceOnUse" x1="0" y1="335.96" x2="2068.9294" y2="335.96">
		<stop  offset="0.563" style="stop-color:#2A2233;stop-opacity:0.6"/>
		<stop  offset="1" style="stop-color:#2A2233;stop-opacity:0"/>
	</linearGradient>
	<rect y="306" class="st3" width="2068.9" height="60"/>
	<linearGradient id="SVGID_4_" gradientUnits="userSpaceOnUse" x1="0" y1="268.78" x2="2068.9294" y2="268.78">
		<stop  offset="0.563" style="stop-color:#2A2233;stop-opacity:0.6"/>
		<stop  offset="1" style="stop-color:#2A2233;stop-opacity:0"/>
	</linearGradient>
	<rect y="238.8" class="st4" width="2068.9" height="60"/>
</g>
</svg>
